<?xml version="1.0" encoding="UTF-8"?>
<svg id="Layer_2" data-name="Layer 2" xmlns="http://www.w3.org/2000/svg" viewBox="0 0 70 70">
  <defs>
    <style>
      .cls-1 {
        stroke: #e9988e;
        stroke-linecap: round;
        stroke-miterlimit: 10;
        stroke-width: 4px;
      }

      .cls-1, .cls-2 {
        fill: none;
      }

      .cls-3 {
        fill: #e9988e;
      }
    </style>
  </defs>
  <g id="Layer_1-2" data-name="Layer 1">
    <g>
      <g>
        <path class="cls-3" d="m10.35,20.5c-2.69-2.69-2.69-7.08,0-9.77l.36-.36c2.69-2.69,7.08-2.69,9.77,0l7.42,7.42,2.74,2.71,6.31,6.31c.3-3.14-.75-6.38-3.15-8.78l-10.49-10.49c-4.26-4.26-11.17-4.26-15.43,0l-.36.36c-4.26,4.26-4.26,11.17,0,15.43l10.49,10.49c2.4,2.4,5.66,3.45,8.8,3.14L10.35,20.5Z"/>
        <path class="cls-3" d="m62.48,46.67l-10.49-10.49c-2.4-2.4-5.65-3.44-8.79-3.13l16.45,16.45c2.7,2.7,2.7,7.09,0,9.78l-.36.36c-2.69,2.69-7.08,2.69-9.78,0l-8.23-8.23h-.01s-8.22-8.2-8.22-8.2c-.3,3.13.74,6.37,3.14,8.77l10.49,10.49c4.26,4.26,11.18,4.26,15.44,0l.36-.36c4.26-4.26,4.25-11.18,0-15.44Z"/>
        <line class="cls-1" x1="46.66" y1="46.65" x2="23.38" y2="23.37"/>
      </g>
      <rect class="cls-2" width="70" height="70"/>
    </g>
  </g>
</svg>