<?xml version="1.0" encoding="UTF-8"?> <!-- Generator: Adobe Illustrator 24.2.1, SVG Export Plug-In . SVG Version: 6.00 Build 0) --> <svg xmlns="http://www.w3.org/2000/svg" xmlns:xlink="http://www.w3.org/1999/xlink" version="1.1" id="Layer_1" x="0px" y="0px" viewBox="0 0 1000 1000" style="enable-background:new 0 0 1000 1000;" xml:space="preserve"> <style type="text/css"> .st0{display:none;} .st1{display:inline;fill:#108E60;} .st2{display:inline;} .st3{fill:#A36C7B;} .st4{fill:#83223C;} .st5{fill:#AE324E;} .st6{fill:#F7D7DD;} .st7{fill:#FFFFFF;} .st8{fill:none;stroke:#000000;stroke-width:4;stroke-linecap:round;stroke-miterlimit:10;} .st9{fill:none;stroke:#000000;stroke-width:4;stroke-miterlimit:10;} .st10{fill:#FFFFFF;stroke:#000000;stroke-width:4;stroke-miterlimit:10;} .st11{fill:#2A5075;} .st12{fill:#FFFFFF;stroke:#000000;stroke-width:3;stroke-miterlimit:10;} .st13{fill:#1B4250;} .st14{fill:none;stroke:#000000;stroke-width:3;stroke-miterlimit:10;} .st15{fill:none;stroke:#000000;stroke-width:2;stroke-linecap:round;stroke-miterlimit:10;} .st16{fill:none;} .st17{display:inline;fill:none;stroke:#000000;stroke-width:4;stroke-miterlimit:10;} .st18{clip-path:url(#SVGID_2_);fill:#C1A9A7;} .st19{clip-path:url(#SVGID_2_);} .st20{fill:#402211;} .st21{fill:#AD324E;} .st22{fill:#295E87;} .st23{clip-path:url(#SVGID_2_);fill:#402211;} .st24{fill:#C49A6C;stroke:#000000;stroke-width:9;stroke-miterlimit:10;} .st25{fill:#FFFFFF;stroke:#000000;stroke-width:9;stroke-miterlimit:10;} .st26{fill:#B2B3B3;stroke:#000000;stroke-width:9;stroke-miterlimit:10;} .st27{fill:#231F20;} </style> <g class="st0"> <path class="st1" d="M1243.8,737c0,0-1,113.9,128.7,114.9s245.8-49,328.2-36.8s293.8,57.2,361.2,11.2s57.2-97.1,57.2-97.1 L1243.8,737z"></path> <g class="st2"> <rect x="1793.3" y="442.6" transform="matrix(1 -2.926908e-03 2.926908e-03 1 -1.3108 5.3131)" class="st3" width="42.6" height="15.8"></rect> <polygon class="st4" points="1574.6,635.2 1549.3,654.5 1542,660.2 1606.1,660 1592.9,623.7 "></polygon> <rect x="1534.8" y="635.4" transform="matrix(0.8427 -0.5384 0.5384 0.8427 -97.74 944.2712)" class="st5" width="64.5" height="7.9"></rect> <rect x="1555.9" y="656.8" transform="matrix(1 -2.926908e-03 2.926908e-03 1 -2.0277 4.5646)" class="st6" width="5.2" height="76.5"></rect> <polygon class="st6" points="1945.4,729.1 1589,734.1 1588.9,731.8 1588.7,660 1588.7,630.4 1588.6,627.8 1588.6,626.3 1588.6,621 1588.6,615 1588.6,614.1 1588.6,600.4 1680.8,512.6 1681.4,512 1686.5,507.1 1800.7,506.8 1800.7,506.8 1829.5,506.7 1880.2,506.5 1888.1,517.5 1890.4,520.7 1945.1,596.5 1945.1,624.9 1945.2,634.1 1945.2,635.1 "></polygon> <polygon class="st5" points="1991.4,622.7 1983.1,634 1800.6,634.5 1687.8,519.7 1687.2,520.3 1588.6,614.1 1560.5,616.9 1559.1,614.7 1554.9,608.5 1681.8,493.3 1892.8,495.3 "></polygon> <rect x="1655.6" y="656.1" class="st7" width="42.6" height="76.3"></rect> <line class="st8" x1="1791.2" y1="644.8" x2="1791.4" y2="729.4"></line> <rect x="1725.5" y="630.7" transform="matrix(1 -2.926908e-03 2.926908e-03 1 -1.8917 5.1063)" class="st8" width="36.3" height="36.3"></rect> <rect x="1605" y="631.1" transform="matrix(1 -2.926908e-03 2.926908e-03 1 -1.8934 4.7536)" class="st8" width="36.3" height="36.3"></rect> <rect x="1657.6" y="656.4" transform="matrix(1 -2.926908e-03 2.926908e-03 1 -2.0251 4.9148)" class="st8" width="41.1" height="75.9"></rect> <rect x="1810.2" y="658.7" transform="matrix(1 -2.926908e-03 2.926908e-03 1 -1.9652 5.3662)" class="st8" width="44.4" height="30.8"></rect> <rect x="1881.4" y="658.5" transform="matrix(1 -2.926908e-03 2.926908e-03 1 -1.9643 5.5746)" class="st8" width="44.4" height="30.8"></rect> <rect x="1800.6" y="459" transform="matrix(1 -2.926908e-03 2.926908e-03 1 -1.4055 5.3152)" class="st6" width="29.3" height="47.7"></rect> <rect x="1793.3" y="442.6" transform="matrix(1 -2.926908e-03 2.926908e-03 1 -1.3117 5.3146)" class="st9" width="43.6" height="16.4"></rect> <polyline class="st9" points="2067.6,728.6 1959.6,728.9 1945.4,729.1 1589,734.1 1383.4,737 "></polyline> <line class="st9" x1="1760.2" y1="534.2" x2="1788" y2="534.1"></line> <line class="st9" x1="1838" y1="548.1" x2="1856.1" y2="548.1"></line> <line class="st9" x1="1839.3" y1="556.9" x2="1851.8" y2="556.8"></line> <line class="st9" x1="1803.9" y1="581" x2="1825.4" y2="580.9"></line> <line class="st9" x1="1909.8" y1="587.5" x2="1925.6" y2="587.4"></line> <line class="st9" x1="1875.4" y1="517.5" x2="1896.1" y2="517.5"></line> <line class="st9" x1="1884.3" y1="520.7" x2="1897.8" y2="520.7"></line> <path class="st9" d="M1801.4,632.8c0-0.3,3.8-7.5,3.8-7.5"></path> <line class="st9" x1="1945.2" y1="634.1" x2="1945.4" y2="725.4"></line> <line class="st9" x1="1800.5" y1="459" x2="1800.7" y2="505.6"></line> <polyline class="st9" points="1801.6,507.1 1829.9,506.7 1829.9,505.4 1829.8,460.2 "></polyline> <line class="st9" x1="1588.6" y1="627.9" x2="1589" y2="731.8"></line> <polyline class="st9" points="1587.8,660 1561.7,660.1 1561.9,732.7 "></polyline> <line class="st9" x1="1555" y1="656.1" x2="1555.3" y2="732.7"></line> <g> <path class="st10" d="M1645.9,294.2l0.6,195.9l-111,0.3c-11,4.7-43.2,18.6-44,18.6c0-0.5,20.7-20.3,29.4-28.5l-0.5-186 L1645.9,294.2z"></path> <line class="st9" x1="1552.2" y1="325.3" x2="1618.5" y2="325.3"></line> <path d="M1465,558.6h-11.8c-1.3,0-2.2-1.3-1.7-2.5l9.3-23.4c0.3-0.7,0.9-1.2,1.7-1.2h11.8c1.3,0,2.2,1.3,1.7,2.5l-9.3,23.4 C1466.4,558.1,1465.7,558.6,1465,558.6z"></path> <polygon class="st10" points="1411.8,784.2 1380.9,784.3 1380.9,774.1 1381,758.8 1394.4,758.8 1395,772.7 1396.9,774 "></polygon> <polygon class="st10" points="1447.3,784.1 1416.5,784.2 1416.5,774 1416.5,758.7 1429.9,758.7 1430.5,772.6 1432.4,773.9 "></polygon> <path class="st11" d="M1373.9,604.4c0,0,4.9,158.9,5.1,159.6s18.8-0.1,18.8-0.1l0.2-121.1l3.6-0.2L1408,763l27.1-0.1l-9.2-158.7 L1373.9,604.4z"></path> <line class="st9" x1="1587.7" y1="439.3" x2="1618.7" y2="439.2"></line> <line class="st9" x1="1589.1" y1="447.3" x2="1613.5" y2="447.2"></line> <path class="st12" d="M1367.2,547.3c0,0-6.7,46.6,9.5,49.8c16.1,3.2,44.7-27,44.7-27l-6-3.9c0,0-23.2,14.6-24.9,13.3 c-1.7-1.3-4.4-30.7-4.4-30.7L1367.2,547.3z"></path> <path class="st9" d="M1364.9,558.9"></path> <path class="st7" d="M1425.9,482.9l-6.9,3.5c-2.4,5.9-7.2,9.1-13.7,9.9l-0.6,12h-13.6l0.9-15.6c-4.2-3.2-6.9-8.3-6.9-14.1 c0-9.9,8-18,17.9-18s18,8,18,17.9c0,0.9-0.1,1.8-0.2,2.7L1425.9,482.9z"></path> <path d="M1392,484.8c0,0-5.4,5.1-10.6-1c-5.2-6-2.6-27.9,5-29.9c7.6-2.1,3.7,3.6,7.7,2.4c4-1.1,9-9.9,14.6-7.1 c5.5,2.8,1.5,7.8,2.7,8.1s9.7-3.1,11.9-0.7c2.3,2.4-3.4,5.7-2.1,7.3c1.4,1.5,4.8,0.9,5.1,3.6c0.3,2.7-8.3,7.4-20.1,2.2l-7.3,10.8 c0,0-3.3-8.4-7.2-6.5S1392,484.8,1392,484.8z"></path> <ellipse transform="matrix(0.2164 -0.9763 0.9763 0.2164 638.1096 1752.4469)" cx="1410.8" cy="478.7" rx="2.5" ry="1"></ellipse> <path class="st7" d="M1430.6,551.8l22-12l11.1,3.1l0,0c-0.8,2.1-2.9,3.3-5.1,3l-4.9-0.7c0,0-2,5.4-3.6,7.3 c-1.5,1.9-17.3,8.7-17.3,8.7L1430.6,551.8z"></path> <path class="st13" d="M1411.4,504.8c0,0-38-2.9-39.7,9.8c-1.8,12.7,0.3,94.4,0.3,94.4l57.2-0.2 C1429.1,608.9,1423.9,508.2,1411.4,504.8z"></path> <path class="st13" d="M1374.1,568.4l-13.1-3.5c0,0,7.4-52.5,12-53.3C1377.5,510.7,1374.1,568.4,1374.1,568.4z"></path> <path class="st7" d="M1475.4,550.7c-1.2,4.6-8.2,15.1-8.2,15.1h-0.1c-5.1,7.4-23.7,32.6-38.6,29.3c-17.4-3.9-17.4-59.5-17.4-59.5 l18.3,1.4c0,0,3.6,42.2,5.6,40.9c23.6-16.1,27.7-24.5,27.7-24.5s-2.1-2.9-2.1-3.8c0-1,1.2-1.5,1.2-1.5c11.6,5.7,8.8-5.6,10.5-6.9 C1474.1,539.9,1476.7,546.1,1475.4,550.7z"></path> <path class="st13" d="M1408.1,574.2l28.4-4.6c0,0-5-48-7.7-55s-17.4-9.8-17.4-9.8l-8.2,19.4L1408.1,574.2z"></path> <polyline class="st14" points="1373.9,609.1 1379,764 1397.8,764 1398,642.9 1401.6,642.8 1408,763.1 1435.1,763 1426.2,608.9 "></polyline> <path class="st9" d="M1421.8,508.3"></path> <line class="st14" x1="1373.6" y1="530.9" x2="1371" y2="567.5"></line> <path class="st14" d="M1408,532.1l3.1,39.4l25.4-1.8c0,0-5.1-48.8-8.3-56.2s-18.4-8.7-30.2-8.5c-11.8,0.1-19.9,3.1-24.9,6.6 c-5,3.5-12.5,52.8-12.5,52.8l10.5,3.3l0.9,41.5l57.9,0.7"></path> <path class="st14" d="M1433.8,570.5c0,0,1.3,5.1,2.3,4.7c1.1-0.5,18.8-9,27.1-23.1"></path> <path class="st14" d="M1474,538.9c0,0,6.6,7.8,0.1,18.2c-16.3,26.3-35.6,39.6-45.1,38.2s-14.1-23.1-14.1-23.1"></path> <path class="st14" d="M1434.8,549.1c0,0,16.5-9.5,17.8-9.2s10.6,2.3,10.6,2.3"></path> <g> <path d="M1435.3,558.6c1.4-0.5,2.8-1,4.2-1.5c1.4-0.6,2.8-1.2,4.1-1.8c1.3-0.7,2.7-1.3,3.9-2.1c1.2-0.8,2.4-1.7,3-2.7l1.6,0.7 c-0.4,0.9-1,1.6-1.5,2.2c-0.6,0.6-1.2,1.1-1.9,1.6c-1.3,0.9-2.6,1.8-4,2.5c-1.4,0.8-2.8,1.5-4.2,2.1c-1.4,0.7-2.8,1.3-4.3,1.9 L1435.3,558.6z"></path> </g> <path class="st15" d="M1443.8,548.7c0,0,8.7-3.3,9.2-3s0.8,1.4,0.8,1.4l-2.8,4.1"></path> <polygon points="1396.9,774 1411.8,784.2 1380.9,784.3 1380.9,774.1 "></polygon> <polygon points="1447.3,784.1 1416.5,784.2 1416.5,774 1432.4,773.9 "></polygon> </g> <path class="st9" d="M1588.7,630.4"></path> <line class="st9" x1="1552" y1="652" x2="1588.7" y2="630.4"></line> <line class="st16" x1="1595.4" y1="614.5" x2="1560.5" y2="616.9"></line> <polygon class="st4" points="1687.2,520.3 1588.6,614.1 1560.5,616.9 1559.1,614.7 1679.6,509.5 "></polygon> <polyline class="st9" points="1700.6,521 1805.2,625.3 1983.9,624.8 "></polyline> <path class="st9" d="M1592.5,610.4c0.9-0.9,95.4-90.7,95.4-90.7l112.8,114.8l182.5-0.5l8.4-12.7l-98.6-126l-62,0.2"></path> <path class="st9" d="M1679.6,509.5c-22.7,20.1-114.2,101-114.8,101"></path> <polyline class="st9" points="1555.1,660.1 1542,660.2 1537.7,653.5 1588.6,621 1588.6,614.6 1560.5,616.9 1554.9,608.5 1681.8,493.3 1800.6,495.5 "></polyline> <path class="st9" d="M1687.2,520.3"></path> <line class="st9" x1="1679.1" y1="510.9" x2="1687.8" y2="519.7"></line> <line class="st9" x1="1691" y1="687.8" x2="1691" y2="698.9"></line> <line class="st9" x1="1469.5" y1="758.8" x2="1503.2" y2="758.8"></line> <line class="st9" x1="1600.2" y1="779" x2="1623.1" y2="779"></line> <line class="st9" x1="1698.3" y1="752.9" x2="1723.3" y2="752.9"></line> <line class="st9" x1="1925.6" y1="746.3" x2="1945.4" y2="746.3"></line> <line class="st9" x1="1974" y1="796.8" x2="1991.4" y2="796.8"></line> <line class="st9" x1="1333.2" y1="800.9" x2="1378.4" y2="800.9"></line> </g> <line class="st17" x1="1810.2" y1="671.7" x2="1853.5" y2="671.7"></line> <line class="st17" x1="1882.3" y1="671.7" x2="1925.6" y2="671.7"></line> </g> <g> <defs> <rect id="SVGID_1_" x="12.7" y="10.9" width="913" height="876.3"></rect> </defs> <clipPath id="SVGID_2_"> <use xlink:href="#SVGID_1_" style="overflow:visible;"></use> </clipPath> <circle class="st18" cx="381.4" cy="516.4" r="272.6"></circle> <ellipse class="st18" cx="299.8" cy="1496.2" rx="315" ry="54.2"></ellipse> <ellipse class="st18" cx="613.3" cy="1430.9" rx="61.3" ry="10.5"></ellipse> <g class="st19"> <path class="st20" d="M211.1,526.5c0,0-43.6-19.7-58.6-65.7c-1.6-4.8-8-25.8-2.6-56.1c9-50.3,38.5-58.8,61.8-104.5 c34.5-67.7-3.4-102,33.5-146.5c22.2-26.8,62.5-46.5,98.3-37.1c35.2,9.3,53,43.4,59.1,54.9c40.5,77.2-25.4,118.8,6.9,212.9 c6.7,19.4,12.9,62.7,35.8,120.3C486.4,608.3,245.7,552.5,211.1,526.5z"></path> <path d="M377.8,569.9c-64.3,0-148.9-24.2-169.4-38.9c-5.3-2.5-46.1-23.1-60.9-68.5c-2.6-7.9-8-29.4-2.7-58.6 c5.6-31.4,19.2-47.6,33.6-64.7c9.7-11.5,19.6-23.4,28.7-41.2c16.4-32.2,15.8-56.9,15.3-78.6c-0.6-23.1-1.1-44.8,18.8-68.9 c21.6-26.1,63.3-49.4,103.6-38.8c37.4,9.9,56.2,45.7,62.4,57.5c21.5,41,14.2,72.4,6.5,105.5c-7.2,31.1-14.7,63.3,0.6,108.1 c2.2,6.4,4.3,15.1,6.9,26c5.6,23.3,13.3,55.2,28.8,94.1c11.5,28.8,1.3,44.5-9.3,52.5C427.1,565.8,404.1,569.9,377.8,569.9z M324.6,119.4c-29.2,0-58.6,17.3-75.4,37.6c-17.4,21-17,39.1-16.4,62c0.6,23,1.2,49-16.4,83.6c-9.6,18.9-20.5,31.8-30,43.2 c-14,16.7-26.2,31.1-31.3,59.9c-4.8,27,0.1,46.5,2.4,53.6c14.1,43.1,55.4,62.4,55.8,62.5l1,0.6c25.6,19.1,177.1,57.8,220.3,24.8 c11.4-8.7,13.3-21.9,5.9-40.5c-15.7-39.6-23.5-71.9-29.2-95.5c-2.6-10.7-4.6-19.1-6.7-25.1c-16.3-47.6-8.1-82.7-0.9-113.8 c7.6-32.6,14.1-60.7-5.6-98.3c-5.7-10.8-22.9-43.6-55.8-52.3C336.4,120.1,330.5,119.4,324.6,119.4z"></path> </g> <g class="st19"> <path class="st7" d="M423.3,488.6c0,0,36,84.5,91.4,98.7c56.8,14.6,108.8-22.2,108.8-22.2l30,52.5 c-80.1,35.6-137.2,43.7-168.3,28.7c-59.5-28.7-117.3-102.6-116-100.7L423.3,488.6z"></path> <path d="M522.5,658.7c-15.5,0-28.7-2.6-39.4-7.7c-49-23.6-96.3-76.5-114-97.6l-0.3,0.3l-6.6-9.2l3.9-3l58.9-62.3l3.1,7.3 c0.4,0.8,35.6,82.3,88,95.7c53.7,13.8,104-21,104.5-21.4l4.7-3.3l35.7,62.4l-5.2,2.3C601.5,646.5,556.4,658.7,522.5,658.7z M376.3,545.9c16.5,19.9,63.4,72.7,111.3,95.8c30,14.5,86.2,5.1,158.7-26.4l-24.4-42.7c-14.4,8.8-59.2,32.5-108.3,19.9 c-48.2-12.4-81.4-73.5-91.7-94.6L376.3,545.9z"></path> </g> <g class="st19"> <path class="st21" d="M400.3,588.2l54.5-65.9c0,0-38.4-78-97.8-179.7l-58.2,125.9L400.3,588.2z"></path> <path d="M400.4,596.3l-107.6-127l63.8-137.9l5,8.6c58.9,100.7,97.6,179.3,98,180.1l1.5,3L400.4,596.3z M304.9,467.6l95.3,112.5 l48.4-58.5c-7.4-14.8-41.6-82.5-91.2-167.8L304.9,467.6z"></path> </g> <g class="st19"> <g> <g> <polygon class="st7" points="341.5,1486.9 205,1487.3 205,1442 205,1374.7 264.4,1374.5 267.1,1436 275.6,1441.8 "></polygon> <path d="M198.2,1494.1l0-52.1l0.1-74.2l72.7-0.2l2.8,64.7l5.7,3.9l83.9,57.4L198.2,1494.1z M211.8,1381.4l0,60.6l0,38.4 l107.8-0.3l-59.1-40.5l-2.5-58.4L211.8,1381.4z"></path> </g> </g> <g> <polygon points="341.5,1486.9 205,1487.3 205,1442 275.6,1441.8 "></polygon> <path d="M198.2,1494.1l0-58.8l79.5-0.2l85.7,58.6L198.2,1494.1z M211.8,1448.8l0,31.7l107.8-0.3l-46.1-31.5L211.8,1448.8z"></path> </g> </g> <g class="st19"> <g> <g> <polygon class="st7" points="461.9,1486.9 325.4,1487.3 325.4,1442 325.4,1374.7 384.9,1374.5 387.5,1436 396,1441.8 "></polygon> <path d="M318.6,1494.1l0-52.1l0.1-74.2l72.7-0.2l2.8,64.7l5.7,3.9l83.9,57.4L318.6,1494.1z M332.2,1381.4l0,60.6l0,38.4 l107.8-0.3l-59.1-40.5l-2.5-58.4L332.2,1381.4z"></path> </g> </g> <g> <polygon points="461.9,1486.9 325.4,1487.3 325.4,1442 396,1441.8 "></polygon> <path d="M318.6,1494.1l0-58.8l79.5-0.2l85.7,58.6L318.6,1494.1z M332.2,1448.8l0,31.7l107.8-0.3l-46.1-31.5L332.2,1448.8z"></path> </g> </g> <g class="st19"> <polygon class="st22" points="403.5,783.2 403.5,847.4 403.5,873.6 403.5,1406.9 309.2,1406.9 309.2,873.6 293.7,873.6 293.7,1406.9 187.3,1406.9 187.3,873.6 187.3,847.4 187.3,783.2 "></polygon> <path d="M408.7,1412.1H304V878.8h-5.1v533.3H182.1V778h226.6V1412.1z M314.4,1401.7h83.9V788.4H192.4v613.3h96.1V868.4h25.8 V1401.7z"></path> </g> <g class="st19"> <path class="st21" d="M409.3,788.3c0-6.6-27.4-412.6-46.3-448.4c-19-35.8-107.1-37.1-128.3,0.4c-69.4,123-57.8,447.7-54.3,448 C180.5,788.3,409.3,788.3,409.3,788.3z"></path> <path d="M241,793.5c-60.8,0-60.8,0-61.1,0l-2.8-0.3l-1.4-2.6c-3.2-6-5.4-96.7-0.5-183.5c5-87.2,18.5-204.7,55-269.3 c12.9-22.9,45-30.7,70.7-30.4c24.7,0.3,55.2,8.4,66.7,30.1c19.7,37.3,46.9,447.2,46.9,450.8v5.2h-5.2 C327.4,793.5,274.8,793.5,241,793.5z M184.7,783.1c28.4,0,187.7,0,219.2,0c-2.7-50.5-28.5-408.7-45.5-440.8 c-7.7-14.5-30.3-24.2-57.7-24.6c-28.6-0.4-52.7,9.5-61.6,25.1C174.5,457.4,181.6,747.2,184.7,783.1z"></path> </g> <g class="st19"> <path class="st21" d="M314.5,435.9L284,591.7l-103.1-29c0,0,11.5-94.7,28.3-155.1"></path> <path d="M288,598.2l-112.8-31.8l0.5-4.4c0.1-1,11.7-95.8,28.4-155.8l10,2.8c-14.5,51.9-25.1,130.5-27.6,149.9l93.4,26.3 l29.5-150.3l10.2,2L288,598.2z"></path> </g> <g class="st19"> <path class="st7" d="M430.2,214.1L399.6,229c-10.5,24.8-32,38.2-60.7,41.9l-2.8,50.6l-60.3,0.2l3.8-66 c-18.7-13.7-30.7-35.2-30.8-59.5c-0.1-41.8,35.3-75.9,79.2-76c43.9-0.1,79.5,33.8,79.7,75.6c0,3.9-0.4,7.7-1,11.5L430.2,214.1z"></path> <path d="M270.3,326.8l3.9-68.7c-19.4-15.2-30.5-37.7-30.6-61.9c-0.1-44.7,37.7-81.1,84.4-81.2c0.1,0,0.2,0,0.3,0 c46.5,0,84.5,36.2,84.6,80.7c0,2.5-0.1,5.1-0.4,7.8l32.1,9.4l-40.9,19.9c-10.5,23.2-31.1,37.9-59.8,42.6l-2.9,51.2L270.3,326.8z M328.2,125.3c-0.1,0-0.2,0-0.2,0c-40.9,0.1-74.2,31.9-74,70.8c0.1,21.9,10.5,42,28.6,55.3l2.3,1.7l-3.6,63.3l49.9-0.1l2.8-50 l4.3-0.5c28.2-3.6,47.2-16.6,56.6-38.8l0.8-1.8l20.3-9.9l-15.1-4.4l0.7-4.5c0.6-3.8,0.9-7.3,0.9-10.6 C402.3,156.8,369.1,125.3,328.2,125.3z"></path> </g> <ellipse transform="matrix(0.2179 -0.976 0.976 0.2179 94.1849 517.4414)" class="st19" cx="370" cy="200" rx="11" ry="4.6"></ellipse> <path class="st23" d="M280.9,279.9l8.9-49c0,0-21.9-11.7-7.5-35.3c0,0,16.8-16.9,26.1,10.5l9.7-21.7c0,0,48.5-6.2,65.5-39 c0,0-24.5-37.4-80.5-21.3s-61.8,45-60,93.1S280.9,279.9,280.9,279.9z"></path> <path class="st19" d="M283.7,280.8l-10.2-1.8l8.4-47.6c-4.3-2.6-11.1-8-13.4-16.2c-2-7.2-0.1-14.8,5.5-22.5 c5.4-7.5,11.4-10.9,17.8-10c6,0.8,10.6,5.2,13.9,9.7l6.7-14.9l2.9-0.4c0.5-0.1,49.6-6.4,62.4-38.2l9.6,3.9 c-13.3,33-56,42.3-67.8,44.2l-13.6,30.3l-4.5-11.4c-2-4.9-6.8-12.4-10.9-12.9c-3.1-0.4-6.4,3.5-8.1,5.9c-3.7,5.1-5,9.7-3.9,13.7 c2,7.3,11.1,11.4,11.2,11.5l3.7,1.6l-0.7,4L283.7,280.8z"></path> <g class="st19"> <g> <path class="st7" d="M601.5,620.4l186.2,22.3l109.4-266.3l-193.8,8.5L601.5,620.4z"></path> <path d="M790.4,647.3l-195.1-23.4l105.2-243.1l2.7-0.1l200.4-8.8L790.4,647.3z M607.7,616.9L785,638.1L890.6,381L706.2,389 L607.7,616.9z"></path> <path class="st24" d="M798.8,651.7l-15.2-1.8l-193.1-22.3l109.4-250.9l5.8-0.1l206.6-8.8l7.5-0.3L798.8,651.7z"></path> <path class="st25" d="M784.8,633L610,612l94.2-217.8l2.4-0.1l179.5-7.9L784.8,633z"></path> <polygon class="st26" points="756.8,363.3 740.2,400.7 813.1,399 830.4,360.9 "></polygon> </g> </g> <g class="st19"> <path class="st7" d="M579.2,590.5c0,0,14.6-37.2,29.5-44c19-8.6,26.5,6.2,26,10.5s-14.2,18.4-19.8,27.8"></path> <path d="M584,592.4l-9.7-3.8c1.6-4,15.8-39.4,32.2-46.8c12.3-5.6,20.5-2.7,25.2,0.7c5.9,4.2,8.6,10.9,8.1,15 c-0.4,3.7-3.7,8-10.5,16.5c-3.8,4.7-7.7,9.6-10,13.4l-10.5-1.6c2.9-7,7.2-13.3,12.4-18.3c3.5-3.3,7.4-9.2,8.3-11.2 c-0.2-0.9-1.4-3.9-4.5-5.8c-4.5-2.7-10.2-1.1-14.3,0.7C601.3,555.5,589.3,578.7,584,592.4z M629.7,556L629.7,556L629.7,556 L629.7,556z"></path> </g> <polygon class="st19" points="497.6,719.8 500.9,747.5 475.9,735 398.4,624.6 420.1,609.4 "></polygon> <g class="st19"> <path class="st7" d="M473.5,679.9c0,0-7.4-7.3-49.2-13.7c-41.8-6.5-65.8-7.1-65.8-7.1l-79.7-11c-10.1-1.4-17.1-10.7-15.6-20.8 l5.7-39.8c-26.7-7.5-53.3-15-80-22.5c-4.8,19.2-9.3,43.9-10.1,72.9c-0.5,16.7,0.4,32,1.8,45.7c1.7,15.4,14.1,27.4,29.5,28.9 L397,729.8c16,3.2,33.9,5.8,42.9,5.1c16.4-1.2,16.9-18.6,16.9-18.6l17.7-5L473.5,679.9z"></path> <path d="M436.9,740.2c-12.9,0-33.7-3.9-40.6-5.3l-186.5-17.3c-17.9-1.7-32.3-15.7-34.2-33.5c-1.7-15.3-2.3-30.9-1.9-46.4 c0.7-24.9,4.1-49.9,10.2-74.1l1.3-5.2l89.5,25.2l-6.4,44.3c-0.5,3.5,0.4,7,2.5,9.8c2.1,2.8,5.2,4.6,8.7,5.1l79.4,10.9 c3.5,0.1,27.1,1.1,66.1,7.2c41.3,6.4,50.6,13.8,52,15.2l1.5,1.5l1.3,37.6l-18.3,5.2c-1.5,7.9-7.1,18.7-21.3,19.7 C439.3,740.2,438.1,740.2,436.9,740.2z M192.7,571.4c-5.1,21.8-8,44.2-8.7,66.6c-0.4,15,0.2,30.1,1.8,45 c1.4,12.8,11.8,23,24.9,24.3L398,724.7c18.3,3.6,34.2,5.6,41.6,5c11.2-0.8,12-12.3,12.1-13.6l0.2-3.8l17.4-5l-0.9-24.7 c-3.9-2.1-15.6-7-44.9-11.5c-41-6.3-64.9-7.1-65.1-7.1l-0.6,0l-79.7-11c-6.3-0.9-11.8-4.1-15.6-9.2c-3.8-5-5.4-11.3-4.5-17.5 l5.1-35.3L192.7,571.4z"></path> </g> <g class="st19"> <path class="st7" d="M425.3,689.7c0,0,33.5,2.6,48.7,3.8"></path> <rect x="446.2" y="667.2" transform="matrix(7.796764e-02 -0.997 0.997 7.796764e-02 -274.9547 1086.0077)" width="6.9" height="48.8"></rect> </g> <g class="st19"> <line class="st7" x1="426.3" y1="713.9" x2="456.9" y2="716.3"></line> <rect x="438.1" y="699.8" transform="matrix(8.044158e-02 -0.9968 0.9968 8.044158e-02 -306.7067 1097.7489)" width="6.9" height="30.6"></rect> </g> <g class="st19"> <polygon points="828.4,452.7 822.2,441.2 830.8,434.1 833.7,439.4 856.7,422 860,429.1 "></polygon> <polygon points="809.1,510.5 805.3,503.1 810.6,498.8 812.4,502.2 826.7,491.8 828.7,496.4 "></polygon> <polygon points="776.5,573.9 770.8,561.8 779,555.4 781.6,561 803.6,545.5 806.7,552.9 "></polygon> <g> <path class="st27" d="M694,443.1l7.9-17.6l3.3,0l-1.2,9.3c0.2-0.4,0.3-0.9,0.5-1.4c0.3-0.7,0.6-1.3,0.9-2l2.7-6l3.3,0l-8,17.7 l-3.4,0l1.2-9.1c-0.1,0.4-0.3,0.8-0.5,1.3c-0.3,0.6-0.5,1.1-0.7,1.5l-2.9,6.3L694,443.1z"></path> <path class="st27" d="M719.1,434.4c-0.6,1.3-1.3,2.5-2.1,3.7c-0.8,1.2-1.6,2.2-2.5,3c-0.9,0.8-1.7,1.5-2.6,2 c-0.8,0.5-1.6,0.7-2.3,0.7c-0.7,0-1.3-0.2-1.7-0.7c-0.4-0.5-0.6-1.1-0.7-2c-0.1-0.9,0-1.9,0.3-3c0.3-1.1,0.7-2.3,1.3-3.6 c0.6-1.3,1.3-2.5,2-3.7c0.8-1.1,1.6-2.1,2.4-3c0.9-0.9,1.7-1.6,2.6-2c0.8-0.5,1.6-0.7,2.3-0.7c0.7,0,1.3,0.2,1.7,0.7 c0.4,0.5,0.7,1.1,0.8,2c0.1,0.9,0,1.9-0.3,3C720.1,431.9,719.7,433.1,719.1,434.4z M712.4,437.8c0.5,0,1-0.3,1.6-0.9 c0.6-0.6,1.1-1.4,1.6-2.4c0.5-1,0.7-1.9,0.7-2.5c0-0.6-0.3-0.9-0.8-0.9c-0.5,0-1,0.3-1.6,0.9c-0.6,0.6-1.1,1.4-1.6,2.5 c-0.5,1-0.7,1.8-0.7,2.4C711.6,437.5,711.9,437.8,712.4,437.8z"></path> <path class="st27" d="M721.1,443.4l8.3-18l6.6,0l-2.3,4.9l-3.1,0l-1,2.1l2.8,0l-2.1,4.6l-2.8,0l-3,6.4L721.1,443.4z"></path> <path class="st27" d="M728.9,443.4l8.4-18.1l6.7,0l-2.3,5l-3.2,0l-0.8,1.8l2.9,0l-2.2,4.7l-2.9,0l-0.9,1.9l3.2,0l-2.3,4.9 L728.9,443.4z"></path> <path class="st27" d="M737.1,443.5l8.5-18.2l6.8,0l-2.3,5l-3.2,0L746,432l2.9,0l-2.2,4.7l-2.9,0l-0.9,1.9l3.3,0l-2.3,5 L737.1,443.5z"></path> <path class="st27" d="M745.2,442l3.6-5.1c0.2,0.7,0.5,1.2,0.7,1.4c0.3,0.3,0.6,0.5,0.9,0.5c0.3,0,0.5-0.1,0.7-0.2 c0.2-0.2,0.4-0.4,0.5-0.7c0.2-0.5,0.1-0.9-0.5-1.2c-0.1-0.1-0.3-0.1-0.5-0.2c-0.6-0.3-0.9-0.9-0.9-1.8c0-0.8,0.3-1.9,0.9-3.2 c0.9-2,2.1-3.6,3.5-4.9c1.4-1.2,2.7-1.9,4-1.9c0.6,0,1.1,0.1,1.6,0.4c0.5,0.3,0.8,0.7,1.2,1.3l-3.4,4.9c-0.1-0.5-0.3-0.8-0.6-1.1 c-0.3-0.2-0.6-0.4-0.9-0.4c-0.3,0-0.5,0.1-0.7,0.2c-0.2,0.2-0.4,0.4-0.5,0.6c-0.2,0.5,0.1,1,0.9,1.4c0.1,0.1,0.2,0.1,0.3,0.2 c0.6,0.3,0.9,0.9,0.8,1.8c0,0.9-0.3,1.9-0.9,3.2c-1,2-2.2,3.7-3.6,5c-0.7,0.6-1.4,1.1-2.1,1.4c-0.7,0.3-1.3,0.5-2,0.5 c-0.7,0-1.2-0.2-1.8-0.5C745.9,443.2,745.5,442.7,745.2,442z"></path> <path class="st27" d="M668.1,500.6l7.6-16.9l3.2,0.1l-1.2,9c0.1-0.4,0.3-0.8,0.5-1.3c0.3-0.6,0.5-1.3,0.8-1.9l2.6-5.7l3.2,0.1 l-7.7,17l-3.2-0.2l1.2-8.9c-0.1,0.4-0.3,0.8-0.5,1.2c-0.3,0.6-0.5,1.1-0.6,1.5l-2.7,6.1L668.1,500.6z"></path> <path class="st27" d="M692.1,493.3c-0.6,1.3-1.2,2.4-2,3.5c-0.8,1.1-1.5,2-2.4,2.8c-0.8,0.8-1.6,1.4-2.5,1.8 c-0.8,0.4-1.5,0.6-2.2,0.5c-0.7,0-1.2-0.3-1.6-0.8c-0.4-0.5-0.6-1.1-0.7-2c-0.1-0.9,0-1.8,0.3-2.9c0.3-1.1,0.7-2.2,1.2-3.5 c0.6-1.3,1.2-2.4,1.9-3.5c0.7-1,1.5-2,2.3-2.8c0.8-0.8,1.7-1.4,2.5-1.9c0.8-0.4,1.5-0.6,2.2-0.6c0.7,0,1.2,0.3,1.7,0.7 c0.4,0.5,0.6,1.2,0.7,2c0.1,0.9,0,1.9-0.3,2.9C693.1,490.9,692.7,492,692.1,493.3z M685.7,496.3c0.5,0,1-0.2,1.5-0.8 c0.6-0.6,1.1-1.4,1.5-2.3c0.5-1,0.7-1.8,0.7-2.4c0-0.6-0.3-0.9-0.7-0.9c-0.5,0-1,0.3-1.5,0.8c-0.6,0.6-1,1.4-1.5,2.3 c-0.4,1-0.7,1.8-0.6,2.4C685,495.9,685.3,496.2,685.7,496.3z"></path> <path class="st27" d="M705.8,492.2c0-0.6-0.2-1-0.4-1.3c-0.2-0.3-0.5-0.4-0.8-0.5c-0.6,0-1.2,0.3-1.8,0.9 c-0.6,0.6-1.2,1.4-1.7,2.5c-0.5,1-0.7,1.9-0.6,2.5c0,0.6,0.3,0.9,0.9,1c0.3,0,0.7-0.1,1.2-0.3c0.5-0.3,1.1-0.7,1.7-1.2l-3.1,6.5 c-0.5,0.3-1,0.4-1.4,0.5c-0.4,0.1-0.8,0.2-1.2,0.2c-0.5,0-0.9-0.2-1.2-0.4c-0.3-0.2-0.6-0.5-0.8-0.9c-0.4-1-0.5-2.1-0.3-3.4 c0.2-1.4,0.7-2.9,1.5-4.7c0.6-1.3,1.3-2.5,2-3.6c0.7-1.1,1.5-2,2.4-2.9c0.9-0.8,1.7-1.5,2.5-1.9c0.8-0.4,1.6-0.6,2.3-0.6 c0.4,0,0.7,0.1,1.1,0.3c0.3,0.2,0.6,0.4,0.8,0.7L705.8,492.2z"></path> <path class="st27" d="M716.4,494.6c-0.6,1.3-1.3,2.5-2,3.6c-0.8,1.1-1.6,2.1-2.5,2.9c-0.9,0.8-1.7,1.4-2.6,1.9 c-0.8,0.4-1.6,0.6-2.3,0.6c-0.7,0-1.3-0.3-1.7-0.8c-0.4-0.5-0.6-1.2-0.7-2.1c-0.1-0.9,0-1.9,0.3-3c0.3-1.1,0.7-2.3,1.3-3.6 c0.6-1.3,1.3-2.5,2-3.6c0.8-1.1,1.6-2,2.4-2.9c0.9-0.8,1.7-1.5,2.6-1.9c0.8-0.4,1.6-0.6,2.3-0.6c0.7,0,1.3,0.3,1.7,0.8 c0.4,0.5,0.7,1.2,0.8,2.1c0.1,0.9,0,1.9-0.3,3C717.5,492.1,717,493.3,716.4,494.6z M709.7,497.6c0.5,0,1-0.2,1.6-0.8 c0.6-0.6,1.1-1.4,1.6-2.4c0.5-1,0.7-1.8,0.7-2.4c0-0.6-0.3-0.9-0.8-1c-0.5,0-1,0.3-1.6,0.8c-0.6,0.6-1.1,1.4-1.6,2.4 c-0.5,1-0.7,1.8-0.7,2.4C709,497.3,709.3,497.6,709.7,497.6z"></path> <path class="st27" d="M722.7,503.9l2.8-7c0.1-0.3,0.2-0.5,0.3-0.8c0.1-0.3,0.2-0.5,0.3-0.8c0.3-0.7,0.5-1.2,0.7-1.6 c-0.3,0.5-0.6,1.1-0.9,1.6c-0.3,0.4-0.6,1-1.1,1.8l-4.3,6.7l-2.1-0.1l2-6.8c0.2-0.6,0.4-1.3,0.6-1.8c0.2-0.7,0.4-1.2,0.6-1.6 c-0.4,0.8-0.7,1.3-0.8,1.6c-0.2,0.3-0.5,0.9-0.8,1.6l-3.7,6.9l-3.4-0.2l9.9-17.5l3.6,0.2l-1.4,4.4c0,0.1-0.1,0.3-0.2,0.6 c-0.6,1.9-1.1,3.5-1.6,4.6l0.1,0c0.4-0.8,0.9-1.5,1.4-2.4c0.4-0.7,1-1.7,1.8-2.8l2.8-4.3l3.7,0.2l-6.8,17.8L722.7,503.9z"></path> <path class="st27" d="M736.3,504.7l2.9-7.1c0.1-0.3,0.2-0.6,0.4-0.8c0.1-0.3,0.2-0.6,0.3-0.8c0.3-0.7,0.5-1.2,0.7-1.6 c-0.3,0.5-0.6,1.1-0.9,1.6c-0.3,0.4-0.7,1.1-1.2,1.8l-4.4,6.8l-2.1-0.1l2.1-6.9c0.2-0.7,0.4-1.3,0.6-1.9c0.3-0.7,0.4-1.3,0.6-1.6 c-0.4,0.8-0.7,1.3-0.8,1.6c-0.2,0.3-0.5,0.9-0.8,1.6l-3.8,7l-3.5-0.2l10.1-17.7l3.7,0.2l-1.4,4.5c0,0.1-0.1,0.3-0.2,0.6 c-0.6,2-1.2,3.5-1.6,4.6l0.1,0c0.4-0.8,0.9-1.6,1.4-2.4c0.4-0.7,1-1.7,1.8-2.9l2.8-4.3l3.8,0.2l-6.9,18L736.3,504.7z"></path> <path class="st27" d="M740.9,505l8.6-18l3.8,0.2l-8.6,18L740.9,505z"></path> <path class="st27" d="M746.4,503.8l3.6-5c0.2,0.7,0.5,1.2,0.7,1.5c0.3,0.3,0.6,0.5,0.9,0.5c0.3,0,0.5-0.1,0.7-0.2 c0.2-0.2,0.4-0.4,0.5-0.7c0.2-0.5,0.1-0.9-0.5-1.2c-0.1-0.1-0.3-0.1-0.5-0.2c-0.6-0.4-0.9-1-0.9-1.8c0-0.9,0.3-1.9,0.9-3.2 c0.9-1.9,2.1-3.5,3.5-4.7c1.4-1.2,2.7-1.7,4-1.7c0.6,0,1.1,0.2,1.6,0.5c0.5,0.3,0.8,0.7,1.2,1.3l-3.4,4.7 c-0.1-0.5-0.3-0.9-0.6-1.1c-0.3-0.3-0.6-0.4-0.9-0.4c-0.3,0-0.5,0.1-0.7,0.2c-0.2,0.2-0.4,0.4-0.5,0.6c-0.2,0.5,0.1,1,0.9,1.4 c0.1,0.1,0.2,0.1,0.3,0.2c0.6,0.3,0.9,0.9,0.9,1.8c0,0.9-0.3,1.9-0.9,3.2c-1,2-2.2,3.6-3.6,4.8c-0.7,0.6-1.4,1.1-2.1,1.3 c-0.7,0.3-1.4,0.4-2,0.4c-0.7,0-1.2-0.2-1.8-0.6C747.1,505,746.7,504.5,746.4,503.8z"></path> <path class="st27" d="M755.6,504.8l3.6-5c0.2,0.7,0.5,1.2,0.7,1.5c0.3,0.3,0.6,0.5,0.9,0.5c0.3,0,0.5-0.1,0.7-0.2 c0.2-0.2,0.4-0.4,0.5-0.7c0.2-0.5,0.1-0.9-0.5-1.2c-0.1-0.1-0.3-0.1-0.5-0.2c-0.6-0.4-0.9-1-0.9-1.8c0-0.9,0.3-1.9,0.9-3.2 c0.9-1.9,2.1-3.5,3.5-4.7c1.4-1.2,2.7-1.7,4-1.7c0.6,0,1.1,0.2,1.6,0.5c0.5,0.3,0.8,0.7,1.2,1.3l-3.4,4.7 c-0.1-0.5-0.3-0.9-0.6-1.1c-0.3-0.3-0.6-0.4-0.9-0.4c-0.3,0-0.5,0.1-0.7,0.2c-0.2,0.2-0.4,0.4-0.5,0.6c-0.2,0.5,0.1,1,0.9,1.4 c0.1,0.1,0.2,0.1,0.3,0.2c0.6,0.3,0.9,0.9,0.9,1.8c0,0.9-0.3,1.9-0.9,3.2c-1,2-2.2,3.6-3.6,4.8c-0.7,0.6-1.4,1.1-2.1,1.3 c-0.7,0.3-1.4,0.4-2,0.4c-0.7,0-1.2-0.2-1.8-0.6C756.4,506.1,755.9,505.5,755.6,504.8z"></path> <path class="st27" d="M765.8,506.6l8.8-18.2l3.9,0.2l-8.8,18.2L765.8,506.6z"></path> <path class="st27" d="M787,498.4c-0.7,1.4-1.4,2.6-2.3,3.7c-0.9,1.2-1.8,2.2-2.7,3c-0.9,0.8-1.9,1.5-2.8,1.9 c-0.9,0.4-1.8,0.6-2.6,0.6c-0.8,0-1.4-0.3-1.9-0.8c-0.4-0.5-0.7-1.2-0.8-2.2c-0.1-1,0-2,0.3-3.1c0.3-1.2,0.8-2.4,1.4-3.8 c0.7-1.4,1.4-2.6,2.2-3.7c0.8-1.1,1.7-2.1,2.7-3c1-0.9,1.9-1.5,2.8-2c0.9-0.4,1.8-0.6,2.6-0.6c0.8,0,1.4,0.3,1.9,0.8 c0.5,0.5,0.7,1.2,0.8,2.2c0.1,0.9,0,2-0.3,3.2C788.1,495.8,787.6,497.1,787,498.4z M779.6,501.6c0.5,0,1.1-0.3,1.8-0.9 c0.6-0.6,1.2-1.5,1.7-2.5c0.5-1.1,0.8-1.9,0.8-2.6c0-0.7-0.3-1-0.8-1c-0.5,0-1.1,0.3-1.8,0.9c-0.6,0.6-1.2,1.5-1.7,2.5 c-0.5,1-0.7,1.9-0.7,2.5C778.8,501.2,779,501.5,779.6,501.6z"></path> <path class="st27" d="M784.1,507.7l9-18.5l3.8,0.2l-1.4,9.9c0.2-0.5,0.4-0.9,0.6-1.4c0.3-0.7,0.6-1.4,1-2.1l3.1-6.3l3.8,0.2 l-9.2,18.6l-3.9-0.2l1.4-9.8c-0.2,0.4-0.3,0.9-0.6,1.3c-0.3,0.7-0.6,1.2-0.8,1.6l-3.3,6.6L784.1,507.7z"></path> <path class="st27" d="M643.3,555.8l7.3-16.2l3.1,0.3l-1.2,8.8c0.1-0.4,0.3-0.8,0.5-1.3c0.3-0.6,0.5-1.2,0.8-1.8l2.5-5.5l3,0.3 l-7.4,16.3l-3.1-0.3l1.2-8.7c-0.1,0.4-0.3,0.8-0.5,1.2c-0.2,0.6-0.4,1-0.6,1.4l-2.6,5.8L643.3,555.8z"></path> <path class="st27" d="M666.3,549.8c-0.6,1.2-1.2,2.3-1.9,3.3c-0.7,1-1.5,1.9-2.3,2.7c-0.8,0.7-1.6,1.3-2.4,1.7 c-0.8,0.4-1.5,0.5-2.1,0.4c-0.6-0.1-1.2-0.4-1.5-0.8c-0.4-0.5-0.6-1.2-0.7-2c-0.1-0.9,0-1.8,0.2-2.8c0.2-1,0.6-2.2,1.2-3.4 c0.6-1.2,1.2-2.3,1.9-3.3c0.7-1,1.4-1.9,2.2-2.7c0.8-0.8,1.6-1.3,2.4-1.7c0.8-0.4,1.5-0.5,2.2-0.4c0.7,0.1,1.2,0.3,1.6,0.8 c0.4,0.5,0.6,1.2,0.7,2c0.1,0.9,0,1.8-0.3,2.9C667.3,547.5,666.9,548.6,666.3,549.8z M660.2,552.4c0.4,0,0.9-0.2,1.5-0.7 c0.5-0.5,1-1.3,1.4-2.2c0.4-1,0.6-1.7,0.6-2.3c0-0.6-0.2-0.9-0.7-1c-0.4,0-0.9,0.2-1.5,0.7c-0.5,0.5-1,1.3-1.4,2.2 c-0.4,0.9-0.6,1.7-0.6,2.3C659.5,552.1,659.7,552.4,660.2,552.4z"></path> <path class="st27" d="M668.2,558.6l7.6-16.6l3.3,0.3l-5.2,11.2l3.2,0.3l-2.5,5.4L668.2,558.6z"></path> <path class="st27" d="M675.5,559.5l7.7-16.7l6.2,0.6l-2.1,4.6l-2.9-0.3l-0.7,1.6l2.6,0.3l-2,4.3l-2.6-0.3l-0.8,1.8l3,0.3 l-2.1,4.5L675.5,559.5z"></path> <path class="st27" d="M691.7,555l-1.5-0.2l1.8-4l5.2,0.5c-0.1,0.2-0.2,0.4-0.2,0.5c0,0.1-0.1,0.2-0.1,0.3l-0.2,0.5 c-0.5,1-0.9,1.9-1.4,2.6c-0.4,0.7-0.9,1.4-1.4,2.1c-1.2,1.4-2.3,2.4-3.4,3.1c-1.1,0.7-2.1,1-3.1,0.9c-0.7-0.1-1.2-0.4-1.7-0.8 c-0.4-0.5-0.6-1.2-0.7-2.1c-0.1-0.9,0-1.9,0.3-2.9c0.3-1.1,0.7-2.2,1.3-3.5c0.6-1.3,1.3-2.4,2-3.4c0.7-1,1.5-1.9,2.4-2.7 c0.8-0.8,1.6-1.3,2.5-1.7c0.8-0.4,1.6-0.5,2.3-0.4c1,0.1,1.6,0.6,2,1.4c0.4,0.9,0.5,2,0.3,3.5l-3.9,1.7c0.1-0.5,0-0.9-0.1-1.1 c-0.1-0.3-0.3-0.4-0.6-0.4c-0.5-0.1-1.1,0.2-1.7,0.9c-0.6,0.6-1.2,1.6-1.7,2.7c-0.6,1.2-0.8,2.1-0.8,2.8c0,0.7,0.3,1.1,0.8,1.1 c0.3,0,0.6-0.1,1-0.3C691.2,555.7,691.5,555.4,691.7,555z"></path> <path class="st27" d="M692.6,561.4l11.3-16.6l3.8,0.4l-4.7,17.4l-3.7-0.4l0.7-2.2l-2.6-0.3l-1.3,2.1L692.6,561.4z M700,555.7 l1.4,0.2l0.6-2c0.3-1,0.6-1.8,0.8-2.3c0.2-0.5,0.4-1,0.6-1.5l-0.1,0c-0.3,0.5-0.5,1-0.8,1.5c-0.4,0.6-0.8,1.4-1.4,2.2L700,555.7z "></path> <path class="st27" d="M703.5,562.6l8.1-17.1l3.5,0.3l-5.5,11.6l3.4,0.4l-2.6,5.5L703.5,562.6z"></path> <path class="st27" d="M716,564l8.2-17.3l6.6,0.6l-2.3,4.7l-3.1-0.3l-1,2l2.8,0.3l-2.1,4.4l-2.8-0.3l-2.9,6.1L716,564z"></path> <path class="st27" d="M723.8,564.9l8.3-17.4l6.7,0.7l-2.3,4.8l-3.2-0.3l-0.8,1.7l2.9,0.3l-2.2,4.5l-2.9-0.3l-0.9,1.8l3.2,0.4 l-2.3,4.7L723.8,564.9z"></path> <path class="st27" d="M731.9,565.8l8.5-17.5l6.8,0.7l-2.3,4.8l-3.2-0.3l-0.8,1.7l2.9,0.3l-2.2,4.5l-2.9-0.3l-0.9,1.8l3.3,0.4 l-2.3,4.7L731.9,565.8z"></path> <path class="st27" d="M740,565.2l3.6-4.8c0.2,0.7,0.5,1.2,0.7,1.5c0.3,0.3,0.6,0.5,0.9,0.6c0.3,0,0.5,0,0.7-0.2 c0.2-0.2,0.4-0.4,0.5-0.7c0.2-0.5,0.1-0.9-0.5-1.2c-0.1-0.1-0.3-0.1-0.5-0.3c-0.6-0.4-0.9-1-0.9-1.9c0-0.9,0.3-1.9,0.9-3.1 c0.9-1.9,2.1-3.4,3.5-4.5c1.4-1.1,2.7-1.6,4-1.5c0.6,0.1,1.1,0.2,1.6,0.6c0.5,0.3,0.8,0.8,1.1,1.4l-3.4,4.5 c-0.1-0.5-0.3-0.9-0.6-1.1c-0.3-0.3-0.6-0.4-0.9-0.5c-0.3,0-0.5,0-0.7,0.2c-0.2,0.1-0.4,0.3-0.5,0.6c-0.2,0.5,0.1,1,0.9,1.5 c0.1,0.1,0.2,0.2,0.3,0.2c0.6,0.3,0.9,1,0.8,1.9c0,0.9-0.3,1.9-0.9,3.1c-1,2-2.2,3.5-3.6,4.6c-0.7,0.6-1.4,1-2.1,1.2 c-0.7,0.2-1.3,0.3-2,0.3c-0.7-0.1-1.2-0.3-1.8-0.7C740.8,566.5,740.3,565.9,740,565.2z"></path> </g> </g> </g> </svg> 