<?xml version="1.0" encoding="UTF-8"?> <!-- Generator: Adobe Illustrator 24.2.1, SVG Export Plug-In . SVG Version: 6.00 Build 0) --> <svg xmlns="http://www.w3.org/2000/svg" xmlns:xlink="http://www.w3.org/1999/xlink" version="1.1" id="Layer_1" x="0px" y="0px" viewBox="0 0 1000 1000" style="enable-background:new 0 0 1000 1000;" xml:space="preserve"> <style type="text/css"> .st0{display:none;} .st1{display:inline;fill:#108E60;} .st2{display:inline;} .st3{fill:#A36C7B;} .st4{fill:#83223C;} .st5{fill:#AE324E;} .st6{fill:#F7D7DD;} .st7{fill:#FFFFFF;} .st8{fill:none;stroke:#000000;stroke-width:4;stroke-linecap:round;stroke-miterlimit:10;} .st9{fill:none;stroke:#000000;stroke-width:4;stroke-miterlimit:10;} .st10{fill:#FFFFFF;stroke:#000000;stroke-width:4;stroke-miterlimit:10;} .st11{fill:#2A5075;} .st12{fill:#FFFFFF;stroke:#000000;stroke-width:3;stroke-miterlimit:10;} .st13{fill:#1B4250;} .st14{fill:none;stroke:#000000;stroke-width:3;stroke-miterlimit:10;} .st15{fill:none;stroke:#000000;stroke-width:2;stroke-linecap:round;stroke-miterlimit:10;} .st16{fill:none;} .st17{display:inline;fill:none;stroke:#000000;stroke-width:4;stroke-miterlimit:10;} .st18{fill:#C2A9A7;} .st19{fill:#437F67;} .st20{fill:#F2EBE4;} </style> <g class="st0"> <path class="st1" d="M1243.8,737c0,0-1,113.9,128.7,114.9c129.7,1,245.8-49,328.2-36.8s293.8,57.2,361.2,11.2 c67.4-46,57.2-97.1,57.2-97.1L1243.8,737z"></path> <g class="st2"> <rect x="1793.3" y="442.6" transform="matrix(1 -2.926920e-03 2.926920e-03 1 -1.3109 5.3133)" class="st3" width="42.6" height="15.8"></rect> <polygon class="st4" points="1574.6,635.2 1549.3,654.5 1542,660.2 1606.1,660 1592.9,623.7 "></polygon> <rect x="1534.8" y="635.5" transform="matrix(0.8427 -0.5384 0.5384 0.8427 -97.7882 944.2316)" class="st5" width="64.5" height="7.9"></rect> <rect x="1555.9" y="656.8" transform="matrix(1 -2.926920e-03 2.926920e-03 1 -2.0277 4.5645)" class="st6" width="5.2" height="76.5"></rect> <polygon class="st6" points="1945.4,729.1 1589,734.1 1588.9,731.8 1588.7,660 1588.7,630.4 1588.6,627.8 1588.6,626.3 1588.6,621 1588.6,615 1588.6,614.1 1588.6,600.4 1680.8,512.6 1681.4,512 1686.5,507.1 1800.7,506.8 1800.7,506.8 1829.5,506.7 1880.2,506.5 1888.1,517.5 1890.4,520.7 1945.1,596.5 1945.1,624.9 1945.2,634.1 1945.2,635.1 "></polygon> <polygon class="st5" points="1991.4,622.7 1983.1,634 1800.6,634.5 1687.8,519.7 1687.2,520.3 1588.6,614.1 1560.5,616.9 1559.1,614.7 1554.9,608.5 1681.8,493.3 1892.8,495.3 "></polygon> <rect x="1655.6" y="656.1" class="st7" width="42.6" height="76.3"></rect> <line class="st8" x1="1791.2" y1="644.8" x2="1791.4" y2="729.4"></line> <rect x="1725.5" y="630.7" transform="matrix(1 -2.926920e-03 2.926920e-03 1 -1.8918 5.1063)" class="st8" width="36.3" height="36.3"></rect> <rect x="1605" y="631.1" transform="matrix(1 -2.926920e-03 2.926920e-03 1 -1.8934 4.7536)" class="st8" width="36.3" height="36.3"></rect> <rect x="1657.6" y="656.4" transform="matrix(1 -2.926920e-03 2.926920e-03 1 -2.0253 4.9149)" class="st8" width="41.1" height="75.9"></rect> <rect x="1810.2" y="658.7" transform="matrix(1 -2.926920e-03 2.926920e-03 1 -1.9651 5.3664)" class="st8" width="44.4" height="30.8"></rect> <rect x="1881.4" y="658.5" transform="matrix(1 -2.926920e-03 2.926920e-03 1 -1.9642 5.5746)" class="st8" width="44.4" height="30.8"></rect> <rect x="1800.6" y="459" transform="matrix(1 -2.926920e-03 2.926920e-03 1 -1.4055 5.3151)" class="st6" width="29.3" height="47.7"></rect> <rect x="1793.3" y="442.6" transform="matrix(1 -2.926920e-03 2.926920e-03 1 -1.3117 5.3147)" class="st9" width="43.6" height="16.4"></rect> <polyline class="st9" points="2067.6,728.6 1959.6,728.9 1945.4,729.1 1589,734.1 1383.4,737 "></polyline> <line class="st9" x1="1760.2" y1="534.2" x2="1788" y2="534.1"></line> <line class="st9" x1="1838" y1="548.1" x2="1856.1" y2="548.1"></line> <line class="st9" x1="1839.3" y1="556.9" x2="1851.8" y2="556.8"></line> <line class="st9" x1="1803.9" y1="581" x2="1825.4" y2="580.9"></line> <line class="st9" x1="1909.8" y1="587.5" x2="1925.6" y2="587.4"></line> <line class="st9" x1="1875.4" y1="517.5" x2="1896.1" y2="517.5"></line> <line class="st9" x1="1884.3" y1="520.7" x2="1897.8" y2="520.7"></line> <path class="st9" d="M1801.4,632.8c0-0.3,3.8-7.5,3.8-7.5"></path> <line class="st9" x1="1945.2" y1="634.1" x2="1945.4" y2="725.4"></line> <line class="st9" x1="1800.5" y1="459" x2="1800.7" y2="505.6"></line> <polyline class="st9" points="1801.6,507.1 1829.9,506.7 1829.9,505.4 1829.8,460.2 "></polyline> <line class="st9" x1="1588.6" y1="627.9" x2="1589" y2="731.8"></line> <polyline class="st9" points="1587.8,660 1561.7,660.1 1561.9,732.7 "></polyline> <line class="st9" x1="1555" y1="656.1" x2="1555.3" y2="732.7"></line> <g> <path class="st10" d="M1645.9,294.2l0.6,195.9l-111,0.3c-11,4.7-43.2,18.6-44,18.6c0-0.5,20.7-20.3,29.4-28.5l-0.5-186 L1645.9,294.2z"></path> <line class="st9" x1="1552.2" y1="325.3" x2="1618.5" y2="325.3"></line> <path d="M1465,558.6l-11.8,0c-1.3,0-2.2-1.3-1.7-2.5l9.3-23.4c0.3-0.7,0.9-1.2,1.7-1.2l11.8,0c1.3,0,2.2,1.3,1.7,2.5l-9.3,23.4 C1466.4,558.1,1465.7,558.6,1465,558.6z"></path> <polygon class="st10" points="1411.8,784.2 1380.9,784.3 1380.9,774.1 1381,758.8 1394.4,758.8 1395,772.7 1396.9,774 "></polygon> <polygon class="st10" points="1447.3,784.1 1416.5,784.2 1416.5,774 1416.5,758.7 1429.9,758.7 1430.5,772.6 1432.4,773.9 "></polygon> <path class="st11" d="M1373.9,604.4c0,0,4.9,158.9,5.1,159.6s18.8-0.1,18.8-0.1l0.2-121.1l3.6-0.2l6.4,120.4l27.1-0.1l-9.2-158.7 L1373.9,604.4z"></path> <line class="st9" x1="1587.7" y1="439.3" x2="1618.7" y2="439.2"></line> <line class="st9" x1="1589.1" y1="447.3" x2="1613.5" y2="447.2"></line> <path class="st12" d="M1367.2,547.3c0,0-6.7,46.6,9.5,49.8c16.1,3.2,44.7-27,44.7-27l-6-3.9c0,0-23.2,14.6-24.9,13.3 c-1.7-1.3-4.4-30.7-4.4-30.7L1367.2,547.3z"></path> <path class="st9" d="M1364.9,558.9"></path> <path class="st7" d="M1425.9,482.9l-6.9,3.5c-2.4,5.9-7.2,9.1-13.7,9.9l-0.6,12l-13.6,0l0.9-15.6c-4.2-3.2-6.9-8.3-6.9-14.1 c0-9.9,8-18,17.9-18c9.9,0,18,8,18,17.9c0,0.9-0.1,1.8-0.2,2.7L1425.9,482.9z"></path> <path d="M1392,484.8c0,0-5.4,5.1-10.6-1c-5.2-6-2.6-27.9,5-29.9c7.6-2.1,3.7,3.6,7.7,2.4c4-1.1,9-9.9,14.6-7.1 c5.5,2.8,1.5,7.8,2.7,8.1s9.7-3.1,11.9-0.7c2.3,2.4-3.4,5.7-2.1,7.3c1.4,1.5,4.8,0.9,5.1,3.6c0.3,2.7-8.3,7.4-20.1,2.2l-7.3,10.8 c0,0-3.3-8.4-7.2-6.5S1392,484.8,1392,484.8z"></path> <ellipse transform="matrix(0.2164 -0.9763 0.9763 0.2164 638.0128 1752.4573)" cx="1410.8" cy="478.8" rx="2.5" ry="1"></ellipse> <path class="st7" d="M1430.6,551.8l22-12l11.1,3.1v0c-0.8,2.1-2.9,3.3-5.1,3l-4.9-0.7c0,0-2,5.4-3.6,7.3 c-1.5,1.9-17.3,8.7-17.3,8.7L1430.6,551.8z"></path> <path class="st13" d="M1411.4,504.8c0,0-38-2.9-39.7,9.8c-1.8,12.7,0.3,94.4,0.3,94.4l57.2-0.2 C1429.1,608.9,1423.9,508.2,1411.4,504.8z"></path> <path class="st13" d="M1374.1,568.4l-13.1-3.5c0,0,7.4-52.5,12-53.3C1377.5,510.7,1374.1,568.4,1374.1,568.4z"></path> <path class="st7" d="M1475.4,550.7c-1.2,4.6-8.2,15.1-8.2,15.1l-0.1,0c-5.1,7.4-23.7,32.6-38.6,29.3 c-17.4-3.9-17.4-59.5-17.4-59.5l18.3,1.4c0,0,3.6,42.2,5.6,40.9c23.6-16.1,27.7-24.5,27.7-24.5s-2.1-2.9-2.1-3.8 c0-1,1.2-1.5,1.2-1.5c11.6,5.7,8.8-5.6,10.5-6.9C1474.1,539.9,1476.7,546.1,1475.4,550.7z"></path> <path class="st13" d="M1408.1,574.2l28.4-4.6c0,0-5-48-7.7-55c-2.7-7-17.4-9.8-17.4-9.8l-8.2,19.4L1408.1,574.2z"></path> <polyline class="st14" points="1373.9,609.1 1379,764 1397.8,764 1398,642.9 1401.6,642.8 1408,763.1 1435.1,763 1426.2,608.9 "></polyline> <path class="st9" d="M1421.8,508.3"></path> <line class="st14" x1="1373.6" y1="530.9" x2="1371" y2="567.5"></line> <path class="st14" d="M1408,532.1l3.1,39.4l25.4-1.8c0,0-5.1-48.8-8.3-56.2s-18.4-8.7-30.2-8.5c-11.8,0.1-19.9,3.1-24.9,6.6 s-12.5,52.8-12.5,52.8l10.5,3.3l0.9,41.5l57.9,0.7"></path> <path class="st14" d="M1433.8,570.5c0,0,1.3,5.1,2.3,4.7c1.1-0.5,18.8-9,27.1-23.1"></path> <path class="st14" d="M1474,538.9c0,0,6.6,7.8,0.1,18.2c-16.3,26.3-35.6,39.6-45.1,38.2s-14.1-23.1-14.1-23.1"></path> <path class="st14" d="M1434.8,549.1c0,0,16.5-9.5,17.8-9.2s10.6,2.3,10.6,2.3"></path> <g> <path d="M1435.3,558.6c1.4-0.5,2.8-1,4.2-1.5c1.4-0.6,2.8-1.2,4.1-1.8c1.3-0.7,2.7-1.3,3.9-2.1c1.2-0.8,2.4-1.7,3-2.7l1.6,0.7 c-0.4,0.9-1,1.6-1.5,2.2c-0.6,0.6-1.2,1.1-1.9,1.6c-1.3,0.9-2.6,1.8-4,2.5c-1.4,0.8-2.8,1.5-4.2,2.1c-1.4,0.7-2.8,1.3-4.3,1.9 L1435.3,558.6z"></path> </g> <path class="st15" d="M1443.8,548.7c0,0,8.7-3.3,9.2-3s0.8,1.4,0.8,1.4l-2.8,4.1"></path> <polygon points="1396.9,774 1411.8,784.2 1380.9,784.3 1380.9,774.1 "></polygon> <polygon points="1447.3,784.1 1416.5,784.2 1416.5,774 1432.4,773.9 "></polygon> </g> <path class="st9" d="M1588.7,630.4"></path> <line class="st9" x1="1552" y1="652" x2="1588.7" y2="630.4"></line> <line class="st16" x1="1595.4" y1="614.5" x2="1560.5" y2="616.9"></line> <polygon class="st4" points="1687.2,520.3 1588.6,614.1 1560.5,616.9 1559.1,614.7 1679.6,509.5 "></polygon> <polyline class="st9" points="1700.6,521 1805.2,625.3 1983.9,624.8 "></polyline> <path class="st9" d="M1592.5,610.4c0.9-0.9,95.4-90.7,95.4-90.7l112.8,114.8l182.5-0.5l8.4-12.7l-98.6-126l-62,0.2"></path> <path class="st9" d="M1679.6,509.5c-22.7,20.1-114.2,101-114.8,101"></path> <polyline class="st9" points="1555.1,660.1 1542,660.2 1537.7,653.5 1588.6,621 1588.6,614.6 1560.5,616.9 1554.9,608.5 1681.8,493.3 1800.6,495.5 "></polyline> <path class="st9" d="M1687.2,520.3"></path> <line class="st9" x1="1679.1" y1="510.9" x2="1687.8" y2="519.7"></line> <line class="st9" x1="1691" y1="687.8" x2="1691" y2="698.9"></line> <line class="st9" x1="1469.5" y1="758.8" x2="1503.2" y2="758.8"></line> <line class="st9" x1="1600.2" y1="779" x2="1623.1" y2="779"></line> <line class="st9" x1="1698.3" y1="752.9" x2="1723.3" y2="752.9"></line> <line class="st9" x1="1925.6" y1="746.3" x2="1945.4" y2="746.3"></line> <line class="st9" x1="1974" y1="796.8" x2="1991.4" y2="796.8"></line> <line class="st9" x1="1333.2" y1="800.9" x2="1378.4" y2="800.9"></line> </g> <line class="st17" x1="1810.2" y1="671.7" x2="1853.5" y2="671.7"></line> <line class="st17" x1="1882.3" y1="671.7" x2="1925.6" y2="671.7"></line> </g> <path class="st18" d="M559.9,652.7L559.9,652.7c0,1.2,0,2.4,0,3.6c-0.3,18.9-2.9,37.3-7.6,54.8c-0.2,0.6-0.3,1.2-0.5,1.8 c-0.1,0.2-0.1,0.4-0.2,0.6l-0.3,1.2c-7.6,26.7-20,51.4-36.2,73.1c-0.2,0-0.4-0.1-0.6-0.1c-74.1-11-178.4,34-295,33.1 c-16.8-0.1-31.2-2.4-43.4-6.1c-26.8-26.1-47.1-58.8-58.4-95.4c-0.2-0.6-0.4-1.2-0.5-1.8c0,0,0-0.1,0-0.1c-0.2-0.6-0.3-1.1-0.5-1.7 c-5.8-19.9-8.9-41-8.9-62.8c0-124.8,101.2-226,226-226c5.7,0,11.4,0.2,17,0.6c0.6,0,1.2,0.1,1.8,0.2c0.6,0,1.2,0.1,1.8,0.2 c26.6,2.4,51.9,9.4,75,20.3c2.5,1.2,4.9,2.3,7.3,3.6c9.4,4.8,18.5,10.3,27.1,16.4c0.6,0.4,1.2,0.8,1.8,1.3c0.6,0.4,1.2,0.9,1.8,1.3 c10.6,7.8,20.6,16.5,29.6,26c0.6,0.6,1.2,1.2,1.7,1.8c0.6,0.6,1.1,1.2,1.7,1.8c3.1,3.4,6.1,6.9,9,10.5c4.8,5.9,9.3,12.1,13.5,18.6 c2.8,4.2,5.4,8.5,7.8,12.9c2.3,4.1,4.5,8.2,6.5,12.5c0.8,1.6,1.5,3.2,2.3,4.9c0.7,1.5,1.4,3.1,2,4.7c7.5,17.6,12.8,36.4,15.7,55.9 c0.2,1.2,0.3,2.4,0.5,3.6C559.3,633.2,559.9,642.9,559.9,652.7z"></path> <path class="st19" d="M758.4,865.4l-550.5,7.2c-101.3,1.3-184.1-80.4-184.1-181.7v0L937.8,679v4.7 C937.8,783.1,857.9,864.1,758.4,865.4z"></path> <rect x="723.5" y="313.8" transform="matrix(1 -2.926920e-03 2.926920e-03 1 -0.9448 2.1991)" class="st3" width="54.6" height="20.2"></rect> <polygon class="st4" points="443.3,560.4 410.9,585.2 401.5,592.5 483.6,592.2 466.8,545.7 "></polygon> <rect x="392.3" y="560.9" transform="matrix(0.8427 -0.5384 0.5384 0.8427 -236.4858 322.4641)" class="st5" width="82.6" height="10.1"></rect> <rect x="419.3" y="588.1" transform="matrix(1 -2.926920e-03 2.926920e-03 1 -1.8631 1.2397)" class="st6" width="6.7" height="98"></rect> <polygon class="st6" points="918.4,680.8 461.7,687.2 461.7,684.2 461.4,592.3 461.3,554.3 461.3,551.1 461.3,549.1 461.3,542.3 461.2,534.5 461.2,533.4 461.2,515.9 579.4,403.4 580.1,402.6 586.7,396.4 732.9,395.9 733,395.9 769.9,395.8 834.9,395.6 845,409.7 848,413.8 917.9,511 918,547.3 918.1,559 918.1,560.4 "></polygon> <polygon class="st5" points="977.3,544.5 966.6,558.9 732.8,559.6 588.4,412.5 587.6,413.3 461.2,533.4 425.3,537.1 423.4,534.2 418.1,526.3 580.6,378.7 851,381.2 "></polygon> <rect x="547.1" y="587.2" class="st7" width="54.6" height="97.7"></rect> <path d="M721.1,683.7c-1.4,0-2.6-1.1-2.6-2.6l-0.3-108.3c0-1.4,1.1-2.6,2.6-2.6c0,0,0,0,0,0c1.4,0,2.6,1.1,2.6,2.6l0.3,108.3 C723.6,682.6,722.5,683.7,721.1,683.7C721.1,683.7,721.1,683.7,721.1,683.7z"></path> <path d="M685.6,552.1l-19.6,0.1l-32.1,0.1l0.2,51.7l35.2-0.1l16.4-0.1L685.6,552.1z M669.4,598.7l-30.2,0.1l-0.1-41.4l27.6-0.1 l13.8,0l0.1,41.4L669.4,598.7z"></path> <path d="M531.2,552.6l-51.6,0.2l0.1,28.6l0,10.9l0,12.2l51.6-0.2L531.2,552.6z M484.8,599.3l-0.1-41.4l41.4-0.1l0.1,41.4 L484.8,599.3z"></path> <path d="M605,682.7l-0.3-97.6l-57.8,0.2l0.1,49l0.1,49.3v1.5l0,1.1v1.6l57.8-0.2v-2.2L605,682.7z M599.9,682.3l-47.5,0.1l-0.3-92.1 l47.5-0.1L599.9,682.3z"></path> <path d="M804.6,587.9l-62.1,0.2l0.1,44.6l62.1-0.2L804.6,587.9z M747.8,627.5l-0.1-17.7l0-5.1l0-11.5l51.8-0.2l0,11.7l0,5.1 l0.1,17.6L747.8,627.5z"></path> <path d="M895.8,587.6l-62.1,0.2l0.1,44.6l62.1-0.2L895.8,587.6z M838.9,627.3l-0.1-17.4l0-5.1l0-11.8l51.8-0.2l0,11.9l0,5.1 l0.1,17.3L838.9,627.3z"></path> <rect x="732.8" y="334.7" transform="matrix(1 -2.926920e-03 2.926920e-03 1 -1.066 2.2014)" class="st6" width="37.5" height="61.1"></rect> <path d="M781.9,311.1l-61,0.2l0.1,26.1l9.2,0l2.6,0h2.6l32.4-0.1h2.6l2.5,0l9.2,0L781.9,311.1z M776.8,316.3l0.1,15.8l-50.7,0.1 l-0.1-15.8L776.8,316.3z"></path> <polygon points="198.3,693.5 198.3,688.4 418.1,684.7 814.5,678 930,677.6 930,682.7 814.5,683.1 "></polygon> <rect x="681.1" y="428.4" transform="matrix(1 -2.929675e-03 2.929675e-03 1 -1.2597 2.0493)" width="35.6" height="5.1"></rect> <rect x="762.1" y="446.3" transform="matrix(1 -2.929675e-03 2.929675e-03 1 -1.3117 2.2687)" width="23.2" height="5.1"></rect> <rect x="782.4" y="457.5" transform="matrix(1 -2.929675e-03 2.929675e-03 1 -1.3445 2.3176)" width="16.1" height="5.1"></rect> <rect x="737" y="488.4" transform="matrix(1 -2.929675e-03 2.929675e-03 1 -1.4352 2.2017)" width="27.5" height="5.1"></rect> <rect x="872.7" y="496.8" transform="matrix(1 -2.929675e-03 2.929675e-03 1 -1.4591 2.5885)" width="20.2" height="5.1"></rect> <rect x="813.5" y="400.8" transform="matrix(1 -2.929675e-03 2.929675e-03 1 -1.1782 2.4239)" width="26.6" height="5.1"></rect> <rect x="824.4" y="413.8" transform="matrix(1 -2.929675e-03 2.929675e-03 1 -1.2163 2.4423)" width="17.2" height="5.1"></rect> <path d="M736.3,558.2c0-0.1,0.1-0.4,0.1-0.8l-5.1,0c0-0.8,0-1,5.1-10.8l4.5,2.4C738.9,553,736.6,557.5,736.3,558.2z"></path> <rect x="915.7" y="559" transform="matrix(1 -2.931064e-03 2.931064e-03 1 -1.806 2.694)" width="5.1" height="117"></rect> <rect x="730.3" y="334.8" transform="matrix(1 -2.934783e-03 2.934783e-03 1 -1.067 2.1523)" width="5.1" height="59.7"></rect> <polygon points="734.1,399 734,393.8 767.9,393.3 767.7,336.2 772.8,336.2 773,398.4 "></polygon> <rect x="458.9" y="551.1" transform="matrix(1 -2.922508e-03 2.922508e-03 1 -1.8031 1.3513)" width="5.1" height="133.1"></rect> <polygon points="424.5,685.4 424.2,589.8 460.3,589.7 460.3,594.9 429.3,595 429.6,685.4 "></polygon> <rect x="415.8" y="587.2" transform="matrix(1 -2.924821e-03 2.924821e-03 1 -1.8593 1.2264)" width="5.1" height="98.2"></rect> <g> <g> <path class="st7" d="M534.6,123.6l0.7,251L393.1,375c-14,6.1-55.3,23.9-56.4,23.9c0-0.7,26.6-26,37.6-36.5l-0.7-238.3L534.6,123.6 z"></path> <path d="M537.8,339l-0.6-218l-166.1,0.5l0.4,156l0.2,83.8c-37.6,35.6-37.6,36.1-37.6,37.6l0,2.6l2.6,0c0.6,0,1.8,0,56.9-23.9 l144.3-0.4L537.8,339z M392.1,372.7c-14.4,6.2-33.1,14.2-44.8,19.2c7.4-7.1,18.4-17.7,28.8-27.6l0.8-0.8l-0.2-85.5l-0.4-151.3 l155.8-0.5l0.6,209.1l0.1,36.7l-139.7,0.4h-0.5L392.1,372.7z"></path> </g> <rect x="414.6" y="160.9" width="84.9" height="5.1"></rect> <path d="M302.9,462.3l-15.1,0c-1.7,0-2.8-1.7-2.2-3.2l11.9-30c0.4-0.9,1.2-1.5,2.2-1.5l15.1,0c1.7,0,2.8,1.7,2.2,3.2l-11.9,30 C304.7,461.7,303.8,462.3,302.9,462.3z"></path> <g> <polygon class="st7" points="234.7,751.4 195.2,751.5 195.2,738.4 195.2,718.9 212.4,718.8 213.2,736.6 215.6,738.3 "></polygon> <path d="M238.2,750.7l-22.5-15.4l-0.3-7.9l-0.1-1.9l-0.4-8.4l0-0.8l-20.5,0.1h-1.7v8.5l0,2.6V754l45.6-0.1l4.7,0L238.2,750.7z M197.7,748.9v-10.5l0-10.9v-6l12.2,0l0.2,4.3l0.1,1.7l0.5,10.6l0.4,0.3l15.3,10.5L197.7,748.9z"></path> </g> <g> <polygon class="st7" points="280.2,751.2 240.8,751.3 240.7,738.2 240.8,718.8 258,718.7 258.7,736.5 261.2,738.2 "></polygon> <path d="M261.2,735.1l-0.4-9l-0.1-1.9l-0.1-1.9l-0.3-6.1l-22.2,0.1l0,6.1v3.8l0,12.1v15.7l4.7,0l45.6-0.1L261.2,735.1z M243.3,726.2v-4.9l12.2,0l0,1l0.1,1.9l0.1,1.9l0.5,11.8l0.5,0.3l15.3,10.5l-28.7,0.1v-10.5L243.3,726.2z"></path> </g> <path class="st11" d="M186.1,521c0,0,6.3,203.6,6.6,204.5c0.2,0.9,24.1-0.1,24.1-0.1l0.2-155.2l4.6-0.2l8.3,154.2l34.7-0.1 l-11.8-203.3L186.1,521z"></path> <rect x="460" y="327.1" transform="matrix(1 -2.929675e-03 2.929675e-03 1 -0.9638 1.4074)" width="39.8" height="5.1"></rect> <rect x="460" y="337.4" transform="matrix(1 -2.929675e-03 2.929675e-03 1 -0.9938 1.3949)" width="31.2" height="5.1"></rect> <g> <path class="st7" d="M177.6,447.9c0,0-8.5,59.7,12.1,63.8c20.7,4.1,57.2-34.6,57.2-34.6l-7.7-5c0,0-29.8,18.7-31.9,17 s-5.7-39.4-5.7-39.4L177.6,447.9z"></path> <path d="M235.4,474.5c-1.1,0.7-2.3,1.4-3.7,2.2c-0.7,0.4-1.4,0.8-2.2,1.3c-8.9,5.3-20.8,12.1-22.1,11c-2.1-1.7-5.7-39.4-5.7-39.4 l-14.1-1.1l-1.4-0.1l-3.8-0.3c0,0.6,0,1.3,0,1.9l3.7,0.3l1.5,0.1l12.4,0.9c3.5,36.9,5.5,38.5,6.2,39.1c1,0.8,2.7,2.2,23.6-10.4 c0.7-0.4,1.4-0.8,2.1-1.3c1.2-0.7,2.4-1.5,3.7-2.3L235.4,474.5z M248.5,475.8l-9.2-6l-1.1,0.7c-0.4,0.2-0.8,0.5-1.2,0.7 c-0.6,0.4-1.3,0.8-1.9,1.2c-1.2,0.8-2.5,1.5-3.7,2.3c-0.7,0.4-1.5,0.9-2.2,1.3c-9.2,5.5-17.8,10.3-20.8,11.2 c-1.3-4.2-3.4-21.7-4.9-37.6l-0.2-1.6l-15.8-1.2l-1.3-0.1l-3.8-0.3l-0.1,0l-6.4-0.5l-0.3,1.8c-0.1,1-1.4,10.2-1.7,21.5 c0,0.8,0,1.6,0,2.3c0,0.6,0,1.1,0,1.7c0,12.9,1.5,27.3,7.3,35.1c0.6,0.8,1.3,1.5,2,2.2c0.6,0.6,1.3,1.1,1.9,1.5 c1.3,0.8,2.7,1.4,4.2,1.7c1.2,0.2,2.4,0.3,3.6,0.3c14.7,0,34.4-15.7,45.9-26.3c0.5-0.5,1-0.9,1.5-1.4c0.6-0.5,1.1-1.1,1.7-1.6 c2.2-2.1,3.9-3.8,5-4.9c0.1-0.1,0.2-0.2,0.3-0.3c0.6-0.6,0.9-1,1.1-1.1l1.6-1.7L248.5,475.8z M240.9,480.5c0,0-0.1,0.1-0.1,0.1 c-0.5,0.5-1,0.9-1.5,1.4c-0.5,0.5-1,1-1.6,1.5c-11.7,10.9-33.7,29.1-47.6,26.3c-2-0.4-3.6-1.4-5-3c-0.7-0.8-1.4-1.7-2-2.7 c-0.8-1.3-1.4-2.8-2-4.4c-2.4-6.8-3.2-16.2-3.3-25.4c0-0.6,0-1.2,0-1.8c0-0.7,0-1.5,0-2.2c0.1-7.8,0.8-15.1,1.5-20.4l2.9,0.2 l0.2,0l3.7,0.3l1.5,0.1l12.4,0.9c3.5,36.9,5.5,38.5,6.2,39.1c1,0.8,2.7,2.2,23.6-10.4c0.7-0.4,1.4-0.8,2.1-1.3 c1.2-0.7,2.4-1.5,3.7-2.3c0.7-0.4,1.5-0.9,2.3-1.4c0.5-0.3,1-0.6,1.5-0.9l2.9,1.9l1.7,1.1c-0.7,0.7-1.7,1.7-2.8,2.8L240.9,480.5z"></path> </g> <path class="st9" d="M174.7,462.7"></path> <path class="st7" d="M252.7,365.4l-8.8,4.5c-3,7.5-9.3,11.6-17.6,12.7l-0.8,15.4l-17.4,0.1l1.1-20c-5.4-4.2-8.9-10.7-8.9-18.1 c0-12.7,10.2-23,22.9-23.1c12.7,0,23,10.3,23,22.9c0,1.2-0.1,2.3-0.3,3.5L252.7,365.4z"></path> <path d="M209.3,367.8c0,0-7,6.5-13.6-1.2s-3.3-35.7,6.4-38.4c9.7-2.6,4.7,4.6,9.8,3.1c5.1-1.5,11.6-12.7,18.6-9.1 c7.1,3.6,1.9,9.9,3.5,10.3c1.6,0.4,12.4-4,15.3-0.9s-4.4,7.4-2.7,9.3c1.8,2,6.2,1.2,6.6,4.6c0.4,3.5-10.7,9.5-25.7,2.8l-9.4,13.8 c0,0-4.2-10.8-9.3-8.4C203.9,356.3,209.3,367.8,209.3,367.8z"></path> <ellipse transform="matrix(0.2164 -0.9763 0.9763 0.2164 -168.6449 509.9778)" cx="233.4" cy="360.1" rx="3.2" ry="1.3"></ellipse> <path class="st7" d="M258.8,453.7l28.2-15.3l14.2,3.9l0,0c-1,2.6-3.7,4.2-6.5,3.8l-6.2-0.9c0,0-2.6,6.9-4.6,9.3 c-1.9,2.4-22.1,11.2-22.1,11.2L258.8,453.7z"></path> <path class="st13" d="M234.2,393.5c0,0-48.7-3.8-50.9,12.5c-2.2,16.3,0.4,121,0.4,121l73.2-0.2 C256.8,526.8,250.3,397.8,234.2,393.5z"></path> <path class="st13" d="M186.4,474.9l-16.8-4.5c0,0,9.5-67.3,15.3-68.3S186.4,474.9,186.4,474.9z"></path> <path class="st7" d="M316.3,452.3c-1.6,5.9-10.5,19.3-10.5,19.3l-0.1,0c-6.6,9.5-30.4,41.8-49.4,37.5c-22.3-5-22.3-76.2-22.3-76.2 l23.5,1.8c0,0,4.6,54.1,7.2,52.4c30.2-20.7,35.4-31.4,35.4-31.4s-2.6-3.7-2.7-4.9c0-1.3,1.5-1.9,1.5-1.9 c14.8,7.3,11.2-7.1,13.4-8.8C314.5,438.4,317.9,446.3,316.3,452.3z"></path> <path class="st13" d="M229.9,482.3l36.4-5.8c0,0-6.4-61.5-9.8-70.4c-3.5-8.9-22.3-12.6-22.3-12.6l-10.5,24.8L229.9,482.3z"></path> <polygon points="190.8,727.5 184.2,527.1 188,526.9 194.5,723.6 214.9,723.5 215.1,568.4 223.4,568.3 231.7,722.4 262.5,722.3 251.3,526.9 255.1,526.7 266.6,726.1 228,726.2 219.8,572.2 218.9,572.2 218.7,727.4 "></polygon> <path class="st9" d="M247.5,397.9"></path> <rect x="160.6" y="448.4" transform="matrix(7.226487e-02 -0.9974 0.9974 7.226487e-02 -278.3488 601.4536)" width="47" height="3.8"></rect> <path d="M257.7,529.8l-76-0.9l-1.2-53.7l-13.7-4.3l0.2-1.6c1.6-10.7,10-64.1,16.8-68.9c5.6-3.9,15.9-8.6,33-8.8 c23.2-0.3,36.9,3.8,40.5,12.1c4.3,9.7,10.5,70.1,10.8,72.6l0.2,2l-36.4,2.6l-4.1-52.4l3.8-0.3l3.8,48.6l28.7-2.1 c-2.3-22-7.2-62.4-10.3-69.5c-2-4.6-10.1-10.1-36.9-9.8c-16.2,0.2-25.7,4.5-30.9,8.1c-3.6,2.5-10.4,34.6-15,64.7l13.2,4.1l1.2,52.7 l72.3,0.8L257.7,529.8z"></path> <path d="M265.6,485.5c-0.4,0-0.7-0.1-1.1-0.3c-0.5-0.2-2-1-3.5-7.2l3.7-0.9c0.4,1.6,0.9,3.2,1.4,4.2c4.7-2.3,23.5-12.5,32.8-28.3 l3.3,1.9c-11.4,19.4-35.4,30.3-35.7,30.4C266.2,485.4,265.9,485.5,265.6,485.5z"></path> <path d="M258.5,511.4c-0.7,0-1.4,0-2-0.1c-13.1-1.9-19-28.1-19.6-31l3.8-0.8c1.6,7.4,7.5,26.7,16.4,28c11.7,1.8,35.8-15.7,55.8-48 c7.5-12,0.4-20.8,0.1-21.1l2.9-2.5c0.1,0.1,9.2,11.2,0.2,25.6C295.6,494.6,271.8,511.4,258.5,511.4z"></path> <path d="M294,437.9c-3-0.6-5.8-1.2-6.4-1.4c-0.8-0.2-2.3-0.6-22.6,11c-0.5,0.3-1.1,0.6-1.7,0.9l1.2,2.1l0.7,1.2 c0.1-0.1,0.2-0.1,0.3-0.2c9-5.2,19.2-10.7,21.4-11.3c1,0.3,3.3,0.7,5.7,1.3c3.4,0.7,6.9,1.4,7.6,1.6l0.2-1.1l0.6-2.7 C299.3,439.1,296.6,438.5,294,437.9z"></path> <path d="M264.8,462.3c1.8-0.6,3.6-1.3,5.4-2c1.8-0.7,3.6-1.5,5.3-2.3c1.7-0.8,3.4-1.7,5-2.7c1.6-1,3-2.2,3.8-3.5l2.1,0.9 c-0.5,1.1-1.2,2-2,2.8c-0.8,0.8-1.6,1.4-2.4,2c-1.7,1.2-3.4,2.2-5.1,3.2c-1.8,1-3.5,1.9-5.3,2.7c-1.8,0.9-3.6,1.6-5.5,2.4 L264.8,462.3z"></path> <path d="M284.9,454.3c-0.2,0-0.5-0.1-0.7-0.2c-0.6-0.4-0.7-1.2-0.3-1.8l3.2-4.7c-0.1-0.1-0.1-0.3-0.2-0.4 c-1.6,0.4-6.5,2.1-10.7,3.7c-0.7,0.3-1.4-0.1-1.7-0.7c-0.3-0.7,0.1-1.4,0.7-1.7c11.9-4.6,12.4-4.1,13-3.6c0.8,0.7,1.3,2,1.4,2.4 l0.2,0.6l-3.9,5.8C285.7,454.1,285.3,454.3,284.9,454.3z"></path> <polygon points="215.6,738.3 234.7,751.4 195.2,751.5 195.2,738.4 "></polygon> <polygon points="280.2,751.2 240.8,751.3 240.7,738.2 261.2,738.2 "></polygon> <path d="M494,291.9H391.8v-62.5H494V291.9z M397.2,286.5h91.3v-51.5h-91.3V286.5z"></path> <rect x="442.4" y="233.6" width="5.5" height="44.8"></rect> <polygon points="447.3,233.8 442.9,230.6 470.9,191.5 494.5,230.8 489.8,233.6 470.5,201.5 "></polygon> <polygon points="396.8,232.2 392.2,229.3 415.6,192.2 470.7,192.2 470.7,197.6 418.7,197.6 "></polygon> <rect x="454.1" y="243.8" width="7.5" height="10.9"></rect> <rect x="476.2" y="243.8" width="7.5" height="10.9"></rect> <rect x="465.3" y="265.4" width="6.6" height="20"></rect> <rect x="400.7" y="246" width="8.6" height="6.6"></rect> <rect x="427.9" y="246" width="8.2" height="6.6"></rect> <g> <path d="M390,313.9v-12.4h8.3v3.4h-3.8v1.4h3.5v3.2h-3.5v4.4H390z"></path> <path d="M412.7,307.7c0,0.9-0.2,1.8-0.5,2.5c-0.3,0.8-0.8,1.5-1.4,2.1c-0.6,0.6-1.3,1.1-2.1,1.4c-0.8,0.3-1.7,0.5-2.6,0.5 c-0.9,0-1.8-0.2-2.6-0.5c-0.8-0.3-1.5-0.8-2.2-1.4c-0.6-0.6-1.1-1.3-1.4-2.1c-0.3-0.8-0.5-1.6-0.5-2.6c0-0.9,0.2-1.8,0.5-2.6 c0.3-0.8,0.8-1.5,1.4-2.1c0.6-0.6,1.3-1.1,2.1-1.4c0.8-0.3,1.7-0.5,2.6-0.5c0.9,0,1.8,0.2,2.6,0.5c0.8,0.3,1.5,0.8,2.2,1.4 c0.6,0.6,1.1,1.3,1.4,2.1C412.5,306,412.7,306.8,412.7,307.7z M406,310.1c0.6,0,1.1-0.2,1.5-0.6c0.4-0.4,0.6-1,0.6-1.7 c0-0.7-0.2-1.3-0.6-1.7c-0.4-0.4-0.9-0.6-1.5-0.6c-0.6,0-1.1,0.2-1.5,0.6c-0.4,0.4-0.6,1-0.6,1.7c0,0.7,0.2,1.3,0.6,1.7 C404.9,309.9,405.4,310.1,406,310.1z"></path> <path d="M414.6,313.9v-12.4h5.6c1.6,0,2.9,0.4,3.7,1.1c0.9,0.7,1.3,1.8,1.3,3.1c0,0.9-0.2,1.6-0.6,2.2c-0.4,0.6-1,0.9-1.8,1 l3.3,5.1h-5l-2.2-4.1v4.1H414.6z M419,304.7v2.4h0.7c0.4,0,0.8-0.1,1-0.3c0.2-0.2,0.3-0.5,0.3-0.9c0-0.4-0.1-0.7-0.3-0.9 c-0.2-0.2-0.6-0.3-1-0.3H419z"></path> <path d="M431.9,312.9l1.4-3.5c0.7,0.5,1.2,0.8,1.7,1c0.5,0.2,1,0.3,1.4,0.3c0.3,0,0.6-0.1,0.7-0.2c0.2-0.1,0.3-0.3,0.3-0.5 c0-0.3-0.4-0.6-1.3-0.8c-0.2,0-0.4-0.1-0.7-0.1c-0.9-0.2-1.6-0.6-2.1-1.2c-0.5-0.6-0.7-1.3-0.7-2.2c0-1.3,0.5-2.4,1.4-3.3 c1-0.8,2.2-1.2,3.8-1.2c0.7,0,1.4,0.1,2.1,0.3c0.7,0.2,1.4,0.5,2.1,0.8l-1.4,3.3c-0.5-0.3-0.9-0.6-1.3-0.7 c-0.5-0.2-0.9-0.2-1.3-0.2c-0.3,0-0.6,0.1-0.7,0.2c-0.2,0.1-0.2,0.3-0.2,0.4c0,0.4,0.6,0.7,1.9,0.9c0.2,0.1,0.3,0.1,0.5,0.1 c0.9,0.2,1.5,0.6,2,1.2c0.5,0.6,0.7,1.3,0.7,2.2c0,1.4-0.5,2.5-1.5,3.4c-0.5,0.4-1.1,0.8-1.7,1c-0.7,0.2-1.4,0.3-2.1,0.3 c-0.8,0-1.6-0.1-2.4-0.3C433.5,313.7,432.7,313.3,431.9,312.9z"></path> <path d="M442,313.9l4.4-12.4h5l4.3,12.4h-4.8l-0.4-1.6h-3.4l-0.4,1.6H442z M447.9,309.4h1.9l-0.4-1.4c-0.2-0.7-0.3-1.3-0.4-1.7 c-0.1-0.3-0.1-0.7-0.1-1.1h-0.1c0,0.4-0.1,0.7-0.1,1.1c-0.1,0.5-0.2,1-0.4,1.7L447.9,309.4z"></path> <path d="M456.4,313.9v-12.4h4.5v8.4h4.3v4H456.4z"></path> <path d="M466.6,313.9v-12.4h8.3v3.4H471v1.2h3.6v3.2H471v1.3h4v3.4H466.6z"></path> </g> </g> <path class="st9" d="M461.3,554.3"></path> <rect x="410.5" y="565.6" transform="matrix(0.8615 -0.5077 0.5077 0.8615 -227.8132 300.9376)" width="54.5" height="5.1"></rect> <line class="st16" x1="470" y1="533.9" x2="425.3" y2="537.1"></line> <polygon class="st4" points="587.6,413.3 461.2,533.4 425.3,537.1 423.4,534.2 577.9,399.4 "></polygon> <polygon points="737.7,550.4 736.9,549.6 603,415.9 606.6,412.3 739.8,545.2 967.7,544.6 967.7,549.7 "></polygon> <path d="M731.8,562.1l-143.5-146C573.2,430.5,469,529.5,467.9,530.6l-3.5-3.7c1.2-1.1,122.2-116.2,122.2-116.2l1.8-1.7L733.9,557 l231.3-0.7l9-13.5l-124.4-159l-78.1,0.2l0-5.1l80.6-0.2l128.3,163.9L968,561.4L731.8,562.1z"></path> <path d="M430.8,531.4l0-5.1c-0.8,0-1.3,0.3-1.4,0.4c3.1-2.3,77.9-68.2,146.8-129.2l3.4,3.8c-17.8,15.8-52.5,46.4-84.1,74.3 c-18.6,16.4-33.3,29.3-43.7,38.5C432,531.4,432,531.4,430.8,531.4z"></path> <polygon points="400.1,595 392.5,583.1 458.7,540.9 458.7,536.9 424,539.8 414.7,525.9 579.6,376.1 732.9,379 732.8,384.1 581.6,381.3 421.4,526.7 426.6,534.4 463.8,531.3 463.8,543.7 399.6,584.7 402.9,589.9 418.2,589.9 418.3,595 "></polygon> <path class="st9" d="M587.6,413.3"></path> <rect x="580.2" y="398.9" transform="matrix(0.7146 -0.6995 0.6995 0.7146 -118.2837 523.7902)" width="5.1" height="15.9"></rect> <rect x="589.9" y="627.9" width="5.1" height="14.2"></rect> <rect x="308.7" y="716.3" width="43.2" height="5.1"></rect> <rect x="476.1" y="742.2" width="29.3" height="5.1"></rect> <rect x="601.7" y="708.7" width="32.1" height="5.1"></rect> <rect x="892.9" y="700.2" width="25.5" height="5.1"></rect> <rect x="833.7" y="765" width="22.3" height="5.1"></rect> <rect x="134" y="770.2" width="57.9" height="5.1"></rect> <rect x="745.2" y="604.7" width="55.4" height="5.1"></rect> <rect x="837.5" y="604.7" width="55.4" height="5.1"></rect> <path d="M209.7,393.3l-3.8-0.3l1.2-13.9c-7.3-4.6-8.7-12.5-8.8-12.9l3.8-0.6l-1.9,0.3l1.9-0.3c0,0.1,1.3,7.2,7.9,10.8l1.1,0.6 L209.7,393.3z"></path> <path d="M228.9,393.5h-3.8v-11.7l1.4-0.4c0.1,0,12.1-3.5,15.6-12.3l0.3-0.7l5.3-2.7l-4.1-1.3l0.6-1.8c1.8-5.8-1.9-12.7-1.9-12.8 l3.4-1.8c0.2,0.3,3.8,7.1,2.6,13.8l9.6,3l-12.4,6.4c-3.7,8.2-12.9,12.1-16.5,13.4V393.5z"></path> <line class="st16" x1="23.9" y1="690.9" x2="175.9" y2="690.9"></line> <rect x="23.9" y="688.4" width="152" height="5.1"></rect> <line class="st20" x1="235.5" y1="655.9" x2="252.2" y2="655.9"></line> <rect x="235.5" y="654.8" width="16.8" height="2.2"></rect> <line class="st20" x1="238.4" y1="662" x2="252.2" y2="662"></line> <rect x="238.4" y="661" width="13.8" height="2.2"></rect> <line class="st20" x1="204.6" y1="657.6" x2="219.4" y2="657.6"></line> <rect x="204.6" y="656.5" width="14.7" height="2.2"></rect> <line class="st20" x1="203.1" y1="662" x2="219.4" y2="662"></line> <rect x="203.1" y="661" width="16.2" height="2.2"></rect> <line class="st20" x1="239.2" y1="568.1" x2="197.7" y2="568.1"></line> <rect x="197.7" y="566.5" width="41.5" height="3.3"></rect> <polygon points="243.5,559.7 227.1,559.7 227.1,556.4 240.3,556.4 240.3,546 226.7,546 227.8,553.4 224.5,553.9 222.9,542.7 243.5,542.7 "></polygon> <polygon points="204.3,559.7 196.2,559.7 196.2,556.4 201,556.4 201,544.6 195.1,544.6 195.1,541.3 204.3,541.3 "></polygon> <image style="overflow:visible;" width="1920" height="1080" transform="matrix(1 0 0 1 -9515.9492 -7666.2339)"> </image> </svg> 