<?xml version="1.0" encoding="UTF-8"?> <!-- Generator: Adobe Illustrator 24.2.1, SVG Export Plug-In . SVG Version: 6.00 Build 0) --> <svg xmlns="http://www.w3.org/2000/svg" xmlns:xlink="http://www.w3.org/1999/xlink" version="1.1" id="Layer_1" x="0px" y="0px" viewBox="0 0 1000 1000" style="enable-background:new 0 0 1000 1000;" xml:space="preserve"> <style type="text/css"> .st0{display:none;} .st1{display:inline;fill:#108E60;} .st2{display:inline;} .st3{fill:#A36C7B;} .st4{fill:#83223C;} .st5{fill:#AE324E;} .st6{fill:#F7D7DD;} .st7{fill:#FFFFFF;} .st8{fill:none;stroke:#000000;stroke-width:4;stroke-linecap:round;stroke-miterlimit:10;} .st9{fill:none;stroke:#000000;stroke-width:4;stroke-miterlimit:10;} .st10{fill:#FFFFFF;stroke:#000000;stroke-width:4;stroke-miterlimit:10;} .st11{fill:#2A5075;} .st12{fill:#FFFFFF;stroke:#000000;stroke-width:3;stroke-miterlimit:10;} .st13{fill:#1B4250;} .st14{fill:none;stroke:#000000;stroke-width:3;stroke-miterlimit:10;} .st15{fill:none;stroke:#000000;stroke-width:2;stroke-linecap:round;stroke-miterlimit:10;} .st16{fill:none;} .st17{display:inline;fill:none;stroke:#000000;stroke-width:4;stroke-miterlimit:10;} .st18{fill:#C1A9A7;} .st19{fill:#428067;} .st20{fill:#C49A6C;stroke:#000000;stroke-width:5.4637;stroke-miterlimit:10;} .st21{fill:#F6D6DC;stroke:#000000;stroke-width:5.4637;stroke-miterlimit:10;} .st22{fill:#FFFFFF;stroke:#000000;stroke-width:5.4637;stroke-miterlimit:10;} .st23{fill:#2A5075;stroke:#000000;stroke-width:5.4637;stroke-miterlimit:10;} .st24{fill:#295E87;stroke:#000000;stroke-width:5.4637;stroke-miterlimit:10;} .st25{fill:#E6E6E5;stroke:#000000;stroke-width:5.4637;stroke-miterlimit:10;} .st26{fill:none;stroke:#000000;stroke-width:5.4637;stroke-miterlimit:10;} .st27{fill:#231F20;} .st28{fill:#C49A6C;stroke:#000000;stroke-width:3.2782;stroke-miterlimit:10;} .st29{fill:none;stroke:#000000;stroke-width:3.2782;stroke-miterlimit:10;} .st30{fill:#FFFFFF;stroke:#000000;stroke-width:4.3709;stroke-miterlimit:10;} </style> <g class="st0"> <path class="st1" d="M1243.8,737c0,0-1,113.9,128.7,114.9s245.8-49,328.2-36.8s293.8,57.2,361.2,11.2s57.2-97.1,57.2-97.1 L1243.8,737z"></path> <g class="st2"> <rect x="1793.3" y="442.6" transform="matrix(1 -2.926908e-03 2.926908e-03 1 -1.3108 5.3131)" class="st3" width="42.6" height="15.8"></rect> <polygon class="st4" points="1574.6,635.2 1549.3,654.5 1542,660.2 1606.1,660 1592.9,623.7 "></polygon> <rect x="1534.8" y="635.4" transform="matrix(0.8427 -0.5384 0.5384 0.8427 -97.74 944.2712)" class="st5" width="64.5" height="7.9"></rect> <rect x="1555.9" y="656.8" transform="matrix(1 -2.926908e-03 2.926908e-03 1 -2.0277 4.5646)" class="st6" width="5.2" height="76.5"></rect> <polygon class="st6" points="1945.4,729.1 1589,734.1 1588.9,731.8 1588.7,660 1588.7,630.4 1588.6,627.8 1588.6,626.3 1588.6,621 1588.6,615 1588.6,614.1 1588.6,600.4 1680.8,512.6 1681.4,512 1686.5,507.1 1800.7,506.8 1800.7,506.8 1829.5,506.7 1880.2,506.5 1888.1,517.5 1890.4,520.7 1945.1,596.5 1945.1,624.9 1945.2,634.1 1945.2,635.1 "></polygon> <polygon class="st5" points="1991.4,622.7 1983.1,634 1800.6,634.5 1687.8,519.7 1687.2,520.3 1588.6,614.1 1560.5,616.9 1559.1,614.7 1554.9,608.5 1681.8,493.3 1892.8,495.3 "></polygon> <rect x="1655.6" y="656.1" class="st7" width="42.6" height="76.3"></rect> <line class="st8" x1="1791.2" y1="644.8" x2="1791.4" y2="729.4"></line> <rect x="1725.5" y="630.7" transform="matrix(1 -2.926908e-03 2.926908e-03 1 -1.8917 5.1063)" class="st8" width="36.3" height="36.3"></rect> <rect x="1605" y="631.1" transform="matrix(1 -2.926908e-03 2.926908e-03 1 -1.8934 4.7536)" class="st8" width="36.3" height="36.3"></rect> <rect x="1657.6" y="656.4" transform="matrix(1 -2.926908e-03 2.926908e-03 1 -2.0251 4.9148)" class="st8" width="41.1" height="75.9"></rect> <rect x="1810.2" y="658.7" transform="matrix(1 -2.926908e-03 2.926908e-03 1 -1.9652 5.3662)" class="st8" width="44.4" height="30.8"></rect> <rect x="1881.4" y="658.5" transform="matrix(1 -2.926908e-03 2.926908e-03 1 -1.9643 5.5746)" class="st8" width="44.4" height="30.8"></rect> <rect x="1800.6" y="459" transform="matrix(1 -2.926908e-03 2.926908e-03 1 -1.4055 5.3152)" class="st6" width="29.3" height="47.7"></rect> <rect x="1793.3" y="442.6" transform="matrix(1 -2.926908e-03 2.926908e-03 1 -1.3117 5.3146)" class="st9" width="43.6" height="16.4"></rect> <polyline class="st9" points="2067.6,728.6 1959.6,728.9 1945.4,729.1 1589,734.1 1383.4,737 "></polyline> <line class="st9" x1="1760.2" y1="534.2" x2="1788" y2="534.1"></line> <line class="st9" x1="1838" y1="548.1" x2="1856.1" y2="548.1"></line> <line class="st9" x1="1839.3" y1="556.9" x2="1851.8" y2="556.8"></line> <line class="st9" x1="1803.9" y1="581" x2="1825.4" y2="580.9"></line> <line class="st9" x1="1909.8" y1="587.5" x2="1925.6" y2="587.4"></line> <line class="st9" x1="1875.4" y1="517.5" x2="1896.1" y2="517.5"></line> <line class="st9" x1="1884.3" y1="520.7" x2="1897.8" y2="520.7"></line> <path class="st9" d="M1801.4,632.8c0-0.3,3.8-7.5,3.8-7.5"></path> <line class="st9" x1="1945.2" y1="634.1" x2="1945.4" y2="725.4"></line> <line class="st9" x1="1800.5" y1="459" x2="1800.7" y2="505.6"></line> <polyline class="st9" points="1801.6,507.1 1829.9,506.7 1829.9,505.4 1829.8,460.2 "></polyline> <line class="st9" x1="1588.6" y1="627.9" x2="1589" y2="731.8"></line> <polyline class="st9" points="1587.8,660 1561.7,660.1 1561.9,732.7 "></polyline> <line class="st9" x1="1555" y1="656.1" x2="1555.3" y2="732.7"></line> <g> <path class="st10" d="M1645.9,294.2l0.6,195.9l-111,0.3c-11,4.7-43.2,18.6-44,18.6c0-0.5,20.7-20.3,29.4-28.5l-0.5-186 L1645.9,294.2z"></path> <line class="st9" x1="1552.2" y1="325.3" x2="1618.5" y2="325.3"></line> <path d="M1465,558.6h-11.8c-1.3,0-2.2-1.3-1.7-2.5l9.3-23.4c0.3-0.7,0.9-1.2,1.7-1.2h11.8c1.3,0,2.2,1.3,1.7,2.5l-9.3,23.4 C1466.4,558.1,1465.7,558.6,1465,558.6z"></path> <polygon class="st10" points="1411.8,784.2 1380.9,784.3 1380.9,774.1 1381,758.8 1394.4,758.8 1395,772.7 1396.9,774 "></polygon> <polygon class="st10" points="1447.3,784.1 1416.5,784.2 1416.5,774 1416.5,758.7 1429.9,758.7 1430.5,772.6 1432.4,773.9 "></polygon> <path class="st11" d="M1373.9,604.4c0,0,4.9,158.9,5.1,159.6s18.8-0.1,18.8-0.1l0.2-121.1l3.6-0.2L1408,763l27.1-0.1l-9.2-158.7 L1373.9,604.4z"></path> <line class="st9" x1="1587.7" y1="439.3" x2="1618.7" y2="439.2"></line> <line class="st9" x1="1589.1" y1="447.3" x2="1613.5" y2="447.2"></line> <path class="st12" d="M1367.2,547.3c0,0-6.7,46.6,9.5,49.8c16.1,3.2,44.7-27,44.7-27l-6-3.9c0,0-23.2,14.6-24.9,13.3 c-1.7-1.3-4.4-30.7-4.4-30.7L1367.2,547.3z"></path> <path class="st9" d="M1364.9,558.9"></path> <path class="st7" d="M1425.9,482.9l-6.9,3.5c-2.4,5.9-7.2,9.1-13.7,9.9l-0.6,12h-13.6l0.9-15.6c-4.2-3.2-6.9-8.3-6.9-14.1 c0-9.9,8-18,17.9-18s18,8,18,17.9c0,0.9-0.1,1.8-0.2,2.7L1425.9,482.9z"></path> <path d="M1392,484.8c0,0-5.4,5.1-10.6-1c-5.2-6-2.6-27.9,5-29.9c7.6-2.1,3.7,3.6,7.7,2.4c4-1.1,9-9.9,14.6-7.1 c5.5,2.8,1.5,7.8,2.7,8.1s9.7-3.1,11.9-0.7c2.3,2.4-3.4,5.7-2.1,7.3c1.4,1.5,4.8,0.9,5.1,3.6c0.3,2.7-8.3,7.4-20.1,2.2l-7.3,10.8 c0,0-3.3-8.4-7.2-6.5S1392,484.8,1392,484.8z"></path> <ellipse transform="matrix(0.2164 -0.9763 0.9763 0.2164 638.1096 1752.4469)" cx="1410.8" cy="478.7" rx="2.5" ry="1"></ellipse> <path class="st7" d="M1430.6,551.8l22-12l11.1,3.1l0,0c-0.8,2.1-2.9,3.3-5.1,3l-4.9-0.7c0,0-2,5.4-3.6,7.3 c-1.5,1.9-17.3,8.7-17.3,8.7L1430.6,551.8z"></path> <path class="st13" d="M1411.4,504.8c0,0-38-2.9-39.7,9.8c-1.8,12.7,0.3,94.4,0.3,94.4l57.2-0.2 C1429.1,608.9,1423.9,508.2,1411.4,504.8z"></path> <path class="st13" d="M1374.1,568.4l-13.1-3.5c0,0,7.4-52.5,12-53.3C1377.5,510.7,1374.1,568.4,1374.1,568.4z"></path> <path class="st7" d="M1475.4,550.7c-1.2,4.6-8.2,15.1-8.2,15.1h-0.1c-5.1,7.4-23.7,32.6-38.6,29.3c-17.4-3.9-17.4-59.5-17.4-59.5 l18.3,1.4c0,0,3.6,42.2,5.6,40.9c23.6-16.1,27.7-24.5,27.7-24.5s-2.1-2.9-2.1-3.8c0-1,1.2-1.5,1.2-1.5c11.6,5.7,8.8-5.6,10.5-6.9 C1474.1,539.9,1476.7,546.1,1475.4,550.7z"></path> <path class="st13" d="M1408.1,574.2l28.4-4.6c0,0-5-48-7.7-55s-17.4-9.8-17.4-9.8l-8.2,19.4L1408.1,574.2z"></path> <polyline class="st14" points="1373.9,609.1 1379,764 1397.8,764 1398,642.9 1401.6,642.8 1408,763.1 1435.1,763 1426.2,608.9 "></polyline> <path class="st9" d="M1421.8,508.3"></path> <line class="st14" x1="1373.6" y1="530.9" x2="1371" y2="567.5"></line> <path class="st14" d="M1408,532.1l3.1,39.4l25.4-1.8c0,0-5.1-48.8-8.3-56.2s-18.4-8.7-30.2-8.5c-11.8,0.1-19.9,3.1-24.9,6.6 c-5,3.5-12.5,52.8-12.5,52.8l10.5,3.3l0.9,41.5l57.9,0.7"></path> <path class="st14" d="M1433.8,570.5c0,0,1.3,5.1,2.3,4.7c1.1-0.5,18.8-9,27.1-23.1"></path> <path class="st14" d="M1474,538.9c0,0,6.6,7.8,0.1,18.2c-16.3,26.3-35.6,39.6-45.1,38.2s-14.1-23.1-14.1-23.1"></path> <path class="st14" d="M1434.8,549.1c0,0,16.5-9.5,17.8-9.2s10.6,2.3,10.6,2.3"></path> <g> <path d="M1435.3,558.6c1.4-0.5,2.8-1,4.2-1.5c1.4-0.6,2.8-1.2,4.1-1.8c1.3-0.7,2.7-1.3,3.9-2.1c1.2-0.8,2.4-1.7,3-2.7l1.6,0.7 c-0.4,0.9-1,1.6-1.5,2.2c-0.6,0.6-1.2,1.1-1.9,1.6c-1.3,0.9-2.6,1.8-4,2.5c-1.4,0.8-2.8,1.5-4.2,2.1c-1.4,0.7-2.8,1.3-4.3,1.9 L1435.3,558.6z"></path> </g> <path class="st15" d="M1443.8,548.7c0,0,8.7-3.3,9.2-3s0.8,1.4,0.8,1.4l-2.8,4.1"></path> <polygon points="1396.9,774 1411.8,784.2 1380.9,784.3 1380.9,774.1 "></polygon> <polygon points="1447.3,784.1 1416.5,784.2 1416.5,774 1432.4,773.9 "></polygon> </g> <path class="st9" d="M1588.7,630.4"></path> <line class="st9" x1="1552" y1="652" x2="1588.7" y2="630.4"></line> <line class="st16" x1="1595.4" y1="614.5" x2="1560.5" y2="616.9"></line> <polygon class="st4" points="1687.2,520.3 1588.6,614.1 1560.5,616.9 1559.1,614.7 1679.6,509.5 "></polygon> <polyline class="st9" points="1700.6,521 1805.2,625.3 1983.9,624.8 "></polyline> <path class="st9" d="M1592.5,610.4c0.9-0.9,95.4-90.7,95.4-90.7l112.8,114.8l182.5-0.5l8.4-12.7l-98.6-126l-62,0.2"></path> <path class="st9" d="M1679.6,509.5c-22.7,20.1-114.2,101-114.8,101"></path> <polyline class="st9" points="1555.1,660.1 1542,660.2 1537.7,653.5 1588.6,621 1588.6,614.6 1560.5,616.9 1554.9,608.5 1681.8,493.3 1800.6,495.5 "></polyline> <path class="st9" d="M1687.2,520.3"></path> <line class="st9" x1="1679.1" y1="510.9" x2="1687.8" y2="519.7"></line> <line class="st9" x1="1691" y1="687.8" x2="1691" y2="698.9"></line> <line class="st9" x1="1469.5" y1="758.8" x2="1503.2" y2="758.8"></line> <line class="st9" x1="1600.2" y1="779" x2="1623.1" y2="779"></line> <line class="st9" x1="1698.3" y1="752.9" x2="1723.3" y2="752.9"></line> <line class="st9" x1="1925.6" y1="746.3" x2="1945.4" y2="746.3"></line> <line class="st9" x1="1974" y1="796.8" x2="1991.4" y2="796.8"></line> <line class="st9" x1="1333.2" y1="800.9" x2="1378.4" y2="800.9"></line> </g> <line class="st17" x1="1810.2" y1="671.7" x2="1853.5" y2="671.7"></line> <line class="st17" x1="1882.3" y1="671.7" x2="1925.6" y2="671.7"></line> </g> <path class="st18" d="M426.1,606.9L101.8,752.1c-8.8,3.9-8,16.7,1.2,19.5c55.2,16.8,195.6,53.2,394.5,60.5 c210.1,7.7,402.8-95.6,469.3-135.8c8.5-5.1,5.7-18-4.1-19.3L426.1,606.9z"></path> <polygon class="st19" points="294.8,379.7 294.8,445.7 47.1,501.6 47.1,391.4 "></polygon> <polygon class="st20" points="777.2,738.8 754.8,738.8 744.5,661.2 787.5,661.2 "></polygon> <polygon class="st20" points="858,675.8 835.7,675.8 825.3,598.2 868.4,598.2 "></polygon> <polygon class="st20" points="407.9,678.4 385.6,678.4 375.2,600.9 418.3,600.9 "></polygon> <path d="M503.1,304.5c0,0-17.7-18-4.1-29.1c13.6-11.1,22.2-0.7,22.2-0.7s11.9-11.8,28.4-7c16.4,4.8,15,19.8,15,19.8 s12.3,8.3,7.3,23.9c-5,15.5-24.3,19.6-24.3,19.6L503.1,304.5z"></path> <path class="st21" d="M835.4,580.9l-392.2-28.4l66.4-174.9c5-13.2,17.8-21.3,32.1-20.2l294.5,21.3c21.9,1.6,38.2,23.2,33.5,44.5 L835.4,580.9z"></path> <path class="st21" d="M390.9,624l-28.2-7.1c-6.4-1.6-10.9-7.4-10.9-14V479.1c0-6.4,4.2-12,10.2-13.8l62.5-19 c1.4-0.4,2.8-0.6,4.2-0.6h30.3c8,0,14.4,6.5,14.4,14.4v111.2c0,5.1-2.7,9.8-7,12.4l-64.6,38.7C398.6,624.4,394.6,624.9,390.9,624z"></path> <path class="st22" d="M470.1,445.7c0,0-7,11.5-16.2,26.2c-2.6,4.2-6.3,7.7-10.6,10.1c-17.2,9.7-41.4,20.9-41.4,20.9l1.7,29.4 c0,0,64.1-22.8,64.1-23.5c0-0.7,26-46.9,26-46.9L470.1,445.7z"></path> <path class="st21" d="M818.2,663.1l-27.1,16.4c-8.6,5.2-18.5,7.2-28.2,5.7l-357.2-54.3c-20.6-3.1-35.7-21.3-35.5-43.1v0 c0.1-20,13.2-37.9,31.9-43.6l71.5-30.3l366.7,38.4v71.3C840.2,639.8,831.8,654.9,818.2,663.1z"></path> <g> <g> <polygon class="st7" points="409,727.3 461.2,727.4 461.2,710.1 461.2,684.4 438.5,684.3 437.5,707.8 434.2,710.1 "></polygon> <path d="M398.1,730.6l60.3,0.2l6.3,0v-20.7l0-16v-5.1l0-8.1l-29.4-0.1l-0.4,8.1l-0.1,2.5l-0.1,2.5l-0.5,11.9L398.1,730.6z M457.8,710.1V724l-37.9-0.1l20.2-13.9l0.6-0.4l0.7-15.6l0.1-2.5l0.1-2.5l0.1-1.4l16.1,0.1v6.4L457.8,710.1z"></path> </g> <polygon points="409,727.3 461.2,727.4 461.2,710.1 434.2,710.1 "></polygon> </g> <g> <g> <polygon class="st7" points="349.8,727.3 402,727.4 402,710.1 402,684.4 379.3,684.3 378.3,707.8 375,710.1 "></polygon> <path d="M338.9,730.6l60.3,0.2l6.3,0v-20.7l0-16v-5.1l0-8.1l-29.4-0.1l-0.4,8.1l-0.1,2.5l-0.1,2.5l-0.5,11.9L338.9,730.6z M398.6,710.1V724l-37.9-0.1l20.2-13.9l0.6-0.4l0.7-15.6l0.1-2.5l0.1-2.5l0.1-1.4l16.1,0.1v6.4L398.6,710.1z"></path> </g> <polygon points="349.8,727.3 402,727.4 402,710.1 375,710.1 "></polygon> </g> <g> <g> <polygon class="st7" points="744.5,615.5 692.3,615.6 692.3,598.3 692.3,572.5 715,572.5 716,596 719.3,598.2 "></polygon> <path d="M719.3,594.2l-0.5-11.9l-0.1-2.5l-0.1-2.5l-0.4-8.1l-29.4,0.1l0,8.1v5.1l0,16V619l6.3,0l60.3-0.2L719.3,594.2z M695.7,582.3v-6.4l16.1-0.1l0.1,1.4l0.1,2.5l0.1,2.5l0.7,15.6l0.6,0.4l20.2,13.9l-37.9,0.1v-13.9L695.7,582.3z"></path> </g> <polygon points="744.5,615.5 692.3,615.6 692.3,598.3 719.3,598.2 "></polygon> </g> <path class="st23" d="M559.4,510.7l-60.5-7.3h0c-3.9-2.7-25-7.9-25-7.9s-31.7,8.8-64.6,27.7c-32.9,18.9-43.9,49.8-43.7,75.6 c0.4,48.1,1,90.8,1,90.8l38.3,1.5l5.3-110.9c1-6.4,4.4-12.1,9.5-15.9l4.1-3.1c0.8-0.6,1.8,0.1,1.6,1c-7.8,40.1,1.4,126.2,1,130.4 l49.7,2.4l2.1-110c0.9-4.9,4-9,8.4-11.3c16.3-8.4,56.1-28.9,63.7-32.6C560.2,536.3,559.4,510.7,559.4,510.7z"></path> <g> <g> <polygon class="st7" points="780.9,613.8 728.7,614 728.7,596.7 728.7,570.9 751.5,570.8 752.5,594.4 755.7,596.6 "></polygon> <path d="M755.8,592.5l-0.5-11.9l-0.1-2.5l-0.1-2.5l-0.4-8.1l-29.4,0.1l0,8.1v5.1l0,16v20.7l6.3,0l60.3-0.2L755.8,592.5z M732.1,580.7v-6.4l16.1-0.1l0.1,1.4l0.1,2.5l0.1,2.5l0.7,15.6l0.6,0.4l20.2,13.9l-37.9,0.1v-13.9L732.1,580.7z"></path> </g> <polygon points="780.9,613.8 728.7,614 728.7,596.7 755.7,596.6 "></polygon> </g> <path class="st24" d="M751.9,461.5c0,0,23.2-10.9,34.5,4.7c11.4,15.6-6.5,73.3-34.8,119.1h-30.1L751.9,461.5z"></path> <path class="st20" d="M481.2,471.9l-26.3-16.5c0,0,31.2-75.6,37.1-81c5.9-5.4,18.1-10.8,18.1-10.8L481.2,471.9z"></path> <polygon class="st25" points="676.2,468.9 629.5,417.5 633.5,478.7 669.1,484.6 "></polygon> <path class="st20" d="M561.1,517.5l-96.2-13.8L501,375.8c3.2-11.2,13.2-19.1,24.9-19.5c16.4-0.6,38.7,0.9,50.7,11.6 c20.3,18,16.2,59.1,16.2,59.1L561.1,517.5z"></path> <path class="st22" d="M558.6,313.1c0-17-13.8-30.7-30.7-30.7c-15.5,0-28.2,11.4-30.4,26.3h-10.8c0,0,7.9,8.8,11.6,12.6 c3.4,12.2,14.1,21.3,27.1,22.4l2.3,13.8l21.1,1.2l-3.4-20.4C553.4,332.9,558.6,323.6,558.6,313.1z"></path> <path d="M549,284.6l-7,17.3l7.8,7.4c0,0,4.4-7.6,6.8-2.4c2.4,5.1-1.8,21.1-1.8,21.1l12.9-9C567.7,319,560.8,291.5,549,284.6z"></path> <ellipse cx="517.9" cy="302.5" rx="2" ry="5.4"></ellipse> <path d="M562.9,369.5c0,0-16.4-19.6-3-34.6s31.7-18.4,38.5-14c6.8,4.4,11,10.6,11,10.6s16.5-1.7,20.9,9.5 c4.4,11.1-9.3,42.7-5.6,52.7c3.7,10,14.5,13.3,13.7,21.9c-0.8,8.6-25.8,35.3-44.6,24.5C575,429.3,562.9,369.5,562.9,369.5z"></path> <polygon class="st26" points="294.8,177.3 294.8,445.7 47.1,501.1 47.1,177.4 "></polygon> <rect x="380.6" y="478.8" width="42.9" height="55"></rect> <path class="st25" d="M619,407.6c-8.8-2-21.6-3.5-37.2-0.9c-6.9,1.2-12.8,5.4-16.4,11.3c-7.6,12.8-17.3,31.2-8.8,66.6 c12.5,52,70.7,75.1,70.7,75.1l66.1-57.1c0,0-58.3-22-61.8-80.1C631.3,415.3,626.1,409.2,619,407.6z"></path> <path class="st22" d="M598.4,474.5l56.7,0.7l8.1,0.1h15l-2,15.3c0,0-79.2,21.6-93.9,4.6L598.4,474.5z"></path> <path class="st24" d="M619.6,543.7c0,0-8.1,16.9,17.8,17.3c32,0.6,46.5,2.4,46.5,2.4l-5.6,21.9h45.2c0,0,51.5-88.7,36.8-116.1 C743.6,438.1,687.6,407.5,619.6,543.7z"></path> <line class="st26" x1="708.3" y1="474.6" x2="683.9" y2="563.4"></line> <path class="st21" d="M804.2,691.8l-31-3.7c-6.1-0.7-10.7-5.8-10.7-11.9V515.3c0-4.7,2.8-8.8,7.2-10.4l69.4-25.4 c1.7-0.6,3.5-0.8,5.4-0.5l30.9,4.7c5.8,0.9,10.4,6.3,10.4,12.3v123.8c0,3.3-1.4,6.4-3.7,8.5l-68.7,60.7 C810.8,691.1,807.5,692.1,804.2,691.8z"></path> <path class="st26" d="M584.6,434.8l15.4,37.8l-21.5,27.6c0,0-20.1-22.8-21.7-49.1"></path> <path class="st22" d="M617.8,363.5c0-16.5-13.4-29.9-29.9-29.9c-15.1,0-27.5,11.1-29.6,25.6h-10.5c0,0,7.7,8.6,11.3,12.3 c3.3,11.9,13.7,20.8,26.4,21.8l2,11.9l20.3-0.5l-2.8-16.6C612.7,382.8,617.8,373.8,617.8,363.5z"></path> <path d="M607,335.8l-4.7,14.9l5.3,9.2c0,0,4.5-6.4,6.4-1.4c1.9,5-2.6,19.6-2.6,19.6l9.9-8.7C621.2,369.3,615.9,342.4,607,335.8z"></path> <ellipse cx="578.1" cy="353.2" rx="2" ry="5.3"></ellipse> <polygon points="571.3,330.9 603.6,352.5 614.1,336.8 584.7,328 "></polygon> <polygon points="533.5,279.1 538,291.9 552.7,300.1 558.6,286.7 "></polygon> <path class="st26" d="M469,517.5c0,0-50,22.8-45.5,65"></path> <path class="st26" d="M779,515.3"></path> <path class="st26" d="M838.1,506.7"></path> <line class="st26" x1="554.9" y1="407.6" x2="560.9" y2="423.6"></line> <path class="st26" d="M93,414.7"></path> <path class="st26" d="M308.6,380.8"></path> <line class="st26" x1="47.1" y1="390.9" x2="242.5" y2="380.9"></line> <line class="st26" x1="70.7" y1="456.2" x2="107.5" y2="452.9"></line> <line class="st26" x1="129.3" y1="406" x2="166.1" y2="402.7"></line> <line class="st26" x1="224.1" y1="429.7" x2="260.9" y2="426.4"></line> <rect x="153.5" y="334.1" class="st20" width="20.9" height="87.3"></rect> <polygon class="st20" points="231.4,359.3 100.8,368.7 100.8,267.1 231.4,267.1 "></polygon> <polyline class="st26" points="327.1,449 327.1,178.6 298.6,177.4 "></polyline> <line class="st26" x1="52.8" y1="535.1" x2="327.1" y2="463.1"></line> <line class="st26" x1="47.1" y1="539.2" x2="47.1" y2="495.5"></line> <line class="st26" x1="294.8" y1="445.7" x2="323.7" y2="455.6"></line> <line class="st26" x1="508.2" y1="575.9" x2="617.8" y2="588.3"></line> <line class="st26" x1="669.9" y1="421.4" x2="680.8" y2="421.4"></line> <line class="st26" x1="717.8" y1="402.7" x2="728.8" y2="402.7"></line> <line class="st26" x1="780.9" y1="436.9" x2="791.9" y2="436.9"></line> <line class="st26" x1="107.5" y1="749.6" x2="342" y2="644.6"></line> <line class="st26" x1="547.7" y1="758.7" x2="578.1" y2="758.7"></line> <line class="st26" x1="556.7" y1="700" x2="585.7" y2="700"></line> <line class="st26" x1="271" y1="758.7" x2="308.6" y2="758.7"></line> <line class="st26" x1="708.3" y1="738.8" x2="725.3" y2="738.8"></line> <line class="st26" x1="940.7" y1="674.3" x2="868.4" y2="664.8"></line> <g> <path class="st27" d="M135.3,309.6v-22.5l14,0v6l-6.4,0v2.6l5.8,0v5.7l-5.8,0.1v8L135.3,309.6z"></path> <path class="st27" d="M172.7,298.1c0,1.6-0.3,3.1-0.8,4.5c-0.5,1.4-1.3,2.7-2.3,3.7c-1,1.1-2.1,1.9-3.5,2.5 c-1.3,0.6-2.7,0.9-4.2,0.9c-1.5,0-2.9-0.2-4.3-0.8c-1.3-0.6-2.5-1.4-3.6-2.5c-1-1.1-1.8-2.3-2.3-3.7c-0.5-1.4-0.8-2.9-0.8-4.6 c0-1.7,0.3-3.2,0.8-4.6c0.5-1.4,1.3-2.6,2.3-3.7c1-1.1,2.2-1.9,3.5-2.5c1.3-0.6,2.8-0.8,4.3-0.8c1.5,0,2.9,0.3,4.3,0.8 c1.3,0.6,2.5,1.4,3.5,2.5c1,1.1,1.7,2.3,2.3,3.7C172.5,294.9,172.7,296.4,172.7,298.1z M162,302.3c1,0,1.8-0.4,2.5-1.2 c0.6-0.8,0.9-1.8,0.9-3c0-1.3-0.3-2.3-0.9-3c-0.6-0.8-1.5-1.1-2.5-1.1c-1,0-1.9,0.4-2.5,1.2c-0.6,0.8-0.9,1.8-0.9,3.1 c0,1.2,0.3,2.3,0.9,3C160.1,302,161,302.3,162,302.3z"></path> <path class="st27" d="M175.7,308.9v-21.8l8.9,0c2.6,0,4.5,0.6,5.9,1.9c1.3,1.3,2,3,2,5.4c0,1.5-0.3,2.8-1,3.8 c-0.7,1-1.6,1.6-2.7,1.8l5.2,8.7l-7.8,0.1l-3.4-7.1v7.2L175.7,308.9z M182.7,292.7v4.2l1.1,0c0.7,0,1.2-0.2,1.6-0.6 c0.3-0.3,0.5-0.9,0.5-1.5c0-0.7-0.2-1.2-0.5-1.6c-0.4-0.4-0.9-0.5-1.6-0.5L182.7,292.7z"></path> <path class="st27" d="M133.3,345.6l2.4-6.4c1.1,0.8,2.1,1.3,2.9,1.6c0.8,0.3,1.6,0.5,2.4,0.5c0.5,0,0.9-0.1,1.2-0.4 c0.3-0.2,0.4-0.5,0.4-0.9c0-0.6-0.7-1.1-2.2-1.3c-0.3,0-0.7-0.1-1.1-0.2c-1.6-0.4-2.8-1-3.6-2c-0.8-1-1.2-2.3-1.2-3.9 c0-2.4,0.8-4.4,2.5-6c1.6-1.6,3.7-2.4,6.3-2.4c1.2,0,2.4,0.1,3.5,0.4c1.2,0.3,2.3,0.8,3.5,1.4l-2.3,5.9c-0.8-0.6-1.5-1-2.1-1.2 c-0.8-0.3-1.5-0.4-2.1-0.4c-0.5,0-0.9,0.1-1.2,0.3c-0.3,0.2-0.4,0.5-0.4,0.8c0,0.6,1,1.2,3.1,1.5c0.3,0.1,0.5,0.1,0.8,0.2 c1.4,0.3,2.5,0.9,3.4,2c0.8,1,1.2,2.3,1.2,3.8c0,2.5-0.8,4.5-2.5,6.2c-0.8,0.8-1.8,1.5-2.9,1.9c-1.1,0.4-2.3,0.7-3.6,0.8 c-1.3,0.1-2.7-0.1-4.1-0.4C136.1,347,134.7,346.4,133.3,345.6z"></path> <path class="st27" d="M150.3,346.7l7.3-22.5l8.1-0.2l7,21.7l-7.8,0.4l-0.6-2.7l-5.5,0.2l-0.6,2.8L150.3,346.7z M160.1,338.3l3-0.1 l-0.6-2.5c-0.3-1.3-0.5-2.3-0.6-2.9c-0.1-0.6-0.2-1.2-0.2-1.9l-0.2,0c0,0.7-0.1,1.3-0.2,1.9c-0.1,0.8-0.3,1.8-0.6,3L160.1,338.3z"></path> <path class="st27" d="M173.9,345.6v-21.9l7.1-0.2v14.7l6.8-0.3v7L173.9,345.6z"></path> <path class="st27" d="M190,344.9v-21.6l12.8-0.4v5.8l-6,0.2v2.1l5.5-0.2v5.5l-5.5,0.2v2.3l6.2-0.3v5.8L190,344.9z"></path> </g> <line class="st28" x1="528.1" y1="366" x2="556" y2="367.2"></line> <path class="st28" d="M616.2,414.5"></path> <path class="st28" d="M589.4,419.6"></path> <path class="st29" d="M610.3,411.2h-10.8c-2.5,0-4.9-0.5-7.2-1.5l-6.8-3"></path> <path class="st30" d="M412.9,456.1c0.9,3.2-3.2,8.8-8.4,9.6c-5.7,0.9-10.2-4.3-11.9-8.2c-0.5-1.1-3.1-7,0.3-11 c3.2-3.8,9.8-3.8,12.3-1.3c1.4,1.4,0.6,2.5,2.2,5.2C409.5,454,412.3,453.9,412.9,456.1z"></path> <path class="st30" d="M433,417.6c-0.8,4-4.7,6.7-8.4,7.2c-3.6,0.5-8.1-0.9-10.1-4.7c-2.6-4.8-0.1-11,4.1-13.1 c3.3-1.6,6.8-0.4,7.5-0.2c2.9,1,4.5,3,4.9,3.4C431.3,410.9,433.7,413.9,433,417.6z"></path> </svg> 