<?xml version="1.0" encoding="UTF-8"?> <!-- Generator: Adobe Illustrator 24.2.1, SVG Export Plug-In . SVG Version: 6.00 Build 0) --> <svg xmlns="http://www.w3.org/2000/svg" xmlns:xlink="http://www.w3.org/1999/xlink" version="1.1" id="Layer_1" x="0px" y="0px" viewBox="0 0 1000 1000" style="enable-background:new 0 0 1000 1000;" xml:space="preserve"> <style type="text/css"> .st0{fill:#FFFFFF;} .st1{display:none;} .st2{display:inline;fill:#108E60;} .st3{display:inline;} .st4{fill:#A36C7B;} .st5{fill:#83223C;} .st6{fill:#AE324E;} .st7{fill:#F7D7DD;} .st8{fill:none;stroke:#000000;stroke-width:4;stroke-linecap:round;stroke-miterlimit:10;} .st9{fill:none;stroke:#000000;stroke-width:4;stroke-miterlimit:10;} .st10{fill:#FFFFFF;stroke:#000000;stroke-width:4;stroke-miterlimit:10;} .st11{fill:#2A5075;} .st12{fill:#FFFFFF;stroke:#000000;stroke-width:3;stroke-miterlimit:10;} .st13{fill:#1B4250;} .st14{fill:none;stroke:#000000;stroke-width:3;stroke-miterlimit:10;} .st15{fill:none;stroke:#000000;stroke-width:2;stroke-linecap:round;stroke-miterlimit:10;} .st16{fill:none;} .st17{display:inline;fill:none;stroke:#000000;stroke-width:4;stroke-miterlimit:10;} .st18{fill:#A26C7B;} .st19{fill:#82223C;} .st20{fill:#AD324E;} .st21{fill:#F6D6DC;} .st22{fill:none;stroke:#000000;stroke-width:4.1932;stroke-miterlimit:10;} .st23{fill:#428067;} .st24{fill:#FFFFFF;stroke:#000000;stroke-width:4.1932;stroke-miterlimit:10;} .st25{fill:#1B4250;stroke:#000000;stroke-width:4.1932;stroke-miterlimit:10;} .st26{fill:#2A5075;stroke:#000000;stroke-width:4.1932;stroke-miterlimit:10;} .st27{fill:#B2B3B3;stroke:#000000;stroke-width:4.1932;stroke-miterlimit:10;} .st28{fill:#402211;stroke:#000000;stroke-width:4.1932;stroke-miterlimit:10;} .st29{fill:#FFFFFF;stroke:#000000;stroke-width:2.0966;stroke-miterlimit:10;} .st30{fill:#C49A6C;stroke:#000000;stroke-width:5.2415;stroke-miterlimit:10;} .st31{fill:#231F20;} .st32{fill:none;stroke:#231F20;stroke-width:3.1449;stroke-miterlimit:10;} </style> <path class="st0" d="M418.9,236H309c-14.6,0.1-26.6-11.7-26.8-26.3c-0.2-14.6,11.4-26.7,26-27.1c0.9,0,1.8-0.5,2.4-1.3 c0.5-0.8,0.7-1.8,0.3-2.7c-5.9-16.9,2.9-35.3,19.7-41.4c16.8-6.1,35.4,2.4,41.7,19.2c0.3,0.8,0.9,1.4,1.6,1.7c0.8,0.3,1.6,0.3,2.4,0 c3.1-1.4,6.5-2.2,9.9-2.2c11.3,0,21,8,23.3,19c0.3,1.6,1.9,2.7,3.5,2.3c1.9-0.4,3.9-0.6,5.9-0.6c16.4,0,29.7,13.3,29.7,29.7 C448.6,222.7,435.3,236,418.9,236z"></path> <g class="st1"> <path class="st2" d="M1243.8,737c0,0-1,113.9,128.7,114.9s245.8-49,328.2-36.8s293.8,57.2,361.2,11.2s57.2-97.1,57.2-97.1 L1243.8,737z"></path> <g class="st3"> <rect x="1793.3" y="442.6" transform="matrix(1 -2.926895e-03 2.926895e-03 1 -1.3108 5.3131)" class="st4" width="42.6" height="15.8"></rect> <polygon class="st5" points="1574.6,635.2 1549.3,654.5 1542,660.2 1606.1,660 1592.9,623.7 "></polygon> <rect x="1534.8" y="635.4" transform="matrix(0.8427 -0.5384 0.5384 0.8427 -97.7169 944.2612)" class="st6" width="64.5" height="7.9"></rect> <rect x="1555.9" y="656.8" transform="matrix(1 -2.926895e-03 2.926895e-03 1 -2.0277 4.5646)" class="st7" width="5.2" height="76.5"></rect> <polygon class="st7" points="1945.4,729.1 1589,734.1 1588.9,731.8 1588.7,660 1588.7,630.4 1588.6,627.8 1588.6,626.3 1588.6,621 1588.6,615 1588.6,614.1 1588.6,600.4 1680.8,512.6 1681.4,512 1686.5,507.1 1800.7,506.8 1800.7,506.8 1829.5,506.7 1880.2,506.5 1888.1,517.5 1890.4,520.7 1945.1,596.5 1945.1,624.9 1945.2,634.1 1945.2,635.1 "></polygon> <polygon class="st6" points="1991.4,622.7 1983.1,634 1800.6,634.5 1687.8,519.7 1687.2,520.3 1588.6,614.1 1560.5,616.9 1559.1,614.7 1554.9,608.5 1681.8,493.3 1892.8,495.3 "></polygon> <rect x="1655.6" y="656.1" class="st0" width="42.6" height="76.3"></rect> <line class="st8" x1="1791.2" y1="644.8" x2="1791.4" y2="729.4"></line> <rect x="1725.5" y="630.7" transform="matrix(1 -2.926895e-03 2.926895e-03 1 -1.8917 5.1063)" class="st8" width="36.3" height="36.3"></rect> <rect x="1605" y="631.1" transform="matrix(1 -2.926895e-03 2.926895e-03 1 -1.8933 4.7536)" class="st8" width="36.3" height="36.3"></rect> <rect x="1657.6" y="656.4" transform="matrix(1 -2.926895e-03 2.926895e-03 1 -2.0251 4.9148)" class="st8" width="41.1" height="75.9"></rect> <rect x="1810.2" y="658.7" transform="matrix(1 -2.926895e-03 2.926895e-03 1 -1.9652 5.3662)" class="st8" width="44.4" height="30.8"></rect> <rect x="1881.4" y="658.5" transform="matrix(1 -2.926895e-03 2.926895e-03 1 -1.9643 5.5745)" class="st8" width="44.4" height="30.8"></rect> <rect x="1800.6" y="459" transform="matrix(1 -2.926895e-03 2.926895e-03 1 -1.4055 5.3151)" class="st7" width="29.3" height="47.7"></rect> <rect x="1793.3" y="442.6" transform="matrix(1 -2.926895e-03 2.926895e-03 1 -1.3117 5.3146)" class="st9" width="43.6" height="16.4"></rect> <polyline class="st9" points="2067.6,728.6 1959.6,728.9 1945.4,729.1 1589,734.1 1383.4,737 "></polyline> <line class="st9" x1="1760.2" y1="534.2" x2="1788" y2="534.1"></line> <line class="st9" x1="1838" y1="548.1" x2="1856.1" y2="548.1"></line> <line class="st9" x1="1839.3" y1="556.9" x2="1851.8" y2="556.8"></line> <line class="st9" x1="1803.9" y1="581" x2="1825.4" y2="580.9"></line> <line class="st9" x1="1909.8" y1="587.5" x2="1925.6" y2="587.4"></line> <line class="st9" x1="1875.4" y1="517.5" x2="1896.1" y2="517.5"></line> <line class="st9" x1="1884.3" y1="520.7" x2="1897.8" y2="520.7"></line> <path class="st9" d="M1801.4,632.8c0-0.3,3.8-7.5,3.8-7.5"></path> <line class="st9" x1="1945.2" y1="634.1" x2="1945.4" y2="725.4"></line> <line class="st9" x1="1800.5" y1="459" x2="1800.7" y2="505.6"></line> <polyline class="st9" points="1801.6,507.1 1829.9,506.7 1829.9,505.4 1829.8,460.2 "></polyline> <line class="st9" x1="1588.6" y1="627.9" x2="1589" y2="731.8"></line> <polyline class="st9" points="1587.8,660 1561.7,660.1 1561.9,732.7 "></polyline> <line class="st9" x1="1555" y1="656.1" x2="1555.3" y2="732.7"></line> <g> <path class="st10" d="M1645.9,294.2l0.6,195.9l-111,0.3c-11,4.7-43.2,18.6-44,18.6c0-0.5,20.7-20.3,29.4-28.5l-0.5-186 L1645.9,294.2z"></path> <line class="st9" x1="1552.2" y1="325.3" x2="1618.5" y2="325.3"></line> <path d="M1465,558.6h-11.8c-1.3,0-2.2-1.3-1.7-2.5l9.3-23.4c0.3-0.7,0.9-1.2,1.7-1.2h11.8c1.3,0,2.2,1.3,1.7,2.5l-9.3,23.4 C1466.4,558.1,1465.7,558.6,1465,558.6z"></path> <polygon class="st10" points="1411.8,784.2 1380.9,784.3 1380.9,774.1 1381,758.8 1394.4,758.8 1395,772.7 1396.9,774 "></polygon> <polygon class="st10" points="1447.3,784.1 1416.5,784.2 1416.5,774 1416.5,758.7 1429.9,758.7 1430.5,772.6 1432.4,773.9 "></polygon> <path class="st11" d="M1373.9,604.4c0,0,4.9,158.9,5.1,159.6s18.8-0.1,18.8-0.1l0.2-121.1l3.6-0.2L1408,763l27.1-0.1l-9.2-158.7 L1373.9,604.4z"></path> <line class="st9" x1="1587.7" y1="439.3" x2="1618.7" y2="439.2"></line> <line class="st9" x1="1589.1" y1="447.3" x2="1613.5" y2="447.2"></line> <path class="st12" d="M1367.2,547.3c0,0-6.7,46.6,9.5,49.8c16.1,3.2,44.7-27,44.7-27l-6-3.9c0,0-23.2,14.6-24.9,13.3 c-1.7-1.3-4.4-30.7-4.4-30.7L1367.2,547.3z"></path> <path class="st9" d="M1364.9,558.9"></path> <path class="st0" d="M1425.9,482.9l-6.9,3.5c-2.4,5.9-7.2,9.1-13.7,9.9l-0.6,12h-13.6l0.9-15.6c-4.2-3.2-6.9-8.3-6.9-14.1 c0-9.9,8-18,17.9-18s18,8,18,17.9c0,0.9-0.1,1.8-0.2,2.7L1425.9,482.9z"></path> <path d="M1392,484.8c0,0-5.4,5.1-10.6-1c-5.2-6-2.6-27.9,5-29.9c7.6-2.1,3.7,3.6,7.7,2.4c4-1.1,9-9.9,14.6-7.1 c5.5,2.8,1.5,7.8,2.7,8.1s9.7-3.1,11.9-0.7c2.3,2.4-3.4,5.7-2.1,7.3c1.4,1.5,4.8,0.9,5.1,3.6c0.3,2.7-8.3,7.4-20.1,2.2l-7.3,10.8 c0,0-3.3-8.4-7.2-6.5S1392,484.8,1392,484.8z"></path> <ellipse transform="matrix(0.2164 -0.9763 0.9763 0.2164 638.1402 1752.421)" cx="1410.8" cy="478.7" rx="2.5" ry="1"></ellipse> <path class="st0" d="M1430.6,551.8l22-12l11.1,3.1l0,0c-0.8,2.1-2.9,3.3-5.1,3l-4.9-0.7c0,0-2,5.4-3.6,7.3 c-1.5,1.9-17.3,8.7-17.3,8.7L1430.6,551.8z"></path> <path class="st13" d="M1411.4,504.8c0,0-38-2.9-39.7,9.8c-1.8,12.7,0.3,94.4,0.3,94.4l57.2-0.2 C1429.1,608.9,1423.9,508.2,1411.4,504.8z"></path> <path class="st13" d="M1374.1,568.4l-13.1-3.5c0,0,7.4-52.5,12-53.3C1377.5,510.7,1374.1,568.4,1374.1,568.4z"></path> <path class="st0" d="M1475.4,550.7c-1.2,4.6-8.2,15.1-8.2,15.1h-0.1c-5.1,7.4-23.7,32.6-38.6,29.3c-17.4-3.9-17.4-59.5-17.4-59.5 l18.3,1.4c0,0,3.6,42.2,5.6,40.9c23.6-16.1,27.7-24.5,27.7-24.5s-2.1-2.9-2.1-3.8c0-1,1.2-1.5,1.2-1.5c11.6,5.7,8.8-5.6,10.5-6.9 C1474.1,539.9,1476.7,546.1,1475.4,550.7z"></path> <path class="st13" d="M1408.1,574.2l28.4-4.6c0,0-5-48-7.7-55s-17.4-9.8-17.4-9.8l-8.2,19.4L1408.1,574.2z"></path> <polyline class="st14" points="1373.9,609.1 1379,764 1397.8,764 1398,642.9 1401.6,642.8 1408,763.1 1435.1,763 1426.2,608.9 "></polyline> <path class="st9" d="M1421.8,508.3"></path> <line class="st14" x1="1373.6" y1="530.9" x2="1371" y2="567.5"></line> <path class="st14" d="M1408,532.1l3.1,39.4l25.4-1.8c0,0-5.1-48.8-8.3-56.2s-18.4-8.7-30.2-8.5c-11.8,0.1-19.9,3.1-24.9,6.6 c-5,3.5-12.5,52.8-12.5,52.8l10.5,3.3l0.9,41.5l57.9,0.7"></path> <path class="st14" d="M1433.8,570.5c0,0,1.3,5.1,2.3,4.7c1.1-0.5,18.8-9,27.1-23.1"></path> <path class="st14" d="M1474,538.9c0,0,6.6,7.8,0.1,18.2c-16.3,26.3-35.6,39.6-45.1,38.2s-14.1-23.1-14.1-23.1"></path> <path class="st14" d="M1434.8,549.1c0,0,16.5-9.5,17.8-9.2s10.6,2.3,10.6,2.3"></path> <g> <path d="M1435.3,558.6c1.4-0.5,2.8-1,4.2-1.5c1.4-0.6,2.8-1.2,4.1-1.8c1.3-0.7,2.7-1.3,3.9-2.1c1.2-0.8,2.4-1.7,3-2.7l1.6,0.7 c-0.4,0.9-1,1.6-1.5,2.2c-0.6,0.6-1.2,1.1-1.9,1.6c-1.3,0.9-2.6,1.8-4,2.5c-1.4,0.8-2.8,1.5-4.2,2.1c-1.4,0.7-2.8,1.3-4.3,1.9 L1435.3,558.6z"></path> </g> <path class="st15" d="M1443.8,548.7c0,0,8.7-3.3,9.2-3s0.8,1.4,0.8,1.4l-2.8,4.1"></path> <polygon points="1396.9,774 1411.8,784.2 1380.9,784.3 1380.9,774.1 "></polygon> <polygon points="1447.3,784.1 1416.5,784.2 1416.5,774 1432.4,773.9 "></polygon> </g> <path class="st9" d="M1588.7,630.4"></path> <line class="st9" x1="1552" y1="652" x2="1588.7" y2="630.4"></line> <line class="st16" x1="1595.4" y1="614.5" x2="1560.5" y2="616.9"></line> <polygon class="st5" points="1687.2,520.3 1588.6,614.1 1560.5,616.9 1559.1,614.7 1679.6,509.5 "></polygon> <polyline class="st9" points="1700.6,521 1805.2,625.3 1983.9,624.8 "></polyline> <path class="st9" d="M1592.5,610.4c0.9-0.9,95.4-90.7,95.4-90.7l112.8,114.8l182.5-0.5l8.4-12.7l-98.6-126l-62,0.2"></path> <path class="st9" d="M1679.6,509.5c-22.7,20.1-114.2,101-114.8,101"></path> <polyline class="st9" points="1555.1,660.1 1542,660.2 1537.7,653.5 1588.6,621 1588.6,614.6 1560.5,616.9 1554.9,608.5 1681.8,493.3 1800.6,495.5 "></polyline> <path class="st9" d="M1687.2,520.3"></path> <line class="st9" x1="1679.1" y1="510.9" x2="1687.8" y2="519.7"></line> <line class="st9" x1="1691" y1="687.8" x2="1691" y2="698.9"></line> <line class="st9" x1="1469.5" y1="758.8" x2="1503.2" y2="758.8"></line> <line class="st9" x1="1600.2" y1="779" x2="1623.1" y2="779"></line> <line class="st9" x1="1698.3" y1="752.9" x2="1723.3" y2="752.9"></line> <line class="st9" x1="1925.6" y1="746.3" x2="1945.4" y2="746.3"></line> <line class="st9" x1="1974" y1="796.8" x2="1991.4" y2="796.8"></line> <line class="st9" x1="1333.2" y1="800.9" x2="1378.4" y2="800.9"></line> </g> <line class="st17" x1="1810.2" y1="671.7" x2="1853.5" y2="671.7"></line> <line class="st17" x1="1882.3" y1="671.7" x2="1925.6" y2="671.7"></line> </g> <rect x="705.9" y="308.6" transform="matrix(1 -2.926908e-03 2.926908e-03 1 -0.9312 2.1513)" class="st18" width="57.3" height="21.2"></rect> <polygon class="st19" points="412.1,567.1 378.2,593.2 368.3,600.7 454.4,600.5 436.7,551.7 "></polygon> <rect x="358.6" y="567.7" transform="matrix(0.8427 -0.5384 0.5384 0.8427 -245.2572 306.5151)" class="st20" width="86.6" height="10.6"></rect> <rect x="387" y="596.2" transform="matrix(1 -2.926908e-03 2.926908e-03 1 -1.8939 1.1457)" class="st21" width="7" height="102.8"></rect> <polygon class="st21" points="910.2,693.3 431.4,700.1 431.4,696.9 431.1,600.5 431,560.7 431,557.3 431,555.3 430.9,548.1 430.9,540 430.9,538.8 430.9,520.4 554.8,402.5 555.5,401.7 562.4,395.1 715.7,394.7 715.8,394.7 754.5,394.6 822.6,394.4 833.2,409.1 836.3,413.4 909.7,515.3 909.8,553.4 909.8,565.7 909.8,567.1 "></polygon> <polygon class="st20" points="972,550.4 960.7,565.5 715.6,566.2 564.2,412.1 563.4,412.9 430.9,538.8 393.2,542.7 391.2,539.7 385.7,531.4 556.1,376.6 839.5,379.3 "></polygon> <rect x="520.9" y="595.2" class="st0" width="57.3" height="102.4"></rect> <path d="M703.3,696.4c-1.5,0-2.7-1.2-2.7-2.7l-0.3-113.6c0-1.5,1.2-2.7,2.7-2.7l0,0c1.5,0,2.7,1.2,2.7,2.7l0.3,113.6 C706,695.2,704.8,696.4,703.3,696.4L703.3,696.4z"></path> <path d="M666.1,558.5l-20.5,0.1l-33.6,0.1l0.2,54.2l36.9-0.1l17.2-0.1L666.1,558.5z M649.1,607.3l-31.6,0.1l-0.1-43.4l29-0.1h14.4 l0.1,43.4H649.1z"></path> <path d="M504.3,558.9l-54.1,0.2l0.1,30v11.4v12.8l54.1-0.2L504.3,558.9z M455.7,607.9l-0.1-43.4l43.4-0.1l0.1,43.4L455.7,607.9z"></path> <path d="M581.7,695.3L581.4,593l-60.6,0.2l0.1,51.3l0.1,51.7v1.5v1.1v1.6l60.6-0.2V698L581.7,695.3z M576.3,694.9l-49.8,0.1 l-0.3-96.6l49.8-0.1L576.3,694.9z"></path> <path d="M790.9,595.9l-65.1,0.2l0.1,46.8l65.1-0.2L790.9,595.9z M731.3,637.5l-0.1-18.6v-5.4v-12.1l54.3-0.2v12.2v5.4l0.1,18.4 L731.3,637.5z"></path> <path d="M886.4,595.7l-65.1,0.2l0.1,46.8l65.1-0.2L886.4,595.7z M826.9,637.2l-0.1-18.3v-5.4v-12.3l54.3-0.2v12.5v5.4l0.1,18.1 L826.9,637.2z"></path> <rect x="715.6" y="330.6" transform="matrix(1 -2.926908e-03 2.926908e-03 1 -1.0584 2.1536)" class="st21" width="39.3" height="64.1"></rect> <path d="M767.1,305.8l-63.9,0.2l0.1,27.4h9.6h2.7h2.7l33.9-0.1h2.7h2.7h9.6L767.1,305.8z M761.7,311.2l0.1,16.6l-53.2,0.1l-0.1-16.6 L761.7,311.2z"></path> <rect x="661.4" y="428.8" transform="matrix(1 -2.929662e-03 2.929662e-03 1 -1.2614 1.9942)" width="37.3" height="5.4"></rect> <rect x="398" y="201.4" transform="matrix(1 -2.929662e-03 2.929662e-03 1 -0.5962 1.2215)" width="37.3" height="5.4"></rect> <rect x="746.3" y="447.5" transform="matrix(1 -2.929662e-03 2.929662e-03 1 -1.3158 2.2239)" width="24.3" height="5.4"></rect> <rect x="767.6" y="459.3" transform="matrix(1 -2.929662e-03 2.929662e-03 1 -1.3503 2.2754)" width="16.8" height="5.4"></rect> <rect x="329.2" y="169.9" transform="matrix(1 -2.929662e-03 2.929662e-03 1 -0.5044 0.9898)" width="16.8" height="5.4"></rect> <rect x="297.7" y="210.9" transform="matrix(1 -2.929662e-03 2.929662e-03 1 -0.6244 0.8978)" width="16.8" height="5.4"></rect> <rect x="720" y="491.7" transform="matrix(1 -2.929662e-03 2.929662e-03 1 -1.4454 2.1538)" width="28.9" height="5.4"></rect> <rect x="862.3" y="500.4" transform="matrix(1 -2.929662e-03 2.929662e-03 1 -1.4703 2.5595)" width="21.2" height="5.4"></rect> <rect x="800.2" y="399.8" transform="matrix(1 -2.929662e-03 2.929662e-03 1 -1.1758 2.3869)" width="27.9" height="5.4"></rect> <rect x="811.6" y="413.5" transform="matrix(1 -2.929662e-03 2.929662e-03 1 -1.2159 2.4059)" width="18" height="5.4"></rect> <path d="M719.3,564.8c0-0.1,0.1-0.4,0.1-0.9H714c0-0.8,0-1,5.4-11.3l4.8,2.5C722,559.3,719.6,564.1,719.3,564.8z"></path> <rect x="907.3" y="565.7" transform="matrix(1 -2.931051e-03 2.931051e-03 1 -1.834 2.67)" width="5.4" height="122.6"></rect> <rect x="713" y="330.6" transform="matrix(1 -2.934770e-03 2.934770e-03 1 -1.0591 2.102)" width="5.4" height="62.6"></rect> <polygon points="717,397.9 716.9,392.5 752.4,391.9 752.2,332.1 757.5,332.1 757.7,397.2 "></polygon> <rect x="428.5" y="557.3" transform="matrix(1 -2.922495e-03 2.922495e-03 1 -1.831 1.2629)" width="5.4" height="139.6"></rect> <polygon points="392.4,698.1 392.1,598 429.9,597.9 429.9,603.2 397.5,603.3 397.7,698.1 "></polygon> <rect x="383.3" y="595.2" transform="matrix(1 -2.924809e-03 2.924809e-03 1 -1.8898 1.1317)" width="5.4" height="102.9"></rect> <path class="st22" d="M431,560.7"></path> <rect x="377.8" y="572.5" transform="matrix(0.8615 -0.5077 0.5077 0.8615 -235.7655 285.975)" width="57.2" height="5.4"></rect> <line class="st16" x1="440.1" y1="539.3" x2="393.2" y2="542.7"></line> <polygon class="st19" points="563.4,412.9 430.9,538.8 393.2,542.7 391.2,539.7 553.2,398.3 "></polygon> <polygon points="720.7,556.6 719.9,555.8 579.5,415.7 583.3,411.8 722.9,551.2 961.8,550.5 961.8,555.9 "></polygon> <path d="M714.5,568.9l-150.4-153C548.2,431,439,534.8,437.9,535.9l-3.7-3.9c1.2-1.2,128.1-121.8,128.1-121.8l1.9-1.8l152.5,155.2 l242.5-0.7l9.4-14.2L838.2,382l-81.9,0.2v-5.4l84.5-0.2l134.5,171.8l-13.1,19.8L714.5,568.9z"></path> <path d="M399,536.7v-5.4c-0.8,0-1.3,0.4-1.4,0.4c3.3-2.4,81.6-71.5,153.9-135.4l3.6,4c-18.7,16.6-55.1,48.7-88.2,77.9 c-19.5,17.2-34.9,30.7-45.8,40.3C400.3,536.7,400.3,536.7,399,536.7z"></path> <polygon points="366.9,603.4 358.9,590.9 428.3,546.6 428.2,542.4 391.9,545.5 382.1,531 555,373.9 715.7,376.9 715.6,382.3 557.1,379.3 389.2,531.8 394.6,539.9 433.6,536.6 433.6,549.6 366.3,592.6 369.8,598 385.9,598 385.9,603.4 "></polygon> <path class="st22" d="M563.4,412.9"></path> <rect x="555.7" y="397.8" transform="matrix(0.7146 -0.6995 0.6995 0.7146 -124.7682 506.5018)" width="5.4" height="16.7"></rect> <rect x="728.6" y="613.6" width="58.1" height="5.4"></rect> <rect x="825.3" y="613.6" width="58.1" height="5.4"></rect> <path class="st23" d="M210.9,862l577.1,7.5c106.2,1.4,193-84.3,193-190.5l0,0L22.9,666.6v5C22.9,775.8,106.7,860.7,210.9,862z"></path> <polygon points="798,681.8 798.1,676.5 567.6,672.6 152.1,665.5 31,665.1 31,670.5 152.1,670.9 "></polygon> <rect x="565.8" y="637.8" width="5.4" height="14.9"></rect> <rect x="637.1" y="705.7" width="45.3" height="5.4"></rect> <rect x="476.1" y="732.9" width="30.8" height="5.4"></rect> <rect x="341.6" y="697.8" width="33.6" height="5.4"></rect> <rect x="43.2" y="688.9" width="26.7" height="5.4"></rect> <rect x="108.6" y="756.8" width="23.4" height="5.4"></rect> <rect x="804.8" y="762.3" width="60.7" height="5.4"></rect> <line class="st16" x1="981" y1="679.1" x2="821.6" y2="679.1"></line> <rect x="821.6" y="676.4" width="159.3" height="5.4"></rect> <g> <path class="st24" d="M246.2,597.5c-8.7-5.9-18.9-13.8-29.1-24.4c-14.3-14.8-23.7-29.6-29.8-41.1l-14.1,23.3 c34,41.4,49.9,50.9,59.7,54.9L246.2,597.5z"></path> <path class="st25" d="M309,552.8l-15,1.1c0,0,13.1-67.2,24.3-73.1L309,552.8z"></path> <path class="st24" d="M302,447.8l9.3,4.7c3.2,7.9,9.7,12.2,18.4,13.3l0.9,16.1l18.3,0.1l-1.1-21c5.7-4.4,9.3-11.2,9.3-18.9 c0-13.3-10.7-24.2-24-24.2S309,428.6,308.9,442c0,1.2,0.1,2.5,0.3,3.7L302,447.8z"></path> <path d="M347.5,450.3c0,0,7.3,6.8,14.2-1.3s3.5-37.4-6.7-40.2c-10.2-2.8-4.9,4.8-10.3,3.3s-12.2-13.3-19.5-9.5 c-7.4,3.7-2,10.4-3.6,10.8c-1.7,0.4-13-4.2-16-0.9c-3.1,3.3,4.6,7.7,2.8,9.8c-1.9,2.1-6.5,1.2-6.9,4.9c-0.4,3.6,11.2,9.9,26.9,3 l9.8,14.5c0,0,4.4-11.3,9.7-8.8C353.2,438.2,347.5,450.3,347.5,450.3z"></path> <ellipse transform="matrix(5.423558e-02 -0.9985 0.9985 5.423558e-02 -135.4393 737.78)" cx="321.8" cy="440.4" rx="3.3" ry="1.4"></ellipse> <g> <g> <polygon class="st0" points="329,831.6 370.3,831.7 370.3,818 370.3,797.5 352.3,797.5 351.5,816.1 348.9,817.9 "></polygon> <path d="M320.3,834.2l47.8,0.1h5V818v-12.7v-4v-6.4l-23.3-0.1l-0.3,6.4l-0.1,2l-0.1,2l-0.4,9.4L320.3,834.2z M367.7,817.9v11 l-30.1-0.1l16-11l0.5-0.3l0.5-12.3l0.1-2l0.1-2v-1.1h12.8v5.1L367.7,817.9z"></path> </g> <polygon points="329,831.6 370.3,831.7 370.3,818 348.9,817.9 "></polygon> </g> <g> <g> <polygon class="st0" points="284.6,831.6 326,831.7 326,818 326,797.5 308,797.5 307.2,816.1 304.6,817.9 "></polygon> <path d="M276,834.2l47.8,0.1h5V818v-12.7v-4v-6.4l-23.3-0.1l-0.3,6.4l-0.1,2l-0.1,2l-0.4,9.4L276,834.2z M323.4,817.9v11 l-30.1-0.1l16-11l0.5-0.3l0.5-12.3l0.1-2l0.1-2v-1.1h12.8v5.1L323.4,817.9z"></path> </g> <polygon points="284.6,831.6 326,831.7 326,818 304.6,817.9 "></polygon> </g> <polygon class="st26" points="304.8,618.2 304.8,637.6 304.8,645.6 304.8,807.3 330.1,807.3 335.8,645.6 340.9,645.6 344.6,807.3 376,807.3 376,645.6 376,637.6 376,618.2 "></polygon> <path class="st25" d="M302.4,621.6c0-2,8.3-127.7,14.1-138.8c5.8-11.1,52.7-7.7,54.5-2.4c1.8,5.3,8.6,139.7,8.6,139.7L302.4,621.6z "></path> <path class="st24" d="M300.9,538c0,0-34.6,31.1-57.2,51.5l-3-3c-1.4-1.4-3.6-1.4-5,0c-1.4,1.4-1.4,3.6,0,5l2.7,2.7 c-7.9,7.1-13.4,12.1-13.9,12.6c-1.8,1.8-1.1,10.9,8.9,11.2c10,0.4,86.5-60.5,86.5-60.5L300.9,538z"></path> <polyline class="st25" points="348.8,484.5 296.8,534.8 322.8,561.1 365.4,524.8 "></polyline> <path class="st27" d="M173.8,559l18.8-21.9c0,0-21.3-45.7-31.9-52.6L143,522.7L173.8,559z"></path> <path class="st24" d="M177.5,447.8l-9.3,4.7c-3.2,7.9-9.7,12.2-18.4,13.3L149,482l-18.3,0.1l1.1-21c-5.7-4.4-9.3-11.2-9.3-18.9 c0-13.3,10.7-24.2,24-24.2s24.1,10.7,24.2,24.1c0,1.2-0.1,2.5-0.3,3.7L177.5,447.8z"></path> <path class="st28" d="M132,450.3c0,0-3.4,3.2-7.8,2.6c-3.4-0.5-5.5-2.9-6.4-3.9c-5.2-6.1-5-18.4,0.8-26.9 c6.8-10,18.9-11.3,20.1-11.4c7.8-0.7,9,3,19.3,2.6c9.2-0.3,12.5-3.4,16-0.9c4.1,2.8,4.7,10.2,2.4,15c-1.5,3.2-8.1,0.9-25.2,2.6 l-9.8,14.5c0,0-1.1-2.8-2.9-5.3c-1.4-2-5.1-4.3-6.8-3.5C128.7,437.2,131.4,447.9,132,450.3z"></path> <ellipse transform="matrix(0.9985 -5.423558e-02 5.423558e-02 0.9985 -23.6497 9.2007)" cx="157.7" cy="440.3" rx="1.4" ry="3.3"></ellipse> <g> <g> <polygon class="st0" points="155.9,831.6 114.6,831.7 114.6,818 114.6,797.5 132.6,797.5 133.4,816.1 136,817.9 "></polygon> <path d="M136,814.7l-0.4-9.4l-0.1-2l-0.1-2l-0.3-6.4l-23.3,0.1v6.4v4v12.7v16.4h5l47.8-0.1L136,814.7z M117.2,805.3v-5.1H130v1.1 l0.1,2l0.1,2l0.5,12.3l0.5,0.3l16,11l-30.1,0.1v-11L117.2,805.3z"></path> </g> <polygon points="155.9,831.6 114.6,831.7 114.6,818 136,817.9 "></polygon> </g> <g> <g> <polygon class="st0" points="192.5,831.6 151.1,831.7 151.1,818 151.1,797.5 169.1,797.5 169.9,816.1 172.5,817.9 "></polygon> <path d="M172.5,814.7l-0.4-9.4l-0.1-2l-0.1-2l-0.3-6.4l-23.3,0.1v6.4v4v12.7v16.4h5l47.8-0.1L172.5,814.7z M153.8,805.3v-5.1 h12.8v1.1l0.1,2l0.1,2l0.5,12.3l0.5,0.3l16,11l-30.1,0.1v-11L153.8,805.3z"></path> </g> <polygon points="192.5,831.6 151.1,831.7 151.1,818 172.5,817.9 "></polygon> </g> <polygon class="st26" points="174.8,618.2 174.8,637.6 174.8,645.6 174.8,807.3 148.4,807.3 146.2,645.6 141.5,645.6 138.1,807.3 109.2,807.3 109.2,645.6 109.2,637.6 109.2,618.2 "></polygon> <path class="st27" d="M176.5,630c0-2.1-8.3-134.1-14.1-145.7c-5.8-11.7-43.7-7.6-46.1-2.3c-11.3,25-10.4,148-9.3,148.1 C107.1,630,176.5,630,176.5,630z"></path> <path class="st24" d="M233.5,590.6c0,0,7.2,5.2,6.7,6.4c-0.5,1.2-8,3.8-13.5-0.9"></path> <polyline class="st22" points="107.3,559 110.6,558.8 134.8,557.4 139.9,557.1 141.5,505.2 "></polyline> <path class="st24" d="M153,640.6c0-2.4-10-7.9-12.3-9.1c-0.2-0.9-0.4-1.9-0.6-2.9l0,0c-7-22.7-5.3-69.1-5.2-71.2l-24.2,1 c-0.3,9.1-0.1,19.4,1.1,30.5c1.8,17,5.3,31.8,9.1,44.1c0.8,2.4,1.7,4.8,2.9,7.1l0,0c0,0,5.7,14.3,10.6,17.9 c6.1,4.4,18.1,1.8,17.1-1s-6.5-13.4-6.5-13.4S153,643.3,153,640.6z"></path> <path class="st29" d="M140.2,647.6c0,0,3.8,7.8,7,11.5"></path> <path class="st29" d="M135.2,651.3c0,0,3.5,6.5,6.3,9.1"></path> </g> <rect x="642.6" y="682.2" class="st30" width="19.2" height="125.2"></rect> <rect x="576.1" y="618.1" class="st30" width="152.3" height="88.8"></rect> <g> <path class="st31" d="M600.8,682.7v-12c2,2.8,4.2,4.2,6.6,4.2c0.9,0,1.6-0.2,2.2-0.7c0.6-0.5,0.8-1.1,0.8-1.8c0-1-0.6-2-1.8-3 l-1.7-1.3c-1.1-0.8-2.1-1.7-2.9-2.5c-0.8-0.8-1.4-1.7-1.9-2.6c-0.5-0.9-0.9-1.8-1.1-2.7c-0.2-0.9-0.3-1.9-0.3-3 c0-1.8,0.4-3.7,1.2-5.6c0.4-0.9,0.9-1.7,1.4-2.5s1.2-1.4,1.9-2c2-1.7,4.3-2.5,7.1-2.5c2.5,0,4.9,0.7,7.4,2v11.7 c-0.8-1.3-1.8-2.3-2.9-3.1c-1.1-0.8-2.1-1.1-3.2-1.1c-0.8,0-1.4,0.2-2,0.7c-0.5,0.4-0.8,1-0.8,1.6c0,1,0.7,2,2.1,3.1l1.6,1.2 c2.2,1.6,3.7,3.2,4.7,4.8c1,1.7,1.4,3.6,1.4,5.8c0,3.8-1.1,6.9-3.4,9.3c-2.3,2.4-5.2,3.7-8.7,3.7 C606.1,684.3,603.5,683.7,600.8,682.7z"></path> <path class="st31" d="M653,664.6c0,5.8-1.3,10.6-4,14.2c-2.6,3.6-6.1,5.5-10.3,5.5c-3.8,0-7-1.4-9.7-4.2c-3.4-3.5-5.1-8.9-5.1-15.9 c0-6.8,1.8-12,5.3-15.6c2.6-2.7,5.7-4,9.4-4c4.4,0,7.9,1.8,10.5,5.4C651.7,653.6,653,658.5,653,664.6z M642.2,664.6 c0-6.9-1.2-10.4-3.7-10.4c-1.2,0-2.2,0.9-2.9,2.7c-0.7,1.7-1.1,4.2-1.1,7.4s0.3,5.7,1,7.5s1.6,2.7,2.8,2.7s2.2-0.9,2.8-2.6 C641.9,670.2,642.2,667.8,642.2,664.6z"></path> <path class="st31" d="M675.5,683.6h-18.1v-38.3h10.3v29.1h7.8V683.6z"></path> <path class="st31" d="M678.6,683.6v-38.3h8.9c5.1,0,9.1,1.4,11.9,4.1c3.7,3.6,5.6,8.6,5.6,15.1c0,6.4-1.6,11.3-4.7,14.7 c-2.7,2.9-6.7,4.4-12.1,4.4H678.6z M688.9,674.3c3.7-0.2,5.6-3.4,5.6-9.6c0-3.1-0.5-5.5-1.4-7.2c-0.9-1.8-2.2-2.7-3.8-2.7H689 L688.9,674.3L688.9,674.3z"></path> </g> <line class="st32" x1="155.9" y1="722" x2="166" y2="722"></line> <line class="st32" x1="155.9" y1="727.3" x2="166" y2="727.3"></line> <line class="st32" x1="117.9" y1="727.3" x2="128" y2="727.3"></line> <line class="st32" x1="316.5" y1="712.7" x2="329" y2="712.7"></line> <line class="st32" x1="346.7" y1="714.7" x2="358.4" y2="714.7"></line> <line class="st32" x1="321.6" y1="645.1" x2="338.2" y2="645.1"></line> <path d="M418.8,170.6c-1.4,0-2.8,0.1-4.3,0.3c-3.8-12.5-15.3-21-28.4-21c-3.3,0-6.5,0.5-9.5,1.6c-7.6-16.4-25.6-25.4-43.3-21.5 c-17.7,3.9-30.3,19.6-30.3,37.7c0,3.1,0.4,6.2,1.2,9.3c-16.9,2.6-28.9,17.7-27.6,34.7c1.3,17,15.4,30.2,32.4,30.3h109.9 c19.7,0,35.6-16,35.6-35.6S438.4,170.6,418.8,170.6z M418.8,236H308.9c-14.6,0.1-26.6-11.7-26.8-26.3c-0.2-14.6,11.4-26.7,26-27.1 c0.9,0,1.8-0.5,2.4-1.3c0.5-0.8,0.7-1.8,0.3-2.7c-5.9-16.9,2.9-35.3,19.7-41.4c16.8-6.1,35.4,2.4,41.7,19.2c0.3,0.8,0.9,1.4,1.6,1.7 c0.8,0.3,1.6,0.3,2.4,0c3.1-1.4,6.5-2.2,9.9-2.2c11.3,0,21,8,23.3,19c0.3,1.6,1.9,2.7,3.5,2.3c1.9-0.4,3.9-0.6,5.9-0.6 c16.4,0,29.7,13.3,29.7,29.7C448.5,222.7,435.2,236,418.8,236z"></path> </svg> 