<?xml version="1.0" encoding="UTF-8"?> <!-- Generator: Adobe Illustrator 24.2.3, SVG Export Plug-In . SVG Version: 6.00 Build 0) --> <svg xmlns="http://www.w3.org/2000/svg" xmlns:xlink="http://www.w3.org/1999/xlink" version="1.1" id="Layer_1" x="0px" y="0px" viewBox="0 0 1100.8 154" style="enable-background:new 0 0 1100.8 154;" xml:space="preserve"> <style type="text/css"> .st0{fill:#F5938A;} .st1{fill:#FFFFFF;} .st2{fill:none;stroke:#F5938A;stroke-width:2.0772;stroke-miterlimit:10;} </style> <g> <path class="st0" d="M63.4,41.4c27.1,0,47,19.7,47,50.6s-20.1,51-47,51c-19.7,0-33.3-10.3-39.2-23.1v21.7H11.7V7.8h12.5v56.9 C30.4,51.7,44.1,41.4,63.4,41.4z M60.9,52.4c-20.1,0-36.7,15.2-36.7,39.8S40.8,132,60.9,132c20.8,0,36.7-15,36.7-40 C97.6,66.9,81.7,52.4,60.9,52.4z"></path> <path class="st0" d="M176.4,143c-28,0-48.5-19.5-48.5-50.8c0-31.5,20.1-50.8,48.5-50.8c28.9,0,46.6,20.6,46.6,45.7 c0,4,0,6.5-0.4,9.9h-81.9c1.1,23.1,17.2,35.3,35.6,35.3c16.8,0,28.2-8.9,31.8-22.1h13.4C217.1,128.9,201.2,143,176.4,143z M140.8,86.8h69.4c0.5-23-16.1-34.5-34.3-34.5C158,52.2,142.3,63.8,140.8,86.8z"></path> <path class="st0" d="M249.8,53.5h-13.7V42.8h13.7V18.1h12.8v24.8h27.1v10.7h-27.1v61.3c0,12.1,4.2,15.9,15.5,15.9h11.6v10.8h-13.6 c-17.2,0-26.4-7.1-26.4-26.8L249.8,53.5L249.8,53.5z"></path> <path class="st0" d="M314.2,53.5h-13.7V42.8h13.7V18.1H327v24.8h27.1v10.7H327v61.3c0,12.1,4.2,15.9,15.5,15.9h11.6v10.8h-13.6 c-17.2,0-26.4-7.1-26.4-26.8V53.5H314.2z"></path> <path class="st0" d="M417.6,143c-28,0-48.5-19.5-48.5-50.8c0-31.5,20.1-50.8,48.5-50.8c28.9,0,46.6,20.6,46.6,45.7 c0,4,0,6.5-0.4,9.9H382c1.1,23.1,17.2,35.3,35.6,35.3c16.8,0,28.2-8.9,31.8-22.1h13.4C458.3,128.9,442.3,143,417.6,143z M382,86.8 h69.4c0.5-23-16.1-34.5-34.3-34.5C399.1,52.2,383.4,63.8,382,86.8z"></path> <path class="st0" d="M500,141.5h-12.7V42.8H500v17.5c5.4-12.1,16.8-19.3,33.8-19.3v13.2h-3.4c-16.5,0-30.4,7.4-30.4,32.2L500,141.5 L500,141.5z"></path> <path class="st0" d="M697.1,85.1c0-21.9-11.4-33.1-28.9-33.1c-17.9,0-30.6,11.9-30.6,36v53.5h-12.5V85.1 c0-21.9-11.6-33.1-29.1-33.1c-18.1,0-30.6,11.9-30.6,36v53.5h-12.7V42.8h12.7v17c6.3-12.5,18.8-18.8,32.7-18.8 c16.5,0,30.6,7.8,36.5,24.2C640,49.1,654.5,41,670.2,41c21.9,0,39.2,13.7,39.2,42.7v57.9h-12.5V85.1H697.1z"></path> <path class="st0" d="M780.8,143c-27.8,0-49-19.5-49-50.8c0-31.5,21.7-50.8,49.4-50.8c27.8,0,49.4,19.3,49.4,50.8 C830.5,123.5,808.6,143,780.8,143z M780.8,132c18.6,0,36.7-12.7,36.7-39.8S799.8,52.4,781,52.4s-36.3,12.7-36.3,39.8 S762,132,780.8,132z"></path> <path class="st0" d="M855.4,42.8l33.3,86.4L922,42.8h13.4l-39.6,98.7h-14.3l-39.6-98.7C841.9,42.8,855.4,42.8,855.4,42.8z"></path> <path class="st0" d="M995.2,143c-28,0-48.5-19.5-48.5-50.8c0-31.5,20.1-50.8,48.5-50.8c28.9,0,46.6,20.6,46.6,45.7 c0,4,0,6.5-0.4,9.9h-81.9c1.1,23.1,17.2,35.3,35.6,35.3c16.8,0,28.2-8.9,31.8-22.1h13.4C1035.8,128.9,1019.9,143,995.2,143z M959.6,86.8h69.4c0.5-23-16.1-34.5-34.3-34.5C976.7,52.2,961,63.8,959.6,86.8z"></path> </g> <g> <g> <path class="st1" d="M804.8,86.4l-22-20.1c-1-0.9-2.4-0.9-3.4,0l-22,20.1c-0.8,0.7-1,1.8-0.7,2.8c0.4,1,1.3,1.6,2.4,1.6h3.5V111 c0,0.8,0.6,1.4,1.4,1.4h12c0.8,0,1.4-0.6,1.4-1.4V98.7h7.1V111c0,0.8,0.6,1.4,1.4,1.4H798c0.8,0,1.4-0.6,1.4-1.4V90.8h3.5 c1,0,2-0.6,2.3-1.6C805.8,88.2,805.6,87.2,804.8,86.4z"></path> </g> </g> <circle class="st2" cx="1070.3" cy="26.1" r="22.9"></circle> <g> <path class="st0" d="M1070,12.5c5.8,0,8.6,3.2,8.6,7.3c0,3.5-1.9,6.4-6.2,7.2l6.5,10.7h-3l-6.2-10.5h-4.7v10.5h-2.5V12.5H1070z M1070,14.6h-5v10.5h5.1c4.1,0,5.9-2.2,5.9-5.3C1075.9,16.6,1074.2,14.6,1070,14.6z"></path> </g> </svg> 