<?xml version="1.0" encoding="UTF-8"?> <!-- Generator: Adobe Illustrator 24.2.3, SVG Export Plug-In . SVG Version: 6.00 Build 0) --> <svg xmlns="http://www.w3.org/2000/svg" xmlns:xlink="http://www.w3.org/1999/xlink" version="1.1" id="Layer_1" x="0px" y="0px" viewBox="0 0 1101 222.2" style="enable-background:new 0 0 1101 222.2;" xml:space="preserve"> <style type="text/css"> .st0{fill:#F5938A;} .st1{fill:#0C4255;} .st2{fill:none;stroke:#F5938A;stroke-width:2.0772;stroke-miterlimit:10;} </style> <g> <path class="st0" d="M63.4,41.4c27.1,0,47,19.7,47,50.6s-20.1,51-47,51c-19.7,0-33.3-10.3-39.2-23.1v21.7H11.7V7.8h12.5v56.9 C30.4,51.7,44.1,41.4,63.4,41.4z M60.9,52.4c-20.1,0-36.7,15.2-36.7,39.8S40.8,132,60.9,132c20.8,0,36.7-15,36.7-40 C97.6,66.9,81.7,52.4,60.9,52.4z"></path> <path class="st0" d="M176.4,143c-28,0-48.5-19.5-48.5-50.8c0-31.5,20.1-50.8,48.5-50.8c28.9,0,46.6,20.6,46.6,45.7 c0,4,0,6.5-0.4,9.9h-81.9c1.1,23.1,17.2,35.3,35.6,35.3c16.8,0,28.2-8.9,31.8-22.1h13.4C217.1,128.9,201.2,143,176.4,143z M140.8,86.8h69.4c0.5-23-16.1-34.5-34.3-34.5C158,52.2,142.3,63.8,140.8,86.8z"></path> <path class="st0" d="M249.8,53.5h-13.7V42.8h13.7V18.1h12.8v24.8h27.1v10.7h-27.1v61.3c0,12.1,4.2,15.9,15.5,15.9h11.6v10.8h-13.6 c-17.2,0-26.4-7.1-26.4-26.8L249.8,53.5L249.8,53.5z"></path> <path class="st0" d="M314.2,53.5h-13.7V42.8h13.7V18.1H327v24.8h27.1v10.7H327v61.3c0,12.1,4.2,15.9,15.5,15.9h11.6v10.8h-13.6 c-17.2,0-26.4-7.1-26.4-26.8V53.5H314.2z"></path> <path class="st0" d="M417.6,143c-28,0-48.5-19.5-48.5-50.8c0-31.5,20.1-50.8,48.5-50.8c28.9,0,46.6,20.6,46.6,45.7 c0,4,0,6.5-0.4,9.9H382c1.1,23.1,17.2,35.3,35.6,35.3c16.8,0,28.2-8.9,31.8-22.1h13.4C458.3,128.9,442.3,143,417.6,143z M382,86.8 h69.4c0.5-23-16.1-34.5-34.3-34.5C399.1,52.2,383.4,63.8,382,86.8z"></path> <path class="st0" d="M500,141.5h-12.7V42.8H500v17.5c5.4-12.1,16.8-19.3,33.8-19.3v13.2h-3.4c-16.5,0-30.4,7.4-30.4,32.2L500,141.5 L500,141.5z"></path> <path class="st0" d="M697.1,85.1c0-21.9-11.4-33.1-28.9-33.1c-17.9,0-30.6,11.9-30.6,36v53.5h-12.5V85.1 c0-21.9-11.6-33.1-29.1-33.1c-18.1,0-30.6,11.9-30.6,36v53.5h-12.7V42.8h12.7v17c6.3-12.5,18.8-18.8,32.7-18.8 c16.5,0,30.6,7.8,36.5,24.2C640,49.1,654.5,41,670.2,41c21.9,0,39.2,13.7,39.2,42.7v57.9h-12.5V85.1H697.1z"></path> <path class="st0" d="M780.8,143c-27.8,0-49-19.5-49-50.8c0-31.5,21.7-50.8,49.4-50.8c27.8,0,49.4,19.3,49.4,50.8 C830.5,123.5,808.6,143,780.8,143z M780.8,132c18.6,0,36.7-12.7,36.7-39.8S799.8,52.4,781,52.4s-36.3,12.7-36.3,39.8 S762,132,780.8,132z"></path> <path class="st0" d="M855.4,42.8l33.3,86.4L922,42.8h13.4l-39.6,98.7h-14.3l-39.6-98.7C841.9,42.8,855.4,42.8,855.4,42.8z"></path> <path class="st0" d="M995.2,143c-28,0-48.5-19.5-48.5-50.8c0-31.5,20.1-50.8,48.5-50.8c28.9,0,46.6,20.6,46.6,45.7 c0,4,0,6.5-0.4,9.9h-81.9c1.1,23.1,17.2,35.3,35.6,35.3c16.8,0,28.2-8.9,31.8-22.1h13.4C1035.8,128.9,1019.9,143,995.2,143z M959.6,86.8h69.4c0.5-23-16.1-34.5-34.3-34.5C976.7,52.2,961,63.8,959.6,86.8z"></path> </g> <g> <g> <path class="st1" d="M804.8,86.4l-22-20.1c-1-0.9-2.4-0.9-3.4,0l-22,20.1c-0.8,0.7-1,1.8-0.7,2.8c0.4,1,1.3,1.6,2.4,1.6h3.5V111 c0,0.8,0.6,1.4,1.4,1.4h12c0.8,0,1.4-0.6,1.4-1.4V98.7h7.1V111c0,0.8,0.6,1.4,1.4,1.4H798c0.8,0,1.4-0.6,1.4-1.4V90.8h3.5 c1,0,2-0.6,2.3-1.6C805.8,88.2,805.6,87.2,804.8,86.4z"></path> </g> </g> <circle class="st2" cx="1070.5" cy="26.9" r="22.9"></circle> <g> <path class="st0" d="M1070.2,13.2c5.8,0,8.6,3.2,8.6,7.3c0,3.5-1.9,6.4-6.2,7.2l6.5,10.7h-3l-6.2-10.5h-4.7v10.5h-2.5V13.2H1070.2z M1070.2,15.4h-5v10.5h5.1c4.1,0,5.9-2.2,5.9-5.3C1076.2,17.4,1074.5,15.4,1070.2,15.4z"></path> </g> <g> <path class="st1" d="M10.3,165.9h24.8v3.1H24.6v34.6h-3.8V169H10.3V165.9z"></path> <path class="st1" d="M44.8,163.6h3.8v15.5c1.9-3.6,5.8-5.6,10.3-5.6c6.5,0,11.8,4.1,11.8,12.7v17.3h-3.7v-16.8c0-6.5-3.6-9.9-9-9.9 c-5.5,0-9.3,3.5-9.3,10.6v16.1h-3.8V163.6z"></path> <path class="st1" d="M95.5,204c-8.4,0-14.5-5.8-14.5-15.2c0-9.4,6-15.2,14.5-15.2c8.6,0,13.9,6.2,13.9,13.7c0,1.2,0,1.9-0.1,3H84.9 c0.3,6.9,5.1,10.5,10.6,10.5c5,0,8.4-2.6,9.5-6.6h4C107.6,199.8,102.9,204,95.5,204z M84.9,187.2h20.7c0.2-6.9-4.8-10.3-10.3-10.3 C90,176.9,85.3,180.4,84.9,187.2z"></path> <path class="st0" d="M154,173.7c8.1,0,14,5.9,14,15.1c0,9.2-6,15.2-14,15.2c-5.9,0-9.9-3.1-11.7-6.9v6.5h-3.7v-40h3.7v17 C144.1,176.8,148.2,173.7,154,173.7z M153.3,177c-6,0-11,4.5-11,11.9s5,11.9,11,11.9c6.2,0,11-4.5,11-11.9 C164.2,181.3,159.5,177,153.3,177z"></path> <path class="st0" d="M191.5,204c-8.4,0-14.5-5.8-14.5-15.2c0-9.4,6-15.2,14.5-15.2c8.6,0,13.9,6.2,13.9,13.7c0,1.2,0,1.9-0.1,3 h-24.5c0.3,6.9,5.1,10.5,10.6,10.5c5,0,8.4-2.6,9.5-6.6h4C203.7,199.8,198.9,204,191.5,204z M180.9,187.2h20.7 c0.2-6.9-4.8-10.3-10.3-10.3C186,176.9,181.3,180.4,180.9,187.2z"></path> <path class="st0" d="M217.1,177.3H213v-3.2h4.1v-7.4h3.8v7.4h8.1v3.2H221v18.3c0,3.6,1.2,4.8,4.6,4.8h3.5v3.2H225 c-5.1,0-7.9-2.1-7.9-8V177.3z"></path> <path class="st0" d="M240.1,177.3H236v-3.2h4.1v-7.4h3.8v7.4h8.1v3.2h-8.1v18.3c0,3.6,1.2,4.8,4.6,4.8h3.5v3.2H248 c-5.1,0-7.9-2.1-7.9-8V177.3z"></path> <path class="st0" d="M274.7,204c-8.4,0-14.5-5.8-14.5-15.2c0-9.4,6-15.2,14.5-15.2c8.6,0,13.9,6.2,13.9,13.7c0,1.2,0,1.9-0.1,3 h-24.5c0.3,6.9,5.1,10.5,10.6,10.5c5,0,8.4-2.6,9.5-6.6h4C286.9,199.8,282.1,204,274.7,204z M264.1,187.2h20.7 c0.2-6.9-4.8-10.3-10.3-10.3C269.2,176.9,264.5,180.4,264.1,187.2z"></path> <path class="st0" d="M303.1,203.6h-3.8v-29.5h3.8v5.2c1.6-3.6,5-5.8,10.1-5.8v3.9h-1c-4.9,0-9.1,2.2-9.1,9.6V203.6z"></path> <path class="st0" d="M337.6,174.1h3.8l7.3,25.7l8.3-25.7h3.8l8.2,25.7l7.3-25.7h3.7l-9.2,29.5h-3.8l-8.2-24.7l-8.2,24.7h-3.8 L337.6,174.1z"></path> <path class="st0" d="M401.2,173.7c5.9,0,10,3.2,11.7,6.9v-6.5h3.8v29.5h-3.8v-6.5c-1.7,3.8-5.8,7-11.7,7c-8,0-14-6-14-15.2 C387.1,179.6,393.1,173.7,401.2,173.7z M401.9,177c-6.2,0-11,4.3-11,11.8c0,7.5,4.8,11.9,11,11.9c6,0,11-4.5,11-11.9 S407.9,177,401.9,177z"></path> <path class="st0" d="M449.4,174.1h3.9l-17.5,43.4h-3.9l5.7-14l-12.1-29.3h4.2l10,25.2L449.4,174.1z"></path> <path class="st1" d="M481.7,177.3h-4.1v-3.2h4.1v-7.4h3.8v7.4h8.1v3.2h-8.1v18.3c0,3.6,1.2,4.8,4.6,4.8h3.5v3.2h-4.1 c-5.1,0-7.9-2.1-7.9-8V177.3z"></path> <path class="st1" d="M516.5,204c-8.3,0-14.6-5.8-14.6-15.2c0-9.4,6.5-15.2,14.7-15.2c8.3,0,14.7,5.8,14.7,15.2 C531.4,198.2,524.8,204,516.5,204z M516.5,200.7c5.6,0,11-3.8,11-11.9c0-8.1-5.3-11.9-10.9-11.9c-5.6,0-10.9,3.8-10.9,11.9 C505.7,197,510.9,200.7,516.5,200.7z"></path> <path class="st1" d="M570.7,204c-6.7,0-11.4-3.3-11.9-8.7h3.9c0.3,3.2,3.1,5.6,7.9,5.6c4.2,0,6.6-2.3,6.6-5.1 c0-7.3-17.7-3-17.7-14.1c0-4.4,4.2-8,10.4-8c6.3,0,10.5,3.3,10.8,9h-3.8c-0.2-3.3-2.6-5.8-7.1-5.8c-3.9,0-6.4,2.1-6.4,4.7 c0,8,17.4,3.7,17.6,14.1C580.9,200.5,576.8,204,570.7,204z"></path> <path class="st1" d="M604.5,204c-8.4,0-14.5-5.8-14.5-15.2c0-9.4,6-15.2,14.5-15.2c8.6,0,13.9,6.2,13.9,13.7c0,1.2,0,1.9-0.1,3 h-24.5c0.3,6.9,5.1,10.5,10.6,10.5c5,0,8.4-2.6,9.5-6.6h4C616.7,199.8,611.9,204,604.5,204z M593.9,187.2h20.7 c0.2-6.9-4.8-10.3-10.3-10.3C599,176.9,594.3,180.4,593.9,187.2z"></path> <path class="st1" d="M629.1,163.6h3.8v40h-3.8V163.6z"></path> <path class="st1" d="M645.2,163.6h3.8v40h-3.8V163.6z"></path> <path class="st1" d="M700.2,174.1h3.9l-17.5,43.4h-3.9l5.7-14l-12.1-29.3h4.2l10,25.2L700.2,174.1z"></path> <path class="st1" d="M725.9,204c-8.3,0-14.6-5.8-14.6-15.2c0-9.4,6.5-15.2,14.7-15.2c8.3,0,14.7,5.8,14.7,15.2 C740.7,198.2,734.2,204,725.9,204z M725.9,200.7c5.6,0,11-3.8,11-11.9c0-8.1-5.3-11.9-10.9-11.9s-10.9,3.8-10.9,11.9 C715.1,197,720.3,200.7,725.9,200.7z"></path> <path class="st1" d="M776.9,203.6h-3.8v-5.2c-1.8,3.7-5.7,5.7-10,5.7c-6.7,0-12-4.1-12-12.7v-17.2h3.7v16.8c0,6.5,3.6,9.9,9,9.9 c5.5,0,9.3-3.5,9.3-10.6v-16h3.8V203.6z"></path> <path class="st1" d="M793.1,203.6h-3.8v-29.5h3.8v5.2c1.6-3.6,5-5.8,10.1-5.8v3.9h-1c-4.9,0-9.1,2.2-9.1,9.6V203.6z"></path> <path class="st1" d="M831.1,163.6h3.8v15.5c1.9-3.6,5.8-5.6,10.3-5.6c6.5,0,11.8,4.1,11.8,12.7v17.3h-3.7v-16.8 c0-6.5-3.6-9.9-9-9.9c-5.5,0-9.3,3.5-9.3,10.6v16.1h-3.8V163.6z"></path> <path class="st1" d="M881.9,204c-8.3,0-14.6-5.8-14.6-15.2c0-9.4,6.5-15.2,14.7-15.2c8.3,0,14.7,5.8,14.7,15.2 C896.7,198.2,890.2,204,881.9,204z M881.9,200.7c5.6,0,11-3.8,11-11.9c0-8.1-5.3-11.9-10.9-11.9s-10.9,3.8-10.9,11.9 C871.1,197,876.3,200.7,881.9,200.7z"></path> <path class="st1" d="M950.5,186.8c0-6.5-3.4-9.9-8.6-9.9c-5.3,0-9.1,3.6-9.1,10.7v16H929v-16.8c0-6.5-3.5-9.9-8.7-9.9 c-5.4,0-9.1,3.6-9.1,10.7v16h-3.8v-29.5h3.8v5.1c1.9-3.7,5.6-5.6,9.8-5.6c4.9,0,9.1,2.3,10.9,7.2c1.6-4.8,5.9-7.2,10.6-7.2 c6.5,0,11.7,4.1,11.7,12.7v17.3h-3.7V186.8z"></path> <path class="st1" d="M979,204c-8.4,0-14.5-5.8-14.5-15.2c0-9.4,6-15.2,14.5-15.2c8.6,0,13.9,6.2,13.9,13.7c0,1.2,0,1.9-0.1,3h-24.5 c0.3,6.9,5.1,10.5,10.6,10.5c5,0,8.4-2.6,9.5-6.6h4C991.2,199.8,986.4,204,979,204z M968.4,187.2h20.7c0.2-6.9-4.8-10.3-10.3-10.3 C973.5,176.9,968.8,180.4,968.4,187.2z"></path> </g> </svg> 