<?xml version="1.0" encoding="UTF-8"?> <!-- Generator: Adobe Illustrator 24.2.1, SVG Export Plug-In . SVG Version: 6.00 Build 0) --> <svg xmlns="http://www.w3.org/2000/svg" xmlns:xlink="http://www.w3.org/1999/xlink" version="1.1" id="Layer_1" x="0px" y="0px" viewBox="0 0 512 512" style="enable-background:new 0 0 512 512;" xml:space="preserve"> <style type="text/css"> .st0{fill:#0E4254;} .st1{fill:#F59389;} </style> <path class="st0" d="M488,376c-4.4,0-8,3.6-8,8v48H128V288h40c4.4,0,8-3.6,8-8s-3.6-8-8-8h-48c-4.4,0-8,3.6-8,8v160c0,4.4,3.6,8,8,8 h32v40c0,4.4,3.6,8,8,8s8-3.6,8-8v-40h16v40c0,4.4,3.6,8,8,8s8-3.6,8-8v-40h208v40c0,4.4,3.6,8,8,8s8-3.6,8-8v-40h16v40 c0,4.4,3.6,8,8,8s8-3.6,8-8v-40h32c4.4,0,8-3.6,8-8v-56C496,379.6,492.4,376,488,376z"></path> <path class="st0" d="M488,272H200c-4.4,0-8,3.6-8,8s3.6,8,8,8h280v64c0,4.4,3.6,8,8,8s8-3.6,8-8v-72C496,275.6,492.4,272,488,272z"></path> <path class="st0" d="M88,400H64V176h312v72c0,4.4,3.6,8,8,8s8-3.6,8-8v-72h32c4.4,0,8-3.6,8-8c0-1-0.2-2-0.6-3l-32-80 c-1.2-3-4.2-5-7.4-5H160V64h8c4.4,0,8-3.6,8-8V24c0-4.4-3.6-8-8-8H80c-4.4,0-8,3.6-8,8v32c0,4.4,3.6,8,8,8h8v16H56 c-3.3,0-6.2,2-7.4,5l-32,80c-1.6,4.1,0.3,8.8,4.4,10.4c0.9,0.4,2,0.6,3,0.6h24v232c0,4.4,3.6,8,8,8h32c4.4,0,8-3.6,8-8 S92.4,400,88,400z M109.1,96h31.5l-11.3,64H90.6L109.1,96z M156.8,96h31.8l-4.1,64h-39L156.8,96z M412.2,160H374l-18.4-64h31 L412.2,160z M357.4,160h-38.6l-11.3-64h31.5L357.4,160z M302.5,160h-39l-4.1-64h31.8L302.5,160z M243.4,96l4.1,64h-46.9l4.1-64 H243.4z M88,32h72v16H88V32z M144,64v16h-40V64H144z M61.4,96h31L74,160H35.8L61.4,96z"></path> <path class="st0" d="M336,256c4.4,0,8-3.6,8-8v-32c0-4.4-3.6-8-8-8h-80c-4.4,0-8,3.6-8,8v32c0,4.4,3.6,8,8,8s8-3.6,8-8v-24h24v24 c0,4.4,3.6,8,8,8s8-3.6,8-8v-24h24v24C328,252.4,331.6,256,336,256z"></path> <path class="st0" d="M200,256c4.4,0,8-3.6,8-8v-32c0-4.4-3.6-8-8-8h-80c-4.4,0-8,3.6-8,8v32c0,4.4,3.6,8,8,8s8-3.6,8-8v-24h24v24 c0,4.4,3.6,8,8,8s8-3.6,8-8v-24h24v24C192,252.4,195.6,256,200,256z"></path> <path class="st1" d="M184,320c8.8,0,16,7.2,16,16c0,4.4,3.6,8,8,8s8-3.6,8-8c0-17.7-14.3-32-32-32s-32,14.3-32,32s14.3,32,32,32 c8.8,0,16,7.2,16,16s-7.2,16-16,16s-16-7.2-16-16c0-4.4-3.6-8-8-8s-8,3.6-8,8c0,17.7,14.3,32,32,32s32-14.3,32-32s-14.3-32-32-32 c-8.8,0-16-7.2-16-16S175.2,320,184,320z"></path> <path class="st1" d="M271.6,309.5c-1.4-4.2-5.9-6.5-10.1-5.1c-2.4,0.8-4.3,2.7-5.1,5.1l-32,96c-1.4,4.2,0.9,8.7,5.1,10.1 c4.2,1.4,8.7-0.9,10.1-5.1l6.2-18.5h36.5l6.2,18.5c1.4,4.2,5.9,6.5,10.1,5.1c4.2-1.4,6.5-5.9,5.1-10.1L271.6,309.5z M251.1,376 l12.9-38.7l12.9,38.7H251.1z"></path> <path class="st1" d="M368,400h-40v-88c0-4.4-3.6-8-8-8s-8,3.6-8,8v96c0,4.4,3.6,8,8,8h48c4.4,0,8-3.6,8-8S372.4,400,368,400z"></path> <path class="st1" d="M448,400h-40v-32h32c4.4,0,8-3.6,8-8s-3.6-8-8-8h-32v-32h40c4.4,0,8-3.6,8-8s-3.6-8-8-8h-48c-4.4,0-8,3.6-8,8 v96c0,4.4,3.6,8,8,8h48c4.4,0,8-3.6,8-8S452.4,400,448,400z"></path> </svg> 