<?xml version="1.0" encoding="UTF-8"?> <!-- Generator: Adobe Illustrator 24.2.1, SVG Export Plug-In . SVG Version: 6.00 Build 0) --> <svg xmlns="http://www.w3.org/2000/svg" xmlns:xlink="http://www.w3.org/1999/xlink" version="1.1" id="Layer_1" x="0px" y="0px" viewBox="0 0 496 496" style="enable-background:new 0 0 496 496;" xml:space="preserve"> <style type="text/css"> .st0{fill:#0E4254;} .st1{fill:#F5938A;} </style> <path class="st0" d="M464,112V0H100.7L32,68.7V112H0v328c0,13.2,10.8,24,24,24h184.8c3.7,18.2,19.9,32,39.2,32s35.5-13.8,39.2-32 H472c13.2,0,24-10.8,24-24V112H464z M48,80h16v64h160V32H112V16h128v400H48V80z M80,80h32V48h96v80H80V80z M96,64H59.3L96,27.3V64z M256,16h192v400H256V16z M480,440c0,4.4-3.6,8-8,8H272v8c0,13.2-10.8,24-24,24s-24-10.8-24-24v-8H24c-4.4,0-8-3.6-8-8V128h16v304 h432V128h16V440z"></path> <path class="st0" d="M352,32c-48.5,0-88,39.5-88,88s39.5,88,88,88s88-39.5,88-88S400.5,32,352,32z M352,192c-39.7,0-72-32.3-72-72 s32.3-72,72-72s72,32.3,72,72S391.7,192,352,192z"></path> <path class="st0" d="M272,352h160V240H272V352z M288,256h128v80H288V256z"></path> <path class="st0" d="M304,272h96v16h-96V272z"></path> <path class="st0" d="M304,304h96v16h-96V304z"></path> <path class="st0" d="M64,160h160v16H64V160z"></path> <path class="st0" d="M64,192h16v16H64V192z"></path> <path class="st0" d="M96,192h128v16H96V192z"></path> <path class="st0" d="M64,224h160v16H64V224z"></path> <path class="st0" d="M64,320h128v16H64V320z"></path> <path class="st0" d="M208,320h16v16h-16V320z"></path> <path class="st0" d="M64,352h160v16H64V352z"></path> <path class="st0" d="M64,384h160v16H64V384z"></path> <g> <g> <path class="st1" d="M398.5,110.9l-43.1-39.4c-2-1.8-4.7-1.8-6.7,0l-43.1,39.4c-1.6,1.4-2,3.5-1.4,5.5c0.8,2,2.5,3.1,4.7,3.1h6.9 v39.6c0,1.6,1.2,2.7,2.7,2.7h23.5c1.6,0,2.7-1.2,2.7-2.7V135h13.9v24.1c0,1.6,1.2,2.7,2.7,2.7h23.7c1.6,0,2.7-1.2,2.7-2.7v-39.6 h6.9c2,0,3.9-1.2,4.5-3.1C400.5,114.4,400.1,112.4,398.5,110.9z"></path> </g> </g> </svg> 